<?xml version="1.0" encoding="utf-8"?>
<!-- Generator: Adobe Illustrator 24.0.2, SVG Export Plug-In . SVG Version: 6.00 Build 0)  -->
<svg version="1.1" id="Layer_1" xmlns="http://www.w3.org/2000/svg" xmlns:xlink="http://www.w3.org/1999/xlink" x="0px" y="0px"
	 viewBox="0 0 58 17" style="enable-background:new 0 0 58 17;" xml:space="preserve">
<style type="text/css">
	.st0{fill:#404040;}
	.st1{fill:#FFFFFF;}
</style>
<g>
	<path class="st0" d="M29.6,0.3c0.8,0,1.6,0,2.4,0c0,2.2,0,4.3,0,6.5c2.4,0,4.8,0,7.3,0c0-2.2,0-4.3,0-6.5c0.8,0,1.6,0,2.4,0
		c0,5.4,0,10.7,0,16.1c-0.8,0-1.6,0-2.4,0c0-2.5,0-4.9,0-7.3c-2.5,0-4.8,0-7.3,0c0,2.4,0,4.9,0,7.3c-0.8,0-1.6,0-2.4,0
		C29.6,11.1,29.6,5.7,29.6,0.3z"/>
	<path class="st0" d="M14.1,16.5c-0.8,0-1.6,0-2.4,0c-0.1,0-0.2-0.2-0.3-0.3c-0.5-1.4-1-2.8-1.4-4.2c-0.1-0.3-0.2-0.4-0.5-0.4
		c-1.5,0-3.1,0-4.6,0c-0.3,0-0.4,0.1-0.5,0.3c-0.5,1.4-0.9,2.8-1.4,4.2c-0.1,0.3-0.2,0.4-0.5,0.4c-0.7,0-1.4,0-2.1,0
		c0.1-0.4,0.3-0.8,0.4-1.2C2.4,10.5,4,5.6,5.7,0.8c0.1-0.4,0.3-0.5,0.7-0.5c0.6,0,1.3,0,1.9,0c0.3,0,0.4,0.1,0.5,0.3
		c1.4,4.2,2.9,8.4,4.3,12.7C13.4,14.4,13.7,15.4,14.1,16.5z M5.1,9.5c1.4,0,2.8,0,4.1,0C8.5,7.4,7.8,5.3,7.2,3.2
		C6.5,5.3,5.8,7.4,5.1,9.5z"/>
	<path class="st0" d="M57.4,16.5c-0.8,0-1.6,0-2.4,0c-0.1,0-0.2-0.2-0.3-0.3c-0.5-1.4-1-2.8-1.4-4.2c-0.1-0.3-0.2-0.4-0.6-0.4
		c-1.5,0-3,0-4.5,0c-0.3,0-0.4,0.1-0.5,0.4c-0.5,1.4-0.9,2.8-1.4,4.2c-0.1,0.3-0.2,0.4-0.5,0.4c-0.7,0-1.4,0-2.1,0
		c0.2-0.6,0.3-1,0.5-1.5c1.6-4.8,3.2-9.5,4.9-14.3c0.1-0.3,0.2-0.4,0.5-0.4c0.7,0,1.4,0,2.1,0c0.3,0,0.4,0.1,0.5,0.3
		c1.3,4,2.7,7.9,4.1,11.9c0.4,1.2,0.8,2.3,1.2,3.5C57.3,16.2,57.4,16.3,57.4,16.5z M52.5,9.5c-0.7-2.1-1.4-4.2-2.1-6.3
		c-0.7,2.1-1.4,4.2-2.1,6.3C49.8,9.5,51.1,9.5,52.5,9.5z"/>
	<path class="st0" d="M26.9,2.9c-1.4-0.6-2.8-0.8-4.2-0.7c-2.5,0.2-4.4,1.9-4.9,4.4c-0.3,1.4-0.3,2.8,0.2,4.2
		c0.7,2.2,2.4,3.4,4.6,3.6c1.5,0.2,2.9,0,4.3-0.7c0.2,0.6,0.3,1.2,0.5,1.8c0,0.1-0.1,0.2-0.2,0.3c-1,0.4-2,0.6-3.1,0.7
		c-1.4,0.1-2.8,0-4.1-0.5c-2.3-0.8-3.8-2.4-4.5-4.8c-0.6-2.1-0.6-4.2,0.2-6.3c1.1-2.8,3.2-4.3,6.1-4.9C23.5-0.1,25.3,0,27,0.7
		c0.5,0.2,0.5,0.2,0.4,0.7C27.2,1.9,27.1,2.4,26.9,2.9z"/>
	<path class="st1" d="M5.1,9.5c0.7-2.1,1.4-4.2,2.1-6.3c0.7,2.1,1.4,4.2,2.1,6.3C7.8,9.5,6.5,9.5,5.1,9.5z"/>
	<path class="st1" d="M52.5,9.5c-1.4,0-2.8,0-4.2,0c0.7-2.1,1.4-4.2,2.1-6.3C51.2,5.3,51.8,7.4,52.5,9.5z"/>
</g>
</svg>
