<?xml version="1.0" encoding="utf-8"?>
<!-- Generator: Adobe Illustrator 24.0.2, SVG Export Plug-In . SVG Version: 6.00 Build 0)  -->
<svg version="1.1" id="Layer_1" xmlns="http://www.w3.org/2000/svg" xmlns:xlink="http://www.w3.org/1999/xlink" x="0px" y="0px"
	 viewBox="0 0 58 22.1" style="enable-background:new 0 0 58 22.1;" xml:space="preserve">
<style type="text/css">
	.st0{fill:#404040;}
	.st1{fill:#FFFFFF;}
</style>
<g>
	<path class="st0" d="M29.6,0.3c0.8,0,1.6,0,2.4,0c0,2.2,0,4.3,0,6.5c2.4,0,4.8,0,7.3,0c0-2.2,0-4.3,0-6.5c0.8,0,1.6,0,2.4,0
		c0,5.4,0,10.7,0,16.1c-0.8,0-1.6,0-2.4,0c0-2.5,0-4.9,0-7.3c-2.5,0-4.8,0-7.3,0c0,2.4,0,4.9,0,7.3c-0.8,0-1.6,0-2.4,0
		C29.6,11.1,29.6,5.7,29.6,0.3z"/>
	<path class="st0" d="M14.1,16.5c-0.8,0-1.6,0-2.4,0c-0.1,0-0.2-0.2-0.3-0.3c-0.5-1.4-1-2.8-1.4-4.2c-0.1-0.3-0.2-0.4-0.5-0.4
		c-1.5,0-3.1,0-4.6,0c-0.3,0-0.4,0.1-0.5,0.3c-0.5,1.4-0.9,2.8-1.4,4.2c-0.1,0.3-0.2,0.4-0.5,0.4c-0.7,0-1.4,0-2.1,0
		c0.1-0.4,0.3-0.8,0.4-1.2C2.4,10.5,4,5.6,5.7,0.8C5.8,0.4,6,0.3,6.4,0.3c0.6,0,1.3,0,1.9,0c0.3,0,0.4,0.1,0.5,0.3
		c1.4,4.2,2.9,8.4,4.3,12.7C13.4,14.4,13.7,15.4,14.1,16.5z M5.1,9.5c1.4,0,2.8,0,4.1,0c-0.7-2.1-1.4-4.2-2-6.3
		C6.5,5.3,5.8,7.4,5.1,9.5z"/>
	<path class="st0" d="M57.4,16.5c-0.8,0-1.6,0-2.4,0c-0.1,0-0.2-0.2-0.3-0.3c-0.5-1.4-1-2.8-1.4-4.2c-0.1-0.3-0.2-0.4-0.6-0.4
		c-1.5,0-3,0-4.5,0c-0.3,0-0.4,0.1-0.5,0.4c-0.5,1.4-0.9,2.8-1.4,4.2c-0.1,0.3-0.2,0.4-0.5,0.4c-0.7,0-1.4,0-2.1,0
		c0.2-0.6,0.3-1,0.5-1.5c1.6-4.8,3.2-9.5,4.9-14.3c0.1-0.3,0.2-0.4,0.5-0.4c0.7,0,1.4,0,2.1,0c0.3,0,0.4,0.1,0.5,0.3
		c1.3,4,2.7,7.9,4.1,11.9c0.4,1.2,0.8,2.3,1.2,3.5C57.3,16.2,57.4,16.3,57.4,16.5z M52.5,9.5c-0.7-2.1-1.4-4.2-2.1-6.3
		c-0.7,2.1-1.4,4.2-2.1,6.3C49.8,9.5,51.1,9.5,52.5,9.5z"/>
	<path class="st0" d="M26.9,2.9c-1.4-0.6-2.8-0.8-4.2-0.7c-2.5,0.2-4.4,1.9-4.9,4.4C17.5,8,17.5,9.4,18,10.8
		c0.7,2.2,2.4,3.4,4.6,3.6c1.5,0.2,2.9,0,4.3-0.7c0.2,0.6,0.3,1.2,0.5,1.8c0,0.1-0.1,0.2-0.2,0.3c-1,0.4-2,0.6-3.1,0.7
		c-1.4,0.1-2.8,0-4.1-0.5c-2.3-0.8-3.8-2.4-4.5-4.8c-0.6-2.1-0.6-4.2,0.2-6.3c1.1-2.8,3.2-4.3,6.1-4.9c1.7-0.1,3.5,0,5.2,0.7
		c0.5,0.2,0.5,0.2,0.4,0.7C27.2,1.9,27.1,2.4,26.9,2.9z"/>
	<path class="st1" d="M5.1,9.5c0.7-2.1,1.4-4.2,2.1-6.3c0.7,2.1,1.4,4.2,2.1,6.3C7.8,9.5,6.5,9.5,5.1,9.5z"/>
	<path class="st1" d="M52.5,9.5c-1.4,0-2.8,0-4.2,0c0.7-2.1,1.4-4.2,2.1-6.3C51.2,5.3,51.8,7.4,52.5,9.5z"/>
</g>
<g>
	<path class="st0" d="M0.7,21l-0.3,0.8H0.1L1,19.1h0.4l0.9,2.7H2L1.7,21H0.7z M1.6,20.7l-0.3-0.8c-0.1-0.2-0.1-0.3-0.1-0.5h0
		c0,0.2-0.1,0.3-0.1,0.5l-0.3,0.8H1.6z"/>
	<path class="st0" d="M5.1,21.7c-0.1,0.1-0.4,0.1-0.7,0.1c-0.8,0-1.3-0.5-1.3-1.4c0-0.8,0.6-1.4,1.4-1.4c0.3,0,0.5,0.1,0.6,0.1
		L5,19.5c-0.1-0.1-0.3-0.1-0.5-0.1c-0.6,0-1.1,0.4-1.1,1.1c0,0.7,0.4,1.1,1,1.1c0.2,0,0.4,0,0.6-0.1L5.1,21.7z"/>
	<path class="st0" d="M7.7,19.1v1.1H9v-1.1h0.4v2.7H9v-1.3H7.7v1.3H7.4v-2.7H7.7z"/>
	<path class="st0" d="M12.2,20.8c0,0.7-0.5,1-1,1c-0.5,0-0.9-0.4-0.9-1c0-0.6,0.4-1,1-1C11.8,19.8,12.2,20.2,12.2,20.8z M10.7,20.8
		c0,0.4,0.2,0.7,0.6,0.7c0.3,0,0.6-0.3,0.6-0.8c0-0.3-0.2-0.7-0.6-0.7C10.9,20.1,10.7,20.5,10.7,20.8z M10.7,19.3
		c0-0.1,0.1-0.2,0.2-0.2s0.2,0.1,0.2,0.2c0,0.1-0.1,0.2-0.2,0.2C10.8,19.5,10.7,19.4,10.7,19.3z M11.4,19.3c0-0.1,0.1-0.2,0.2-0.2
		s0.2,0.1,0.2,0.2c0,0.1-0.1,0.2-0.2,0.2C11.5,19.5,11.4,19.4,11.4,19.3z"/>
	<path class="st0" d="M14.5,21.7c-0.1,0-0.3,0.1-0.6,0.1c-0.6,0-1-0.4-1-1c0-0.6,0.4-1,1-1c0.2,0,0.4,0.1,0.5,0.1l-0.1,0.3
		c-0.1,0-0.2-0.1-0.4-0.1c-0.4,0-0.7,0.3-0.7,0.7c0,0.4,0.3,0.7,0.7,0.7c0.2,0,0.3-0.1,0.4-0.1L14.5,21.7z"/>
	<path class="st0" d="M15.6,20.9c0,0.5,0.3,0.7,0.7,0.7c0.3,0,0.4,0,0.5-0.1l0.1,0.3c-0.1,0.1-0.3,0.1-0.6,0.1c-0.6,0-1-0.4-1-1
		s0.3-1,0.9-1c0.6,0,0.8,0.6,0.8,0.9c0,0.1,0,0.1,0,0.2H15.6z M16.6,20.7c0-0.2-0.1-0.6-0.5-0.6c-0.4,0-0.5,0.3-0.5,0.6H16.6z"/>
	<path class="st0" d="M18.3,20.8L18.3,20.8c0.1-0.1,0.1-0.2,0.2-0.2l0.6-0.7h0.4l-0.7,0.8l0.9,1.1h-0.4l-0.7-0.9l-0.2,0.2v0.7h-0.3
		V19h0.3V20.8z"/>
	<path class="st0" d="M23.4,21l-0.3,0.8h-0.4l0.9-2.7h0.4l0.9,2.7h-0.4L24.4,21H23.4z M24.3,20.7l-0.3-0.8c-0.1-0.2-0.1-0.3-0.1-0.5
		h0c0,0.2-0.1,0.3-0.1,0.5l-0.3,0.8H24.3z"/>
	<path class="st0" d="M25.9,20.5c0-0.2,0-0.4,0-0.6h0.3l0,0.4h0c0.1-0.3,0.3-0.4,0.5-0.4c0,0,0.1,0,0.1,0v0.3c0,0-0.1,0-0.1,0
		c-0.2,0-0.4,0.2-0.5,0.5c0,0,0,0.1,0,0.2v1h-0.3V20.5z"/>
	<path class="st0" d="M29.1,21.7c-0.1,0-0.3,0.1-0.6,0.1c-0.6,0-1-0.4-1-1c0-0.6,0.4-1,1-1c0.2,0,0.4,0.1,0.5,0.1L29,20.2
		c-0.1,0-0.2-0.1-0.4-0.1c-0.4,0-0.7,0.3-0.7,0.7c0,0.4,0.3,0.7,0.7,0.7c0.2,0,0.3-0.1,0.4-0.1L29.1,21.7z"/>
	<path class="st0" d="M30,19h0.4v1.2h0c0.1-0.1,0.1-0.2,0.3-0.2c0.1-0.1,0.2-0.1,0.4-0.1c0.3,0,0.7,0.2,0.7,0.8v1.2h-0.4v-1.1
		c0-0.3-0.1-0.6-0.4-0.6c-0.2,0-0.4,0.2-0.5,0.4c0,0,0,0.1,0,0.2v1.2H30V19z"/>
	<path class="st0" d="M33.1,19.3c0,0.1-0.1,0.2-0.2,0.2c-0.1,0-0.2-0.1-0.2-0.2c0-0.1,0.1-0.2,0.2-0.2C33,19.1,33.1,19.2,33.1,19.3z
		 M32.7,21.8v-1.9h0.4v1.9H32.7z"/>
	<path class="st0" d="M34.6,19.3v0.6h0.5v0.3h-0.5v1c0,0.2,0.1,0.4,0.3,0.4c0.1,0,0.2,0,0.2,0l0,0.3c-0.1,0-0.2,0-0.3,0
		c-0.2,0-0.3-0.1-0.4-0.1c-0.1-0.1-0.1-0.3-0.1-0.5v-1.1h-0.3v-0.3h0.3v-0.5L34.6,19.3z"/>
	<path class="st0" d="M36.1,20.9c0,0.5,0.3,0.7,0.7,0.7c0.3,0,0.4,0,0.5-0.1l0.1,0.3c-0.1,0.1-0.3,0.1-0.6,0.1c-0.6,0-1-0.4-1-1
		s0.3-1,0.9-1c0.6,0,0.8,0.6,0.8,0.9c0,0.1,0,0.1,0,0.2H36.1z M37.2,20.7c0-0.2-0.1-0.6-0.5-0.6c-0.4,0-0.5,0.3-0.5,0.6H37.2z"/>
	<path class="st0" d="M39.8,21.7c-0.1,0-0.3,0.1-0.6,0.1c-0.6,0-1-0.4-1-1c0-0.6,0.4-1,1-1c0.2,0,0.4,0.1,0.5,0.1l-0.1,0.3
		c-0.1,0-0.2-0.1-0.4-0.1c-0.4,0-0.7,0.3-0.7,0.7c0,0.4,0.3,0.7,0.7,0.7c0.2,0,0.3-0.1,0.4-0.1L39.8,21.7z"/>
	<path class="st0" d="M41.2,19.3v0.6h0.5v0.3h-0.5v1c0,0.2,0.1,0.4,0.3,0.4c0.1,0,0.2,0,0.2,0l0,0.3c-0.1,0-0.2,0-0.3,0
		c-0.2,0-0.3-0.1-0.4-0.1c-0.1-0.1-0.1-0.3-0.1-0.5v-1.1h-0.3v-0.3h0.3v-0.5L41.2,19.3z"/>
	<path class="st0" d="M44.2,21.3c0,0.2,0,0.4,0,0.5h-0.3l0-0.3h0c-0.1,0.2-0.3,0.4-0.6,0.4c-0.3,0-0.7-0.2-0.7-0.8v-1.1H43v1.1
		c0,0.4,0.1,0.6,0.4,0.6c0.2,0,0.4-0.2,0.5-0.3c0-0.1,0-0.1,0-0.2v-1.2h0.4V21.3z"/>
	<path class="st0" d="M45.3,20.5c0-0.2,0-0.4,0-0.6h0.3l0,0.4h0c0.1-0.3,0.3-0.4,0.5-0.4c0,0,0.1,0,0.1,0v0.3c0,0-0.1,0-0.1,0
		c-0.2,0-0.4,0.2-0.5,0.5c0,0,0,0.1,0,0.2v1h-0.3V20.5z"/>
	<path class="st0" d="M47.3,20.9c0,0.5,0.3,0.7,0.7,0.7c0.3,0,0.4,0,0.5-0.1l0.1,0.3c-0.1,0.1-0.3,0.1-0.6,0.1c-0.6,0-1-0.4-1-1
		s0.3-1,0.9-1c0.6,0,0.8,0.6,0.8,0.9c0,0.1,0,0.1,0,0.2H47.3z M48.3,20.7c0-0.2-0.1-0.6-0.5-0.6c-0.4,0-0.5,0.3-0.5,0.6H48.3z"/>
	<path class="st0" d="M51,19.1h0.3v2.4h1.2v0.3H51V19.1z"/>
	<path class="st0" d="M53.3,19.1h0.3v2.4h1.2v0.3h-1.5V19.1z"/>
	<path class="st0" d="M57.5,21.7c-0.1,0.1-0.4,0.1-0.7,0.1c-0.8,0-1.3-0.5-1.3-1.4c0-0.8,0.6-1.4,1.4-1.4c0.3,0,0.5,0.1,0.6,0.1
		l-0.1,0.3c-0.1-0.1-0.3-0.1-0.5-0.1c-0.6,0-1.1,0.4-1.1,1.1c0,0.7,0.4,1.1,1,1.1c0.2,0,0.4,0,0.6-0.1L57.5,21.7z"/>
</g>
</svg>
