<?xml version="1.0" encoding="utf-8"?>
<!-- Generator: Adobe Illustrator 24.0.2, SVG Export Plug-In . SVG Version: 6.00 Build 0)  -->
<svg version="1.1" id="Layer_1" xmlns="http://www.w3.org/2000/svg" xmlns:xlink="http://www.w3.org/1999/xlink" x="0px" y="0px"
	 viewBox="0 0 94.9 15.3" style="enable-background:new 0 0 94.9 15.3;" xml:space="preserve">
<style type="text/css">
	.st0{fill:#404040;}
</style>
<path class="st0" d="M-0.1,7.5c0-0.4,0.1-0.8,0.1-1.1c0.5-3.2,3.1-5.8,6.3-6.3c2.4-0.4,4.5,0.3,6.4,1.8c0.7,0.6,1.1,1.3,1.5,2
	c0,0,0,0,0,0.1c-0.5,0-1,0-1.5,0c-0.1,0-0.1-0.1-0.2-0.1c-0.6-0.8-1.3-1.4-2.1-1.9C8.2,0.9,5.7,1.1,3.8,2.7C2.5,3.7,1.7,5.1,1.4,6.8
	c-0.3,1.8,0.3,3.4,1.4,4.8c1,1.2,2.2,2,3.7,2.2c1.8,0.3,3.5-0.2,4.9-1.4c0.4-0.4,0.8-0.8,1.1-1.2c0.1-0.1,0.2-0.1,0.3-0.1
	c0.5,0,0.9,0,1.4,0c0,0,0,0,0,0.1c-1.2,2-2.8,3.4-5.1,3.9c-0.3,0.1-0.7,0.1-1,0.1c-0.1,0-0.1,0-0.2,0c-0.2,0-0.4,0-0.6,0
	c-0.1,0-0.2,0-0.2,0c-0.4-0.1-0.8-0.1-1.2-0.2c-3.2-0.9-5.2-3-5.8-6.2c-0.1-0.4-0.1-0.7-0.1-1.1C-0.1,7.7-0.1,7.6-0.1,7.5z"/>
<path class="st0" d="M94.9,14.7c-0.4,0-0.9,0-1.3,0c0-0.1,0-0.2,0-0.2c0-1.9,0-3.7,0-5.6c0-0.9-0.2-1.7-0.6-2.4
	c-0.7-1.1-2-1.7-3.2-1.4c-1.3,0.3-2.4,1.3-2.6,2.6c0,0.2,0,0.5,0,0.7c0,2,0,4.1,0,6.1c0,0.2-0.1,0.3-0.2,0.2c-0.4,0-0.8,0-1.2,0
	c0-3.6,0-7.1,0-10.6c0.4,0,0.9,0,1.3,0c0,0.4,0,0.9,0,1.4c0.1-0.1,0.2-0.2,0.3-0.3c0.6-0.6,1.3-1.1,2.2-1.3c1.8-0.3,4.1,0.4,5,2.9
	c0.2,0.5,0.3,1.1,0.3,1.7c0,0.1,0,0.2,0,0.3C94.9,10.7,94.9,12.7,94.9,14.7z"/>
<path class="st0" d="M71.7,9.9c0.2,1.6,1,2.8,2.5,3.5c1.9,0.9,4.1,0.2,5.2-1.7c0.2-0.4,0.5-0.5,0.9-0.5c0.3,0,0.5,0,0.8,0
	c0,0,0,0,0.1,0c-0.4,0.9-0.8,1.7-1.6,2.4c-1.2,1-2.5,1.4-4,1.3c-3.1-0.2-5.7-2.9-5.3-6.2c0.4-3,3.1-5.2,6-4.9c3,0.2,5.4,2.7,5.2,6.1
	C78.3,9.9,75,9.9,71.7,9.9z M71.7,8.7c2.8,0,5.6,0,8.3,0c-0.2-1.6-1.4-3.5-3.9-3.6C74.1,4.9,71.9,6.7,71.7,8.7z"/>
<path class="st0" d="M67.3,14.7c-0.6,0-1.1,0-1.7,0c-0.1,0-0.2-0.1-0.2-0.2c-1.2-1.7-2.5-3.3-3.7-5c-0.3-0.4-0.6-0.7-0.9-1.1
	c-0.1,0.1-0.1,0.1-0.1,0.2c-0.5,0.6-1,1.3-1.5,1.9C59,10.7,59,10.9,59,11.1c0,1.1,0,2.3,0,3.4c0,0.1,0,0.1,0,0.2c-0.5,0-0.9,0-1.4,0
	c0-4.8,0-9.6,0-14.4c0.5,0,0.9,0,1.4,0c0,2.7,0,5.5,0,8.2c0,0,0,0,0,0c0.1-0.1,0.1-0.1,0.2-0.2c2.1-2.6,4.1-5.2,6.2-7.9
	c0.1-0.1,0.2-0.2,0.4-0.2c0.5,0,1,0,1.6,0c-0.1,0.1-0.1,0.1-0.1,0.2c-1.8,2.2-3.5,4.4-5.3,6.7c-0.1,0.1-0.1,0.2,0,0.3
	c1.8,2.3,3.5,4.7,5.3,7C67.2,14.6,67.2,14.6,67.3,14.7z"/>
<path class="st0" d="M24.4,5.9c0-0.1,0-0.2,0-0.3c0-0.5,0-0.9,0-1.4c0-0.2,0-0.2,0.2-0.2c0.4,0,0.7,0,1.1,0c0,3.6,0,7.1,0,10.7
	c-0.4,0-0.8,0-1.2,0c0,0-0.1-0.1-0.1-0.2c0-0.5,0-0.9,0-1.4c0-0.1,0-0.1,0-0.3c-0.1,0.1-0.1,0.2-0.2,0.2c-0.7,0.9-1.6,1.5-2.8,1.8
	c-2.9,0.7-6-1.2-6.7-4.1c-0.8-3.3,1.4-6.4,4.7-6.8c1.9-0.3,3.5,0.4,4.7,1.9C24.3,5.8,24.3,5.9,24.4,5.9z M16,9.4
	c0,0.8,0.2,1.5,0.6,2.2c1,1.8,3.1,2.6,4.9,2c2.8-1,3.8-4.4,2-6.8c-1-1.3-2.3-1.9-4-1.7C17.4,5.4,16,7.3,16,9.4z"/>
<path class="st0" d="M43,4.1c0.4,0,0.8,0,1.3,0c0,0.4,0,0.9,0,1.4c0.1-0.1,0.2-0.2,0.2-0.2c0.6-0.6,1.2-1,1.9-1.3
	c2.1-0.6,4.3,0.5,5.2,2.5c0.3,0.7,0.4,1.4,0.5,2.1c0,2,0,4,0,6c0,0,0,0.1,0,0.1c-0.4,0-0.8,0-1.3,0c0-0.1,0-0.2,0-0.3
	c0-1.8,0-3.7,0-5.5c0-0.7-0.1-1.4-0.4-2.1c-0.6-1.3-1.9-2-3.3-1.8c-1.4,0.2-2.5,1.4-2.6,2.8c0,0.2,0,0.3,0,0.5c0,2,0,4.1,0,6.1
	c0,0.1,0,0.2,0,0.3c-0.5,0-0.9,0-1.4,0C43,11.2,43,7.6,43,4.1z"/>
<path class="st0" d="M39.3,4.1c-0.3,0.6-0.5,1.2-0.8,1.9c-1.2,2.9-2.3,5.7-3.5,8.6c-0.1,0.2-0.2,0.2-0.4,0.2c-0.3,0-0.7,0-1,0
	c-0.1,0-0.2,0-0.2-0.1c-1.4-3.5-2.8-7-4.3-10.4c0,0,0,0,0-0.1c0.3,0,0.6,0,0.9,0c0.5,0,0.5,0,0.7,0.5c1.1,2.8,2.2,5.5,3.3,8.3
	c0,0.1,0.1,0.1,0.1,0.2c0-0.1,0.1-0.2,0.1-0.2c1.2-2.8,2.3-5.7,3.5-8.5c0.1-0.2,0.2-0.2,0.4-0.2C38.6,4.1,38.9,4.1,39.3,4.1z"/>
<path class="st0" d="M28.8,14.7c-0.5,0-0.9,0-1.4,0c0-4.8,0-9.6,0-14.4c0.5,0,0.9,0,1.4,0C28.8,5.1,28.8,9.9,28.8,14.7z"/>
<path class="st0" d="M69.2,14.7c-0.4,0-0.9,0-1.3,0c0-4.8,0-9.6,0-14.4c0.4,0,0.9,0,1.3,0C69.2,5.1,69.2,9.9,69.2,14.7z"/>
<path class="st0" d="M41.3,4.1c0,3.6,0,7.1,0,10.6c-0.5,0-0.9,0-1.4,0c0-3.5,0-7.1,0-10.6C40.4,4.1,40.9,4.1,41.3,4.1z"/>
<path class="st0" d="M82.6,14.7c0-3.6,0-7.1,0-10.6c0.5,0,0.9,0,1.4,0c0,3.5,0,7.1,0,10.6C83.5,14.7,83.1,14.7,82.6,14.7z"/>
<path class="st0" d="M82.6,0.3c0.5,0,0.9,0,1.4,0c0,0.8,0,1.6,0,2.4c-0.4,0-0.9,0-1.4,0C82.6,1.9,82.6,1.1,82.6,0.3z"/>
<path class="st0" d="M41.3,0.3c0,0.8,0,1.6,0,2.3c-0.5,0-0.9,0-1.4,0c0-0.8,0-1.6,0-2.3C40.4,0.3,40.9,0.3,41.3,0.3z"/>
</svg>
