<?xml version="1.0" encoding="utf-8"?>
<!-- Generator: Adobe Illustrator 24.0.2, SVG Export Plug-In . SVG Version: 6.00 Build 0)  -->
<svg version="1.1" id="Layer_1" xmlns="http://www.w3.org/2000/svg" xmlns:xlink="http://www.w3.org/1999/xlink" x="0px" y="0px"
	 viewBox="0 0 300 17.9" style="enable-background:new 0 0 300 17.9;" xml:space="preserve">
<style type="text/css">
	.st0{fill:#414141;}
</style>
<g>
	<path class="st0" d="M285.2,18.2c-1.1-0.2-2.3-0.4-3.4-0.6c-1.8-0.4-3.5-1.2-4.9-2.4c-3.9-3.3-3.8-9.2,0.2-12.3
		c1.9-1.5,4.1-2.3,6.5-2.6c3.7-0.5,7.4-0.3,10.9,1.2c2.5,1.1,4.4,2.7,5.2,5.4c0.1,0.4,0.2,0.8,0.3,1.2c0,0.7,0,1.4,0,2.1
		c0,0.1-0.1,0.2-0.1,0.3c-0.2,1.5-0.9,2.8-1.9,3.9c-1.6,1.7-3.6,2.7-5.8,3.2c-1.1,0.3-2.3,0.4-3.4,0.6
		C287.6,18.2,286.4,18.2,285.2,18.2z M287,4.2c-1.4,0-2.8,0.2-4.1,0.9c-1.6,0.8-2.6,2.1-2.7,4c0,1.9,1,3.3,2.7,4
		c2.8,1.4,5.7,1.3,8.5-0.1c1.6-0.8,2.5-2.1,2.5-3.9c0-1.8-1-3.1-2.5-3.9C290,4.4,288.5,4.2,287,4.2z"/>
	<path class="st0" d="M0,8c0.1-0.4,0.2-0.8,0.3-1.3c0.6-1.9,1.8-3.2,3.4-4.3c2-1.3,4.3-2,6.7-2.3c4.1-0.6,8.2-0.4,12.3,0.8
		c0.7,0.2,1.3,0.5,2,0.8c-0.7,1.3-1.4,2.6-2.1,3.8c-1.8-0.4-3.5-0.8-5.2-1.1c-2.4-0.4-4.8-0.3-7.2,0.4c-1,0.3-2,0.8-2.8,1.6
		c-1.5,1.5-1.5,3.6,0,5.1c1.4,1.4,3.1,1.8,5,2.1c3.3,0.5,6.4-0.2,9.5-1.1c0.2-0.1,0.4-0.1,0.7-0.2c0.7,1.2,1.4,2.4,2.1,3.8
		c-1,0.4-1.9,0.8-2.9,1c-5.3,1.4-10.6,1.4-15.9-0.5c-1.8-0.7-3.4-1.7-4.6-3.4c-0.7-1-1-2.1-1.3-3.3C0,9.3,0,8.6,0,8z"/>
	<path class="st0" d="M144.4,4.8c-2.4,4.1-4.8,8.3-7.2,12.5c-2.4-4.3-4.9-8.6-7.3-12.8c0,0-0.1,0-0.1,0c0,4.4,0,8.9,0,13.4
		c-1.6,0-3.2,0-4.8,0c0-5.9,0-11.9,0-17.9c0.3,0,0.5,0,0.7,0c2.2,0,4.3,0,6.5,0c0.5,0,0.7,0.2,1,0.6c1.4,2.4,2.8,4.8,4.2,7.3
		c0.1-0.1,0.2-0.3,0.3-0.5c1.4-2.3,2.8-4.6,4.1-6.9c0.2-0.4,0.5-0.5,0.9-0.5c2.4,0,4.8,0,7.1,0c0.2,0,0.4,0,0.6,0c0,6,0,11.9,0,17.9
		c-2,0-3.9,0-5.9,0c0-4.4,0-8.7,0-13.1C144.5,4.8,144.4,4.8,144.4,4.8z"/>
	<path class="st0" d="M103.7,8.6c0.5,0.2,1,0.3,1.5,0.5c2.5,1,3.3,3.7,1.8,5.9c-0.7,1-1.6,1.6-2.7,2c-1.6,0.6-3.2,0.8-4.9,0.8
		c-4.5,0-9.1,0-13.6,0c-0.1,0-0.2,0-0.4,0c0-5.9,0-11.9,0-17.8C85.5,0,85.7,0,85.8,0c4.5,0,9,0,13.5,0.1c1.7,0,3.4,0.4,5,1.1
		c0.6,0.3,1.3,0.7,1.8,1.2c1.6,1.6,1.3,4.1-0.7,5.3C104.9,8.1,104.3,8.3,103.7,8.6z M92.2,10.2c0,1.3,0,2.7,0,4.1c2.3,0,4.6,0,6.8,0
		c0.5,0,1.1-0.3,1.6-0.5c0.6-0.3,0.9-0.8,0.8-1.5c0-1.1-0.7-2-2-2C97,10.1,94.6,10.2,92.2,10.2z M92.2,7.3c2.2,0,4.2,0,6.3,0
		c0.6,0,1.2-0.2,1.8-0.5c0.6-0.3,0.9-0.9,0.8-1.5c-0.1-0.7-0.4-1.2-1.1-1.4c-0.5-0.1-1-0.2-1.5-0.3c-1.6,0-3.2,0-4.8,0
		c-0.5,0-1,0-1.6,0C92.2,4.8,92.2,6,92.2,7.3z"/>
	<path class="st0" d="M206.2,0c1.9,0,3.7,0,5.5,0c0,5.9,0,11.9,0,17.9c-0.8,0-1.7-0.1-2.5,0c-1.6,0.2-2.7-0.4-3.8-1.4
		c-3.5-3.3-7.2-6.5-10.8-9.7c-0.1-0.1-0.3-0.3-0.5-0.5c0,3.9,0,7.7,0,11.6c-1.8,0-3.6,0-5.5,0c0-5.9,0-11.8,0-17.8
		c0.2,0,0.4,0,0.6,0c1.6,0,3.3,0,4.9,0c0.3,0,0.7,0.1,0.9,0.3c3.4,2.9,6.8,5.8,10.1,8.8c0.3,0.3,0.6,0.5,1,0.9
		C206.2,6.6,206.2,3.4,206.2,0z"/>
	<path class="st0" d="M169.4,17.9c-2.6-0.1-5.1-0.4-7.4-1.5c-2.4-1.1-4.3-2.7-5.1-5.4c-1-3.2,0.1-6.5,2.8-8.6c2-1.5,4.3-2.3,6.8-2.6
		c3.4-0.4,6.8-0.2,10,1.1c1,0.4,2,1,2.9,1.7c4.2,3.3,4.1,9.3-0.1,12.5c-2.1,1.6-4.4,2.3-6.9,2.6C171.4,17.8,170.4,17.9,169.4,17.9z
		 M169.5,13.7c1.6,0,3.2-0.3,4.6-1.1c3.1-1.8,3.2-5.9,0-7.6c-2.9-1.6-5.9-1.6-8.9-0.1c-1.5,0.8-2.4,2.1-2.4,3.9
		c0,1.8,0.9,3.1,2.4,3.9C166.5,13.5,167.9,13.7,169.5,13.7z"/>
	<path class="st0" d="M55.5,0c2.1,0,4.1,0,6.1,0c0,0.3,0,0.5,0,0.7c0,2.9,0.1,5.8,0,8.6c-0.1,3.1,1.4,4,3.7,4.2
		c1.4,0.1,2.8,0,4.2-0.2c1.7-0.3,2.6-1.5,2.6-3.3c0-3.1,0-6.3,0-9.4c0-0.2,0-0.4,0-0.7c2.1,0,4.1,0,6.1,0c0,0.2,0,0.5,0,0.7
		c0,2.9-0.1,5.9,0,8.8c0.1,5-2.7,7.1-6.2,8c-3.7,0.9-7.5,0.9-11.2-0.3c-3.6-1.1-5.2-3.5-5.3-7.2c0-3.1,0-6.3,0-9.4
		C55.5,0.4,55.5,0.3,55.5,0z"/>
	<path class="st0" d="M267.7,12.3c0.7,1.2,1.4,2.4,2.1,3.7c-0.3,0.2-0.6,0.4-0.9,0.5c-3.4,1.4-6.9,1.7-10.6,1.6
		c-2.5-0.1-4.9-0.5-7.2-1.4c-1-0.4-2-1-2.9-1.6c-4.1-3.1-4.1-9,0-12.1c1.9-1.5,4.2-2.2,6.6-2.6c4.5-0.8,9-0.6,13.4,0.8
		c0.5,0.2,1,0.4,1.6,0.7c-0.7,1.3-1.4,2.6-2.1,3.8c-1.3-0.3-2.5-0.7-3.8-0.9c-2.9-0.6-5.7-0.8-8.5,0.2c-0.9,0.3-1.7,0.7-2.5,1.3
		c-2,1.5-2,4.1,0,5.7c1.4,1.1,3,1.5,4.6,1.8c3.4,0.5,6.6-0.2,9.8-1.2C267.4,12.4,267.5,12.4,267.7,12.3z"/>
	<path class="st0" d="M242.2,17.9c-1,0-1.9,0-2.9,0c-1,0-2,0-3.1,0c-0.3,0-0.5-0.1-0.7-0.4c-0.4-1-0.9-2-1.3-3
		c-0.1-0.3-0.3-0.5-0.7-0.5c-3,0-5.9,0-8.9,0c-0.4,0-0.5,0.1-0.6,0.4c-0.4,1-0.9,2-1.4,2.9c-0.1,0.2-0.3,0.4-0.5,0.4
		c-1.7,0-3.4,0-5.1,0c-0.1,0-0.1,0-0.2-0.1c0.1-0.2,0.1-0.4,0.2-0.5c2.6-5.6,5.2-11.2,7.8-16.8c0.2-0.4,0.4-0.6,0.8-0.5
		c2.3,0,4.6,0,6.9,0c0.3,0,0.6,0.1,0.7,0.4c2.9,5.7,5.7,11.4,8.6,17.1C242.1,17.6,242.2,17.7,242.2,17.9z M228.9,3.5
		c-1.1,2.5-2.2,5-3.3,7.5c2.4,0,4.6,0,7,0C231.4,8.5,230.2,6.1,228.9,3.5z"/>
	<path class="st0" d="M31.1,17.9c0-6,0-11.9,0-17.8c2.1,0,4.1,0,6.2,0c0,4.6,0,9.1,0,13.7c4.7,0,9.3,0,13.9,0c0,1.4,0,2.8,0,4.1
		C44.5,17.9,37.8,17.9,31.1,17.9z"/>
</g>
</svg>
