<?xml version="1.0" encoding="utf-8"?>
<!-- Generator: Adobe Illustrator 24.0.2, SVG Export Plug-In . SVG Version: 6.00 Build 0)  -->
<svg version="1.1" id="Layer_1" xmlns="http://www.w3.org/2000/svg" xmlns:xlink="http://www.w3.org/1999/xlink" x="0px" y="0px"
	 viewBox="0 0 221.7 295.7" style="enable-background:new 0 0 221.7 295.7;" xml:space="preserve">
<style type="text/css">
	.st0{fill:#404040;}
</style>
<path class="st0" d="M104.7,179c-22-9.7-36.9-25.7-42.9-49c-5.9-23.3-0.8-44.5,13.9-63.3c-2.1-2-4.2-3.7-6-5.8
	c-3.7-4.1-3.7-9-2.9-14.1c1.8-11.6,8.2-20.6,16.3-28.5C89,12.5,96,9.2,104.3,8.4c0.9-0.1,1.8-0.7,2.5-1.3c2.8-2.5,5.6-4.8,9.3-5.9
	c5.5-1.7,10.2,0,13.2,4.9c2.7,4.3,3.2,9.2,3.2,14.1c0,1.2-0.1,2.4-0.2,3.7c5.4,1.8,10.1,4.5,14.4,8.2c3.2,2.8,5.6,6.2,7.1,10.2
	c0.5,1.3,1.2,2.1,2.6,2.5c10.3,3.7,19.2,9.5,26.8,17.3c1,1,1.7,1.7,3.4,1.4c3.3-0.6,4.9,0.9,5.6,4.8c0.3,1.4,0.9,1.7,2.1,2.1
	c2.8,0.9,5.4,2.1,8.5,3.4c-2.4-3.7-4.7-7.4-7.1-11c0.1-0.1,0.1-0.1,0.2-0.2c0.9,1.2,1.9,2.3,2.8,3.5C210.2,81.6,217.2,99,220,118
	c6.6,44.7-5.9,83.7-36.6,116.7c-17,18.3-37.8,31-60.8,40.4c-23.5,9.7-48.1,15.4-73.3,18.7c-5.9,0.8-11.9,1.1-17.8,1.8
	c-2,0.2-2.5-0.3-2.4-2.2c0.4-12.5-0.2-25-2.5-37.4C22.5,234.1,13.9,214.1,1,196c-0.2-0.2-0.4-0.4-0.5-0.7c-0.2-0.5-0.3-1.1-0.5-1.7
	c0.5-0.1,1.1-0.3,1.6-0.2c4.6,0.5,9.2,1.2,13.8,1.7c17.9,2,35.8,2.8,53.8,2.3c0.7,0,1.6-0.2,2.1-0.7c6-5.7,13.3-9.2,20.7-12.5
	C96.1,182.4,100.4,180.8,104.7,179z M130.9,26.8c-4-1.2-8-0.9-11.7,0.9C105.3,34.2,96,45,91.1,59.4c-0.9,2.7-1,5.9-0.7,8.8
	c0.6,6.7,4.7,11.5,9.6,15.5c7,5.7,15,6.9,23.7,5.6c1.2-0.2,2.5-0.2,3.8-0.2c0,0.3,0.1,0.7,0.1,1c-1.5,0.2-2.9,0.5-4.4,0.7
	c-2.6,0.2-5.2,0.5-7.4,2.3c-4.2,3.5-7.2,7.8-8.6,12.9c-1.6,6.2-2.7,12.5-3.9,18.7c0,0.1,0.1,0.2,0.2,0.4c0.5-0.1,1-0.2,1.6-0.2
	c-0.9,1.9-2.2,3.3-3.4,4.9c-1.4,1.8-3.1,3.4-4.2,5.4c-1.4,2.5-0.2,4.9,2.6,5.2c2.1,0.2,4.3,0.2,6.3-0.4c3-0.8,6.3-1.6,5.9-5.9
	c0-0.1,0.3-0.2,0.6-0.5c0.9,2.8,2.4,5.1,5.3,6.1c0.7,0.2,1.8,0.3,2.4-0.1c0.4-0.2,0.3-1.4,0.2-2.1c-0.8-4.2-0.1-8.2,2.9-11.3
	c5.7-6,10.3-12.5,12.3-20.6c0-0.1,0.3-0.2,0.5-0.4c0.2,0.6,0.4,1.1,0.8,1.8c5.6-8.2,10.5-16.4,10.3-27c-2.5,0.4-4.6,0.5-6.6,1
	c-2.4,0.5-4.6,1.4-7,1.9c-4.9,1-8.7-3-7.6-7.9c0.5-2.4,2.1-3.9,3.9-5.4c3.5-2.8,7.2-5.5,8.4-10.2c0.7-2.5,2.4-3.7,4.8-3.7
	c2,0,4.1,0.5,6.1,0.8c2.5,0.4,3.7-0.4,3.4-2.6c-0.6-5.4-1.9-10.7-5.1-15.2c-3.9-5.4-9-9-16.1-9c-1,0-2-0.4-3.1-0.6
	C129.4,28.4,130.1,27.7,130.9,26.8z M36.6,277c9.7-0.3,18.9-0.9,28-3.2c1.7-0.4,3.6-1.9,4.4-3.4c1.1-2.1,1.8-4.7,1.8-7.1
	c0.2-10.4,0.1-20.9,0.1-31.3c0-1.7,0.1-3.4-0.1-5.1c-0.6-6.2-4-9.5-10.1-9.9c-3.1-0.2-6.2-0.4-9.4-0.6c-6-0.3-12-0.6-18.6-0.9
	c4.2,3.6,4,8.1,4,12.5c-0.1,15.6,0,31.1,0,46.7C36.6,275.3,36.6,276,36.6,277z M111.1,210.5c-4.5,0.6-8.9,1.2-12.9,1.7
	c0.8,2.1,2,3.8,2,5.6c0.1,13.6,0,27.1,0,40.7c0,1.5-0.6,2.7-2,3.2c-1.3,0.5-2.7,1-4.1,1c-3.6,0.2-4.7-1-4.7-4.6
	c0-13.9,0-27.8,0-41.8c0-0.6-0.1-1.2-0.1-2.1c-4.5,0.4-8.8,0.9-13.6,1.3c2.6,2.7,3,5.6,3,8.7c0,11.8,0.1,23.6,0.2,35.4
	c0.1,5.2,2.7,8.6,7.9,9.6c2.8,0.5,5.7,0.7,8.5,0.5c9.3-0.9,16.2-7.2,16-17.3c-0.2-13.4,0-26.7,0-40.1
	C111.3,211.9,111.2,211.4,111.1,210.5z M133.3,183.1c1.5-1.6,3.2-2.7,3.8-4.2c2.2-5.2,4.3-10.5,5.9-15.9c1-3.3,1.1-6.9,1.6-10.4
	c-4.1,0.9-7.8,2-11.5,2.4c-2.4,0.3-2.9,1.4-3.3,3.4c-1.5,7.7-3.1,15.4-4.9,23.1c-0.7,2.8-2.1,5.4-3,8.2c-1.2,3.4-0.1,5.1,3.3,5.1
	c8.5,0,17-0.2,25.5-0.5c4.1-0.1,7.9-1.5,11.3-4c1.7-1.3,3.9-2.1,6-2.4c3-0.5,5.8-1.1,7.7-3.8c0.3-0.4,0.9-0.4,1.3-0.7
	c0.5-0.4,1.2-0.9,1.2-1.3c-0.1-0.6-0.7-1.2-1.2-1.5c-0.6-0.3-1.4-0.5-2-0.5c-7.9-0.3-15.9-0.9-23.8-0.7c-5.3,0.1-10.8,0.1-15.6,3.4
	C135,183,134.3,182.9,133.3,183.1z M114,183.2c-0.2,0.3-0.5,0.6-0.7,0.9c-1-0.5-2.2-0.7-3-1.4c-1.1-0.9-2-1.1-3.3-0.6
	c-4.6,1.7-9.4,3.3-14,5.1c-7.3,2.9-14.1,6.7-19.8,12.3c-0.6,0.6-0.8,1.5-1.2,2.3c0.9,0.3,1.7,0.8,2.6,1c1.5,0.3,3.1,0.3,4.6,0.5
	c2.4,0.4,4.7,1.1,7,1.2c3.9,0.1,7.7-0.1,11.5,1.5c1.4,0.6,3.7,0.2,5-0.6c5.2-3.4,10-7.5,13.6-12.7c1.5-2.2,2.8-4.8,3.5-7.4
	c1.5-5.9,2.6-11.9,3.9-17.8c0.9-4.1,1.9-8.1,2.8-12.1c-3.3-0.9-6.3-1.4-9.2,0.5c-0.7,0.5-1.7,0.8-2.6,0.9c-1.8,0.2-2.4,1.3-2.5,2.8
	c-0.4,5.6-1,11.2-1.3,16.7C110.9,179,110.4,181.9,114,183.2z M149.9,232.8c-3.3,1-6.4,1.9-9.5,3c-0.4,0.2-0.8,1-0.9,1.6
	c-0.2,2.3-0.2,4.5-0.5,6.8c-0.4,2.4-4.2,4.5-7.2,4.1c-2.4-0.3-2.8-0.8-2.9-4.5c-0.1-9.4-0.1-18.8,0-28.1c0-4.7,2.8-7.3,7.4-7.3
	c2.5,0,3,0.5,3.1,2.9c0.1,2.3,0,4.6,0,7.1c1.7-0.5,3.1-0.9,4.4-1.3c6.8-2.1,6.9-2.1,5.7-9.3c-0.9-5.3-3.7-7.7-9.1-7.5
	c-4.5,0.1-8.7,1.4-12.5,3.7c-5.9,3.6-9.6,8.5-9.5,15.8c0.1,8.7,0,17.5,0,26.2c0,1.5,0.2,3,0.4,4.4c0.8,4.8,3.2,6.9,8.2,6.9
	c6.2-0.1,11.6-2.2,16.4-6.1C149.5,246.6,150,240,149.9,232.8z M199.9,87.8c10,38-1.3,67.2-33.8,87.9c3.4,0.5,7.3,1.1,11.1,1.6
	c0.8,0.1,1.8-0.4,2.5-0.9c26.8-19.7,38.6-54.3,29.6-86.2c-1-3.5-2.3-6.9-3.5-10.3c-0.2,0-0.4,0-0.6,0
	C206,84.4,202.8,86.2,199.9,87.8z M88.7,55.4c2.7-4.1,4.3-7.8,3.4-12.2c-0.3-1.6-0.2-3.4,0-5.1c1-9.4,4-18.1,10.3-25.4
	c0.2-0.2,0.3-0.5,0.5-0.8c-0.1-0.2-0.2-0.4-0.4-0.6c-3.7,1.6-7.6,2.7-10.9,4.9c-11.2,7.2-18.2,17.5-21.4,30.4
	c-1.1,4.6-1,9.2,2.6,12.8c4,3.9,8.7,6.8,13.8,9c0.1,0,0.2-0.1-0.1,0c0.7-3.7,1.3-7.2,1.8-10.7c0.1-0.7-0.2-1.5-0.5-2.1
	c-1.1-2.5-2.4-4.9-3.5-7.5c-0.3-0.6-0.1-1.5-0.1-2.2c0.2-0.1,0.5-0.1,0.7-0.2C86,48.7,87.3,51.9,88.7,55.4z M189.4,74.8
	c0-1.8,0.1-3.2,0-4.6c-0.1-0.9-0.3-1.9-0.7-2.6c-0.7-1.3-2.1-1.4-2.8-0.1c-2.2,4.1-6.1,5.9-10.1,7.2c-5,1.7-10.1,2.9-15.1,4.4
	c-0.4,0.1-0.8,0.3-1.4,0.6c4.1,3.9,7.4,8.1,9.7,13.1c2.3,5.1,1.8,10.4,0.8,15.7c7.1-6.2,13.9-12.2,20.4-19c-1.4-0.6-2.3-1-3.2-1.4
	c0.8-0.5,1.5-0.5,2.2-0.6c3.7-0.3,7.3-1,10.5-3.2c2.3-1.6,2.9-3.7,1-5.8c-1.8-1.9-4.1-3.4-6.4-4.7C192.6,72.9,190.9,73,189.4,74.8z
	 M94.8,44.3c3.9-4,7.7-8,11.7-11.8c1.2-1.1,2-2.2,2.4-3.8c0.8-3.6,2.2-6.9,4.8-9.6c0.5-0.5,1.4-0.6,2.1-0.9c-0.2,0.7-0.3,1.4-0.7,2
	c-0.9,1.3-2,2.4-2.8,3.8c-1,1.7-1.7,3.5-2.5,5.3c6-3.4,11.9-6.6,18.8-5.7c1.4-5.5,0.4-10.3-2-14.9c-1.7-3.4-5.5-5.2-9.2-4
	c-2.4,0.7-4.9,1.8-6.7,3.4c-6.3,5.6-11.2,12.3-13.7,20.4C95.5,33.6,94.4,38.9,94.8,44.3z M166.3,192c-3.8,2-7.4,3.9-10.6,5.6
	c0.3,2.2,0.8,4.6,0.8,6.9c0.1,11.8,0,23.6,0,35.4c0,0.7,0.1,1.4,0.1,2.5c3-2.3,5.5-4.3,8.2-6.2c1.2-0.9,1.6-1.9,1.6-3.4
	c0-12.9,0-25.7,0-38.6C166.4,193.5,166.3,192.8,166.3,192z M167,111.3c-9.6,18.3-23.9,31.1-41.9,40.5
	C148.2,154.9,171,134.7,167,111.3z M153,66.7c1.5,1.3,3,2.7,2.1,5c-1,2.4-3.1,3.2-5.5,3.4c-0.8,0.1-1.7-0.2-2.5-0.2
	c-1.5,0-3.1-0.2-4.6,0.1c-2.6,0.6-5.5,0.7-7.3,3.3c-0.1,0.1-0.4,0-0.6,0c-0.4-1.6-0.8-3.2-1.2-5c0.5,0.2,1.1,0.1,1.3,0.4
	c1.3,1.6,2.7,1.1,4.4,0.6c4-1.3,7.2-3.6,10.1-6.5c2.7-2.7,5.3-5.5,8.1-8.2c0.5-0.5,1.5-0.3,2.3-0.4c-0.3,0.7-0.5,1.6-1,2.2
	c-0.8,0.8-1.9,1.5-2.9,2.2c0.1,0.2,0.3,0.4,0.4,0.6c2,0,3.4-1.3,4.4-2.9c0.6-0.9,1-2.4,0.6-3.2c-0.5-1-1.9-1.8-3-2.1
	c-2.1-0.6-3.6,0.9-5,2.3c-0.9,0.9-1.9,1.7-3,2.7c-0.5-1-0.6-1.8-1.1-2.2c-2.9-2.4-7.2-1.2-9,2.2c-1.3,2.5-3,4.8-4.7,7
	c-1.3,1.6-3.1,2.9-4.7,4.4c-2.5,2.2-3.2,5-2,7.2c1,1.9,3.5,2.4,6.7,1.4c4.3-1.4,8.7-2.5,13.3-2.6c2.9-0.1,5.3-1.4,7.3-3.5
	c2.7-2.8,2.6-5.8,0-8.7C154.7,64.7,153.8,65,153,66.7z M190.5,210.8c-4.2,0.8-7-0.6-9.2-3.4c-1-1.3-2.2-2.5-3.4-3.5
	c-1-0.9-1.1-1.8-0.6-3c1.9-5.1,3.6-10.3,5.4-15.4c1.2-3.4,2.4-6.8,3.8-10.7c-2.2,1.8-4,3.3-5.7,4.6c1.2,2.8,1,4.5-0.7,6
	c-1.5,1.3-3,3-4.8,3.6c-3,1.1-3.7,3.4-4.6,5.8c-0.6,1.7-1.2,3.5-2.1,5.1c-1.7,3.3-2.2,6.3,1.1,9c0.5,0.4,0.8,1,1.2,1.5
	c3.1,3.9,6.2,7.9,9.5,11.9C183.8,218.5,186.9,214.9,190.5,210.8z M94.2,134.5c1-1.6,1.6-2.9,2.5-3.8c2.8-2.6,3.6-6,3.9-9.5
	c0-0.6,0-1.4-0.3-1.7c-3.2-2.6-9.4-0.6-10.1,3.4C89.4,127.3,91.5,130.9,94.2,134.5z"/>
<path class="st0" d="M67.7,181c0,4.6-3.6,8.1-8.4,8.2c-4.8,0-8.5-3.6-8.5-8.3c0-4.6,3.7-8.1,8.5-8C64.1,172.9,67.7,176.4,67.7,181z
	 M65.5,180.9c0-3.6-2.9-6.4-6.3-6.4c-3.5,0-6.2,2.9-6.2,6.5c0,3.6,2.8,6.4,6.3,6.4C62.8,187.4,65.5,184.5,65.5,180.9z"/>
<path class="st0" d="M110.8,53.8c0-4.3,3-6.5,6.9-5c5.7,2.3,9.4,6.4,10.5,12.6c0.9,4.9-2.7,7.7-7.3,6.1
	C115.6,65.7,110.8,59.2,110.8,53.8z M122.7,66.9c3.1,0.5,4.8-1.2,4.6-4.5c-0.3-5.1-5.2-11.3-10.2-12.7c-3.5-1-5.7,0.8-5.4,4.5
	c1.9-2.2,3.5-2.5,6.1-0.9c3.2,1.9,5.3,4.6,6.4,8.1C125,63.4,125.1,65.5,122.7,66.9z M116.2,57.8c-0.6,0.8-1.3,1.3-1.2,1.7
	c0.1,0.5,0.8,1,1.3,1.4c0.4-0.5,1.1-0.9,1.2-1.5C117.6,59,116.8,58.5,116.2,57.8z"/>
<path class="st0" d="M142.1,52.8c0,3.7-2.6,5.6-6.1,4.8c-5-1.2-10.1-7.7-10.2-12.8c0-3.7,2.4-5.7,5.9-4.9
	C136.8,41.1,142.1,47.8,142.1,52.8z M136.4,56.8c3.4,0,4.6-1.2,4.7-3.9c0-4.9-5-11.3-9.9-12.3c-3-0.6-4.9,1.2-4.4,4.3
	c1.6-2,3-2.3,5.3-1c3.2,1.7,5.3,4.4,6.3,7.9C138.9,53.7,138.9,55.5,136.4,56.8z M130.8,51.7c0.6-0.8,1.3-1.4,1.2-1.8
	c-0.1-0.5-0.8-1-1.3-1.1c-0.3-0.1-1.1,0.7-1.1,1.1C129.6,50.4,130.2,50.9,130.8,51.7z"/>
<path class="st0" d="M106,53c-2.5-2.5-2.1-8.2,0.5-9.8c0.4-0.2,1.1-0.3,1.5-0.1c0.3,0.2,0.5,1.1,0.3,1.3C106.3,46.9,106,49.8,106,53
	z"/>
<path class="st0" d="M47.6,266.3c0-14.6,0-28.8,0-43.7c2.5,0.4,4.8,0.5,7.1,1.1c0.9,0.2,1.6,1.5,2.1,2.5c0.3,0.7,0.3,1.6,0.3,2.4
	c0,9.9,0,19.7,0,29.6c0,1.1,0,2.2-0.2,3.3c-0.5,3.4-1.7,4.5-5.2,4.8C50.3,266.4,49,266.3,47.6,266.3z"/>
<path class="st0" d="M60.7,181.7c0.8,1.3,1.5,2.4,2.3,3.8c-3.2,0.5-2.6-3.6-5.1-3.9c0,1.3,0,2.5,0,3.7c-1.3,0.5-1.9,0.3-1.8-1
	c0-2.5,0-5,0-7.8c1.3,0,2.6,0,3.8,0c1.4,0,2.8,0.3,3.1,2C63.3,180.2,62.4,181.2,60.7,181.7z M57.8,180.5c1.2-0.3,2.2-0.6,3.2-0.9
	c0.1,0,0.1-1.2-0.1-1.2c-1-0.3-2-0.4-3.1-0.7C57.8,178.7,57.8,179.3,57.8,180.5z"/>
</svg>
