<?xml version="1.0" encoding="utf-8"?>
<!-- Generator: Adobe Illustrator 24.0.2, SVG Export Plug-In . SVG Version: 6.00 Build 0)  -->
<svg version="1.1" id="Layer_1" xmlns="http://www.w3.org/2000/svg" xmlns:xlink="http://www.w3.org/1999/xlink" x="0px" y="0px"
	 viewBox="0 0 103 46" style="enable-background:new 0 0 103 46;" xml:space="preserve">
<style type="text/css">
	.st0{fill:#464646;}
	.st1{fill:#B5B5B5;}
	.st2{fill:#CCCCCC;}
	.st3{fill:#484848;}
	.st4{fill:#8A8A8A;}
	.st5{fill:#474747;}
	.st6{fill:#4B4B4B;}
	.st7{fill:#4C4C4C;}
	.st8{fill:#4A4A4A;}
	.st9{fill:#FBFBFB;}
	.st10{fill:#505050;}
	.st11{fill:#515151;}
	.st12{fill:#4F4F4F;}
	.st13{fill:#555555;}
	.st14{fill:#4E4E4E;}
	.st15{fill:#535353;}
	.st16{fill:#4D4D4D;}
	.st17{fill:#545454;}
	.st18{fill:#525252;}
	.st19{fill:#5D5D5D;}
	.st20{fill:#565656;}
	.st21{fill:#575757;}
	.st22{fill:#6C6C6C;}
	.st23{fill:#727272;}
	.st24{fill:#767676;}
	.st25{fill:#717171;}
	.st26{fill:#7B7B7B;}
	.st27{fill:#757575;}
	.st28{fill:#5B5B5B;}
	.st29{fill:#747474;}
	.st30{fill:#898989;}
	.st31{fill:#848484;}
	.st32{fill:#6D6D6D;}
	.st33{fill:#777777;}
	.st34{fill:#868686;}
	.st35{fill:#878787;}
	.st36{fill:#858585;}
	.st37{fill:#8B8B8B;}
	.st38{fill:#6B6B6B;}
	.st39{fill:#676767;}
	.st40{fill:#808080;}
	.st41{fill:#797979;}
	.st42{fill:#7A7A7A;}
	.st43{fill:#828282;}
	.st44{fill:#818181;}
	.st45{fill:#737373;}
	.st46{fill:#6E6E6E;}
	.st47{fill:#656565;}
	.st48{fill:#8C8C8C;}
	.st49{fill:#666666;}
	.st50{fill:#7F7F7F;}
	.st51{fill:#ACACAC;}
	.st52{fill:#838383;}
	.st53{fill:#FEFEFE;}
	.st54{fill:#EEEEEE;}
	.st55{fill:#FDFDFD;}
	.st56{fill:#F9F9F9;}
	.st57{fill:#F8F8F8;}
	.st58{fill:#F6F6F6;}
</style>
<path class="st0" d="M16.1,0c0,0.2,0,0.3,0,0.5c0,10.6,0,21.2,0,31.8c0,0.4-0.1,0.5-0.5,0.5c-2.6,0-5.1,0-7.7,0
	c-0.3,0-0.4-0.1-0.4-0.4c0-3.1,0-6.2,0-9.3c0-0.3,0.1-0.4,0.4-0.4c0.9,0,1.7,0,2.6,0c0.2,0,0.3,0.1,0.3,0.3c0,0.3,0,0.6,0,0.8
	c0,0.3,0.2,0.3,0.4,0.3c0.2,0,0.4,0.1,0.4-0.2c0-1.1,0-2.2,0-3.3c0-0.4-0.3-0.2-0.5-0.2c-0.2,0-0.4,0-0.3,0.3c0,0.3,0,0.6,0,0.9
	c0,0.2-0.1,0.3-0.3,0.3c-0.9,0-1.8,0-2.7,0c-0.2,0-0.3-0.1-0.3-0.3c0-5.3,0-10.6,0-15.9c0-0.2,0-0.3,0.3-0.3c1,0,2,0,3,0
	c0.2,0,0.3,0.1,0.3,0.3c0.2,1.3,0.3,2.7,0.5,4c0,0.3,0.1,0.3,0.4,0.3c0.7,0,0.7,0,0.7-0.7c0-1.6,0-3.1,0-4.7c0-0.3-0.1-0.3-0.3-0.3
	c-2.7,0-5.4,0-8.1,0C4,4.2,3.9,4.3,3.9,4.6c0,0.6,0,0.6,0.6,0.6c0.5,0,0.5,0,0.5,0.5c0,5.2,0,10.4,0,15.6c0,0.3-0.1,0.5-0.4,0.4
	c-0.1,0-0.2,0-0.3,0c-0.4-0.1-0.5,0.1-0.5,0.5c0,0.5,0,0.5,0.5,0.5c0.1,0,0.2,0,0.3,0c0.3,0,0.3,0.1,0.3,0.3c0,3.1,0,6.3,0,9.4
	c0,0.3-0.1,0.3-0.3,0.3c-1.6,0-3.2,0-4.8,0C0,22,0,11.2,0,0.4C0,0.1,0.1,0,0.4,0C5.6,0,10.9,0,16.1,0z"/>
<path class="st1" d="M0,43.8c1.7,0,3.4,0,5.2,0c3.5,0,7,0,10.4,0c0.4,0,0.5,0.1,0.5,0.5c0,0.5,0,1.1,0,1.6c-5.3,0-10.5,0-15.8,0
	C0,46,0,45.9,0,45.7C0,45.1,0,44.5,0,43.8z"/>
<path class="st2" d="M0,41.3c5.2,0,10.5,0,15.7,0c0.3,0,0.4,0.1,0.4,0.4c0,0.5,0,0.9,0,1.4c0,0.2-0.1,0.3-0.3,0.3
	c-0.1,0-0.2,0-0.3,0c-5.2,0-10.3,0-15.5,0C0,42.7,0,42,0,41.3z"/>
<path class="st0" d="M0,38.7c0.1,0,0.3,0,0.4,0c5.1,0,10.2,0,15.2,0c0.4,0,0.5,0.1,0.5,0.5c0,0.4,0,0.9,0,1.3c0,0.2-0.1,0.3-0.3,0.3
	c-0.9,0-1.9,0-2.8,0c-4.3,0-8.6,0-12.9,0C0,40.1,0,39.4,0,38.7z"/>
<path class="st1" d="M0,36.1c5.2,0,10.5,0,15.7,0c0.3,0,0.4,0.1,0.4,0.4c0,0.4,0,0.8,0,1.2c0,0.4-0.1,0.5-0.5,0.5
	c-4.7,0-9.5,0-14.2,0c-0.5,0-0.9,0-1.4,0C0,37.5,0,36.8,0,36.1z"/>
<path class="st0" d="M0,33.5c1.1,0,2.2,0,3.4,0c4.1,0,8.2,0,12.3,0c0.3,0,0.4,0.1,0.4,0.4c0,0.5,0,0.9,0,1.4c0,0.2-0.1,0.3-0.3,0.3
	c-0.9,0-1.8,0-2.8,0c-4.3,0-8.7,0-13,0C0,34.9,0,34.2,0,33.5z"/>
<path class="st3" d="M102.3,24.3c-0.1,0.1-0.1,0.1-0.2,0.2c-0.2,0.1-0.4,0.1-0.6-0.1c-0.2-0.2-0.1-0.4,0.1-0.6
	c0.2-0.2,0.4-0.1,0.6,0c0.1,0,0.1,0.1,0.1,0.2C102.3,24.1,102.3,24.2,102.3,24.3z"/>
<path class="st4" d="M102.3,30.7c-0.2,0-0.4,0.1-0.6-0.1c0.1-0.1,0.2-0.1,0.2-0.1C102.1,30.6,102.2,30.6,102.3,30.7
	C102.3,30.7,102.3,30.7,102.3,30.7z"/>
<path class="st0" d="M75.4,24.5c-0.7,0.1-1.5,0.1-2.3,0c0.2-0.2,0.2-0.4,0.1-0.7c-0.3-0.6-0.5-1.3-0.8-1.9c-0.1-0.2-0.2-0.3-0.4-0.3
	c-0.7,0-1.4,0-2.1,0c-0.2,0-0.3,0-0.4,0.3c-0.2,0.6-0.4,1.1-0.6,1.7c-0.2,0.6-0.2,0.7,0.4,0.9c0,0.1-0.1,0.1-0.1,0.1
	c-1-0.1-1.9,0.1-2.9,0c-0.7-0.1-1.2-0.4-1.7-0.9c-1-0.9-1.9-1.9-2.8-2.9c-0.1-0.1-0.1-0.2-0.3-0.3c0,0.9,0,1.7,0,2.4
	c0,0.2,0,0.4,0,0.5c0,0.8,0,0.8,0.8,0.9c0,0,0.1,0,0.1,0.1c-0.9,0.1-1.8,0-2.7,0.1c0.1-0.1,0.1-0.2,0.1-0.2c0.7,0,0.7-0.5,0.7-1
	c0-2,0-4,0-5.9c0-0.5-0.1-0.6-0.6-0.7c-0.1,0-0.2,0-0.3-0.2c0.9,0,1.8,0,2.7,0c0,0.1-0.1,0.1-0.1,0.1c-0.7,0.1-0.7,0.5-0.7,1.1
	c0,0.8,0,1.6,0,2.4c0.1,0,0.2-0.1,0.2-0.2c0.9-0.9,1.8-1.8,2.6-2.7c0.2-0.2,0.4-0.5,0-0.7c0.8,0,1.5,0,2.2,0c0,0.1,0,0.1,0,0.1
	c-0.8,0.1-1.3,0.6-1.8,1.1c-0.7,0.7-1.4,1.4-2.1,2c-0.1,0.1-0.2,0.2,0,0.4c1.2,1.2,2.3,2.4,3.6,3.5c0.3,0.2,0.6,0.4,0.9,0.5
	c0.4,0.1,0.7,0,0.9-0.3c0.1-0.2,0.3-0.5,0.3-0.7c0.8-2,1.6-4.1,2.4-6.1c0-0.1,0.1-0.2,0.1-0.2c0.1-0.1,0.1-0.4,0.3-0.4
	c0.2,0,0.2,0.2,0.3,0.4c0.8,1.9,1.6,3.9,2.4,5.8c0,0.1,0.1,0.2,0.1,0.4C74.3,24.1,74.4,24.1,75.4,24.5z"/>
<path class="st0" d="M46.9,23.1c0-2-0.1-3.8-0.1-5.6c0-0.4-0.2-0.6-0.6-0.6c-0.1,0-0.3,0-0.5-0.1c0.9,0,1.7,0,2.6,0
	c-0.1,0.1-0.1,0.1-0.2,0.1c-0.6,0.2-0.6,0.2-0.6,0.8c0,2.1,0,4.2,0,6.3c0,0.1,0,0.3,0,0.4c0,0.1,0,0.2-0.1,0.3
	c-0.1,0-0.2-0.1-0.3-0.1c-0.3-0.2-0.5-0.5-0.8-0.7c-1.7-1.7-3.4-3.5-5.1-5.2c-0.1-0.1-0.2-0.2-0.3-0.3c0,1.1,0,2.1,0,3.1
	c0,0.7,0,1.3,0.1,2c0,0.9,0.2,1.1,0.9,1c0,0,0.1,0,0.1,0.1c-0.8,0.1-1.7,0-2.5,0.1c0,0,0-0.1,0-0.1c0,0,0.1-0.1,0.1-0.1
	c0.7-0.2,0.7-0.2,0.7-0.9c0-2.1,0-4.2,0-6.3c0-0.2-0.1-0.6,0.1-0.7c0.2-0.1,0.4,0.2,0.6,0.4c1.8,1.9,3.7,3.8,5.5,5.8
	C46.6,22.8,46.7,22.9,46.9,23.1z"/>
<path class="st0" d="M49.7,16.7c0.9,0,1.8,0.1,2.7,0c0,0,0,0.1,0,0.1c0,0-0.1,0-0.1,0c-0.6,0.1-0.6,0.1-0.7,0.7c0,1.5-0.1,3.1,0,4.6
	c0.2,1.7,1.8,2.6,3.3,1.9c0.9-0.4,1.2-1.2,1.3-2.1c0.1-1.5,0.1-3.1,0-4.6c0-0.3-0.2-0.5-0.5-0.5c-0.1,0-0.2,0-0.4-0.2
	c0.9,0,1.7,0,2.5,0c0,0.1,0,0.1,0,0.1c-0.7,0.2-0.7,0.2-0.7,0.9c0,1.3,0.1,2.6,0,3.9c-0.1,1.1-0.4,2.1-1.5,2.6
	c-1.2,0.6-2.4,0.6-3.6,0c-0.8-0.4-1.2-1.2-1.3-2.1c-0.1-0.9,0-1.8-0.1-2.7c0-0.6,0-1.2,0-1.8c0-0.7-0.1-0.7-0.7-0.8
	C49.9,16.8,49.8,16.8,49.7,16.7z"/>
<path class="st0" d="M27.7,24.6c-1.1,0-2.1,0-3.1,0c0.1-0.1,0.1-0.1,0.1-0.1c0.7,0,0.7-0.5,0.8-1c0.1-1,0-2,0-3c0-1.3,0-2.6,0-3.9
	c0-0.7,0-1.1-0.9-1.1c0,0-0.1,0-0.1-0.1c0.1-0.2,0.3-0.1,0.4-0.1c1.2,0,2.5,0,3.7,0c0.4,0,0.7,0,1.1-0.1c0.1,0,0.2,0,0.2,0.1
	c-0.1,0.5-0.1,1-0.2,1.5c-0.2,0-0.1-0.1-0.2-0.2c-0.1-0.5-0.3-0.8-0.9-0.8c-0.6,0-1.3,0-1.9,0c-0.2,0-0.2,0.1-0.2,0.2
	c0,1.1,0,2.1,0,3.2c0,0.2,0.1,0.2,0.3,0.2c0.7,0,1.3,0,2,0c0.3,0,0.5-0.1,0.8-0.4c-0.1,0.7-0.1,1.3-0.2,1.8c-0.2,0-0.1-0.2-0.2-0.3
	c-0.1-0.4-0.3-0.6-0.6-0.7c-0.6-0.1-1.2,0-1.8-0.1c-0.2,0-0.2,0.1-0.2,0.2c0,1.2,0,2.3,0.1,3.5c0,0.6,0.2,0.7,0.8,0.8
	C27.4,24.4,27.6,24.4,27.7,24.6z"/>
<path class="st0" d="M30.3,24.5c0,0,0.1-0.1,0.1-0.1c0.7,0,1-0.5,1.2-1c0.8-2.2,1.7-4.3,2.5-6.5c0.1-0.2,0.1-0.4,0.3-0.4
	c0.2,0,0.2,0.2,0.3,0.4c0.8,2.1,1.7,4.1,2.5,6.2c0.1,0.2,0.2,0.5,0.3,0.7c0.2,0.4,0.5,0.6,0.9,0.6c0.1,0,0.2,0,0.3,0.2
	c-0.8,0.1-1.6,0-2.4,0c0.2-0.2,0.2-0.4,0.1-0.6c-0.3-0.7-0.5-1.3-0.8-2c-0.1-0.2-0.2-0.3-0.4-0.3c-0.7,0-1.4,0-2.1,0
	c-0.2,0-0.3,0.1-0.3,0.2c-0.2,0.6-0.4,1.1-0.6,1.7c-0.2,0.6-0.2,0.7,0.4,1c-0.8,0-1.6,0-2.4,0C30.3,24.6,30.3,24.5,30.3,24.5z"/>
<path class="st0" d="M89.4,20.4c0,1.1,0,2.2,0,3.3c0,0.6,0,0.6,0.6,0.8c-0.5,0-1.1,0-1.6,0c0.5-0.1,0.5-0.4,0.5-0.8
	c0-1.4,0-2.8,0-4.1c0-0.1-0.1-0.3,0.1-0.3c0.1-0.1,0.2,0.1,0.3,0.2c1.2,1.3,2.4,2.5,3.7,3.8c0.1,0.1,0.1,0.2,0.2,0.2
	c0-1.2,0-2.4,0-3.7c0-0.4-0.4-0.4-0.6-0.5c0.5,0,1,0,1.5,0c-0.5,0.1-0.4,0.5-0.5,0.8c0,1.4,0,2.8,0,4.1c0,0.1,0.1,0.3-0.1,0.3
	c-0.1,0.1-0.2-0.1-0.3-0.2c-1.3-1.2-2.5-2.5-3.7-3.7C89.5,20.6,89.4,20.5,89.4,20.4z"/>
<path class="st0" d="M100.1,23.3c0,0.3-0.1,0.6-0.2,1c0,0.1-0.1,0.2-0.2,0.2c-1.3,0.2-2.6,0.3-3.7-0.7c-0.8-0.7-1-1.7-0.7-2.8
	c0.3-1.1,1.1-1.7,2.2-1.8c0.8-0.1,1.6,0,2.4,0.1c0.1,0,0.2,0,0.2,0.2c0,0.4,0,0.8-0.1,1.1c-0.1,0-0.1,0-0.1,0
	c-0.2-0.8-0.4-1-1.2-1.1c0,0-0.1,0-0.1,0c-1.5-0.2-2.5,0.4-2.7,1.6c-0.3,2,1,3,2.2,3.1c0.2,0,0.5,0,0.7,0c0.5,0,0.9-0.2,1.1-0.8
	C100,23.4,100,23.4,100.1,23.3z"/>
<path class="st5" d="M86.8,24.5c-0.2,0.1-1.8,0.1-2.1,0c0.6-0.1,0.5-0.4,0.5-0.8c0-1.5,0-3,0-4.6c0-0.4-0.1-0.7-0.5-0.7
	c0.6,0,1.2,0,1.8,0C86,18.5,86,18.9,86,19.4c0,1.5,0,2.9,0,4.4C86.1,24.4,86.1,24.4,86.8,24.5z"/>
<path class="st5" d="M77.5,23.9c-0.1,0.6-0.5,1.2-0.9,1.7c0,0-0.1,0-0.1,0c-0.1,0,0-0.1,0-0.2c0.1-0.2,0.2-0.3,0.2-0.5
	c0.1-0.4,0.1-0.8-0.2-1.1c-0.2-0.3-0.2-0.5,0.2-0.7c0.3-0.2,0.5-0.2,0.7,0.2C77.5,23.5,77.5,23.6,77.5,23.9z"/>
<path class="st6" d="M26.3,30.7c0.1-0.7,0-1.4,0.1-2.1c0.6,0.5,1.2,1.1,1.8,1.6c0-0.5,0.1-1-0.1-1.6c0.1,0,0.2-0.1,0.3,0.1
	c0,0.7,0,1.3,0,2.1c-0.7-0.6-1.2-1.2-1.8-1.7c0,0.5,0,1,0,1.5C26.5,30.8,26.4,30.7,26.3,30.7z"/>
<path class="st6" d="M48.3,30.7c0.1-0.7,0-1.4,0.1-2.1c0.6,0.5,1.2,1.1,1.8,1.6c0-0.5,0.1-1-0.1-1.6c0.1,0,0.2-0.1,0.3,0.1
	c0,0.7,0,1.3,0,2.1c-0.7-0.6-1.2-1.2-1.8-1.7c0,0.5,0,1,0,1.5C48.5,30.8,48.4,30.7,48.3,30.7z"/>
<path class="st6" d="M76.2,30.6c0-0.7,0-1.3,0-1.9c0.6,0.5,1.2,1,1.8,1.6c0-0.6,0-1.1-0.1-1.7c0.1-0.1,0.2-0.1,0.3,0
	c0,0.7,0,1.4,0,2.1c0,0-0.1,0-0.1,0c-0.6-0.5-1.1-1.1-1.7-1.8c0,0.6,0,1.1,0.1,1.6c0,0.1,0,0.1-0.1,0.1
	C76.3,30.7,76.2,30.7,76.2,30.6z"/>
<path class="st7" d="M64.5,30.6c0-0.7,0-1.4,0-2c0.6,0.5,1.2,1.1,1.8,1.6c0-0.5,0-1-0.1-1.6c0.1-0.1,0.2-0.1,0.3,0
	c0,0.7,0,1.4,0,2.1c0,0-0.1,0-0.1,0c-0.6-0.5-1.1-1.1-1.8-1.8c0,0.6,0.1,1.1,0.1,1.6c0,0.1,0,0.1-0.1,0.1
	C64.6,30.7,64.5,30.7,64.5,30.6z"/>
<path class="st8" d="M84.2,29.5c-0.2,0.4-0.4,0.8-0.6,1.3c-0.4-0.6-0.6-1.2-1-1.8c0,0.6-0.1,1.1-0.1,1.7c0,0.1,0,0.1-0.1,0.1
	c-0.1,0-0.2,0-0.1-0.1c0.1-0.8,0.2-1.6,0.3-2.4c0,0,0.1,0,0.1,0c0.3,0.7,0.7,1.4,1,2.1c0.2-0.3,0.3-0.6,0.5-0.9
	C84.2,29.4,84.2,29.4,84.2,29.5z"/>
<path class="st7" d="M72.8,30.6c0.1-1.3,0.1-2.2-0.1-2.4c0.4,0,0.8,0,1.2,0c0.1,0,0.2-0.1,0.2,0.1c0,0.1,0,0.1,0,0.2
	c-0.1,0.1-0.1-0.1-0.2-0.1c-0.2,0-0.3,0-0.5,0c-0.2,0-0.2,0.1-0.2,0.2c0,0,0,0.1,0,0.1c0,0.8,0,0.8,0.8,0.7c0,0.2,0,0.2-0.2,0.2
	c-0.4-0.1-0.6,0-0.5,0.4c0,0.3-0.1,0.5,0.1,0.8C73.1,30.7,72.9,30.8,72.8,30.6z"/>
<path class="st8" d="M94.4,28.2c-0.3,0.6-0.5,1.3-0.7,2c-0.1,0.2-0.1,0.4-0.3,0.6c-0.2-0.5-0.4-1.1-0.6-1.6c0-0.1,0-0.3-0.2-0.4
	c0,0,0,0,0,0c0,0,0,0,0,0c-0.1,0-0.1,0-0.1-0.1c0.1-0.2,0.1-0.4,0.2-0.6c0.3,0.8,0.5,1.4,0.8,2.2c0.2-0.7,0.5-1.4,0.5-2
	C94.2,28.2,94.3,28.2,94.4,28.2z"/>
<path class="st6" d="M55.9,30.6c0.3-0.7,0.6-1.4,0.9-2.1c0.4,0.7,0.5,1.6,1.1,2.2c-0.3,0.1-0.5-0.1-0.6-0.4
	c-0.1-0.4-0.3-0.5-0.8-0.4c-0.3,0.1-0.2,0.3-0.3,0.5c0,0.1,0,0.3-0.1,0.3C56,30.7,55.9,30.7,55.9,30.6z"/>
<path class="st9" d="M68.9,29.4L68.9,29.4c0.1,0,0.2-0.1,0.3,0c0.3,0.3,0.6,0.6,0.8,0.9c0,0.1,0.1,0.2,0,0.2l0,0
	c-0.4,0.3-0.8,0.3-1.1,0C68.5,30.1,68.5,29.7,68.9,29.4z"/>
<path class="st10" d="M58.6,30.5c0-0.5,0-0.9,0-1.4c0-0.5,0-0.5-0.5-0.5c-0.1,0-0.2,0.1-0.3,0.1c0-0.2,0-0.3,0.3-0.3
	c0.5,0,0.9,0,1.4,0c0.2,0,0.3,0.1,0.2,0.3c-0.1-0.1-0.2-0.1-0.3-0.2c-0.4-0.1-0.5,0-0.5,0.4c0,0.5,0,1,0,1.5c0,0.2-0.1,0.1-0.2,0.1
	C58.6,30.7,58.6,30.6,58.6,30.5z"/>
<path class="st3" d="M102,30.6c-0.1,0.1-0.2,0-0.2,0.1c-0.5-0.2-0.7-0.7-1.2-1c-0.1,0.4-0.1,0.7,0,1c-0.2,0-0.4,0.2-0.3-0.2
	c0-0.6,0-1.2,0-1.8c0-0.1,0.1-0.1,0.2-0.1c0.2,0,0.1,0.2,0.1,0.3c0,0.2,0,0.4,0,0.6c0.2-0.1,0.2-0.1,0.3,0.1
	C101.2,29.9,101.6,30.3,102,30.6z"/>
<path class="st7" d="M70,30.4c0-0.1,0.1-0.1,0-0.2c-0.3-0.3-0.6-0.6-0.9-0.9c-0.1-0.1-0.1,0-0.2,0c0-0.1,0-0.2,0-0.4
	c-0.1-0.3,0-0.6,0.3-0.8c0.1,0,0.1,0,0.1,0.1C69,28.5,69,28.7,69.1,29c0.3,0.4,0.6,0.7,1,1.1c0.1,0.1,0.1,0,0.2-0.1
	c0.1,0,0.1,0,0.1,0.1c-0.1,0.1,0,0.2,0.1,0.3c0.2,0.1,0.4,0.3,0.7,0.4c-0.3,0.1-0.6,0-0.9-0.2C70.2,30.4,70.1,30.5,70,30.4z"/>
<path class="st10" d="M31.8,28.7c0,0.1,0,0.2,0,0.2c0,0.6,0,0.6,0.6,0.6c0.3,0,0.1,0.2,0.2,0.3c-0.2-0.2-0.4-0.2-0.6-0.2
	c-0.1,0-0.2,0.1-0.2,0.2c0,0.1,0,0.2,0,0.3c0,0.3,0.1,0.5,0.4,0.5c0.1,0,0.2,0,0.3,0.1c-0.4,0-0.8,0-1.1,0c0.1-0.7,0.1-1.4,0-2.1
	C31.6,28.6,31.8,28.4,31.8,28.7z"/>
<path class="st10" d="M80.2,30.7c-0.4,0.2-0.8,0-1.1,0.1c0.1-0.7,0.1-1.4,0-2.1c0.1,0,0.3-0.2,0.3,0.1c0,0.1,0,0.2,0,0.2
	c0,0.6,0,0.6,0.6,0.6c0.1,0,0.1,0,0.1,0.2c-0.2-0.1-0.4-0.2-0.6-0.1c-0.1,0,0,0.8,0,0.8C79.7,30.7,79.9,30.6,80.2,30.7
	C80.2,30.6,80.2,30.6,80.2,30.7z"/>
<path class="st11" d="M87.4,30.7c0.1-0.7,0.1-1.4,0-2.2c0,0,0.2,0,0.3,0c0,0.6,0,1.2,0,1.8c0,0.2,0.1,0.3,0.3,0.3
	c0.2,0,0.4,0,0.5,0.1C88.1,30.7,87.7,30.7,87.4,30.7z"/>
<path class="st6" d="M84.2,29.5c0,0-0.1-0.1-0.1-0.1c0.2-0.4,0.4-0.8,0.5-1.2c0,0,0.1,0,0.1,0c0,0.3,0.1,0.7,0.1,1
	c0.1,0.5,0,1,0.2,1.4c-0.1,0.2-0.2,0.1-0.4,0.1c-0.1-0.6-0.1-1.2-0.2-1.9C84.4,29.1,84.3,29.3,84.2,29.5z"/>
<path class="st6" d="M29.7,30.7c0.1-0.6,0-1.2,0.1-1.8c0-0.1-0.1-0.2-0.2-0.2c-0.2,0-0.4-0.1-0.6,0.2c0-0.2,0-0.3,0.2-0.3
	c0.5,0,0.9,0,1.4,0c0.2,0,0.3,0.1,0.2,0.3c-0.1,0-0.2-0.1-0.3-0.1c-0.4-0.1-0.5,0-0.5,0.4c0,0.5-0.1,1,0.1,1.6
	C29.9,30.7,29.8,30.7,29.7,30.7z"/>
<path class="st12" d="M44.6,29.7c-0.5-0.1-0.5-0.1-0.5,0.4c0,0.2,0,0.3,0,0.5c-0.1,0.2-0.2,0.2-0.3,0c0-0.8,0-1.5,0-2.3
	c0.1-0.2,0.2-0.1,0.4,0c0.1,0.2,0.1,0.5,0.1,0.7c0,0.3,0.1,0.4,0.4,0.5C44.6,29.5,44.7,29.6,44.6,29.7z"/>
<path class="st13" d="M34.3,29.8c-0.2,0-0.4-0.1-0.4,0c-0.1,0.3-0.1,0.6,0.1,0.8c-0.2,0-0.4,0-0.5,0c0.1-0.7,0.1-1.4,0-2.1
	c0.1-0.1,0.3-0.1,0.4,0c0.1,0.1,0.1,0.3,0.1,0.4c0,0.3,0.1,0.5,0.4,0.6C34.3,29.7,34.3,29.8,34.3,29.8z"/>
<path class="st6" d="M25.2,28.3c0,0.7,0,1.3,0,2c0,0.1,0,0.2,0.1,0.4c-0.2,0-0.3,0.1-0.4-0.1c0-0.8,0-1.5,0-2.3
	C24.9,28.1,25.1,28.1,25.2,28.3z"/>
<path class="st10" d="M46.7,28.7c0,0.1,0,0.2,0,0.3c0,0.5,0,0.6,0.5,0.5c0.3,0,0.1,0.2,0.2,0.3c-0.1-0.1-0.2-0.1-0.3-0.1
	c-0.3,0-0.4,0-0.4,0.3c0,0.2-0.1,0.5,0.2,0.7c-0.2,0.2-0.3,0.2-0.5,0c0-0.7,0-1.3,0-2C46.5,28.6,46.6,28.4,46.7,28.7z"/>
<path class="st8" d="M91.4,28.3c0.2,0.6,0.3,1.2,0.5,1.8c0,0.1,0.2,0.1,0.2,0.3c0,0.1-0.1,0.2-0.1,0.4c-0.2-0.1-0.2-0.3-0.2-0.4
	c-0.3-0.7-0.4-1.5-0.7-2.2C91.1,28.2,91.3,28.1,91.4,28.3z"/>
<path class="st14" d="M38.6,30.6c-0.7,0.2-1.3,0-1.5-0.5c-0.3-0.6-0.1-1.1,0.5-1.5c0.1,0,0.1,0,0.1,0.1c-0.1,0.2-0.3,0.5-0.3,0.7
	c0,0.6,0.4,1.1,1,1C38.5,30.5,38.6,30.5,38.6,30.6C38.6,30.6,38.7,30.6,38.6,30.6C38.7,30.6,38.6,30.6,38.6,30.6z"/>
<path class="st15" d="M75.2,28.6c0,0.7-0.1,1.4,0.1,2.1c-0.1,0-0.3,0-0.5,0c0.1-0.7,0-1.4,0.1-2C74.9,28.4,75.1,28.6,75.2,28.6z"/>
<path class="st7" d="M63.1,30.6c-0.5,0.3-1.2,0.1-1.4-0.4c-0.3-0.6-0.1-1.2,0.4-1.5c0.1,0,0.1,0,0.1,0.1c-0.2,0.3-0.3,0.6-0.3,1
	c0.1,0.6,0.4,0.8,1,0.8C63,30.5,63,30.5,63.1,30.6C63.1,30.6,63.1,30.6,63.1,30.6z"/>
<path class="st7" d="M52.4,30.7c-0.7,0.1-1.1-0.2-1.3-0.7c-0.2-0.5,0-1,0.5-1.4c0.1,0,0.1,0,0.1,0.1c-0.1,0.3-0.3,0.5-0.3,0.8
	c0,0.6,0.2,0.8,0.7,1c0.1,0,0.1,0,0.2,0.1C52.3,30.6,52.4,30.7,52.4,30.7z"/>
<path class="st6" d="M95.7,28.5c0.2,0,0.4,0,0.6,0c0.5,0.1,0.8,0.4,0.9,0.9c0.1,0.5-0.1,0.9-0.6,1.2c-0.1,0-0.1,0-0.1-0.1
	c0-0.1,0.1-0.1,0.1-0.2c0.5-0.8,0.2-1.5-0.8-1.7C95.7,28.6,95.7,28.6,95.7,28.5z"/>
<path class="st16" d="M51.8,28.5c0.9-0.1,1.4,0.2,1.5,0.9c0.1,0.4-0.1,0.8-0.5,1.1c-0.1,0-0.1,0-0.1-0.1c0-0.1,0.1-0.2,0.1-0.3
	c0.3-0.8,0-1.3-0.9-1.5C51.9,28.6,51.8,28.6,51.8,28.5z"/>
<path class="st8" d="M96.3,30.7c-0.7,0.1-1.1-0.1-1.3-0.6c-0.2-0.5-0.1-1,0.4-1.4c0.1,0,0.1,0,0.1,0.1c0,0.1,0,0.1,0,0.2
	c-0.3,0.8-0.1,1.3,0.8,1.5C96.2,30.6,96.3,30.6,96.3,30.7z"/>
<path class="st8" d="M54.9,30.4c0,0.1-0.1,0.2-0.2,0.4c-0.3-0.7-0.6-1.4-0.9-2.1c0.1-0.2,0.2-0.1,0.3-0.1c0.2,0.6,0.4,1.1,0.7,1.7
	C54.9,30.3,54.9,30.3,54.9,30.4z"/>
<path class="st6" d="M38.6,30.6C38.6,30.6,38.6,30.6,38.6,30.6c0-0.4,0.3-0.5,0.3-0.8c0.1-0.5-0.2-0.8-0.5-1.2
	c0-0.1,0.1-0.1,0.2-0.1c0.5,0.1,0.7,0.5,0.7,0.9C39.4,30,39.2,30.4,38.6,30.6z"/>
<path class="st6" d="M63.2,28.6c0.8,0.3,1,1.2,0.3,1.8c-0.1,0-0.1,0-0.1-0.1c0-0.1,0-0.2,0-0.2c0.2-0.6,0-1.1-0.4-1.5
	C63,28.5,63.1,28.5,63.2,28.6z"/>
<path class="st3" d="M97.9,30.7c0.1-0.7,0.1-1.4,0-2.1c0.1-0.1,0.3-0.1,0.4,0c0.1,0.3,0,0.6,0.1,1c0,0.1,0,0.2-0.1,0.2
	c0,0.2,0,0.5,0,0.7C98.2,30.8,98,30.7,97.9,30.7z"/>
<path class="st5" d="M60.4,30.7c0.1-0.7,0.1-1.4,0-2.1c0.1,0,0.3-0.2,0.3,0.1c0,0.6,0,1.2,0,1.8C60.7,30.8,60.5,30.7,60.4,30.7z"/>
<path class="st8" d="M89.4,30.5c0-0.6,0-1.1,0-1.7c0-0.1,0-0.2,0.1-0.2c0.1,0,0.2,0.1,0.1,0.2c0,0.5,0,0.9,0,1.4
	c0,0.2,0,0.4,0.2,0.4C89.6,30.8,89.4,30.7,89.4,30.5z"/>
<path class="st5" d="M86,30.7c0.1-0.7,0.1-1.4,0-2.1c0.1,0,0.3-0.2,0.3,0.1c0,0.6,0,1.2,0,1.8C86.4,30.8,86.2,30.7,86,30.7z"/>
<path class="st5" d="M35.9,30.7c0.1-0.5,0-1,0.1-1.4c0-0.2,0-0.3,0-0.5c0-0.1,0-0.1,0.1-0.1c0.1,0,0.2,0,0.2,0.1
	c0,0.7-0.1,1.3,0.1,2C36.1,30.7,36,30.7,35.9,30.7z"/>
<path class="st6" d="M68.9,29.4c-0.2,0.3-0.3,0.7,0,1c0.3,0.4,0.7,0.3,1.1,0.1c-0.2,0.3-0.6,0.4-1,0.3c-0.3-0.1-0.5-0.3-0.6-0.7
	C68.4,29.7,68.5,29.4,68.9,29.4z"/>
<path class="st0" d="M40.3,29.8c0,0.3,0,0.6,0.1,0.8c-0.2,0-0.4,0.2-0.3-0.2c0-0.6,0-1.2,0-1.8c0.1-0.2,0.2-0.1,0.3,0
	c0.1,0.3,0,0.7,0.1,1C40.5,29.7,40.4,29.8,40.3,29.8z"/>
<path class="st14" d="M98.2,29.8c0,0,0.1-0.1,0.1-0.1c0.2-0.2,0.4-0.1,0.6-0.1c0,0,0.1,0,0.1,0c-0.1,0.1-0.1,0.2,0,0.3
	c0.2,0.2,0.4,0.5,0.7,0.7c0,0.2-0.1,0.1-0.2,0.1c-0.3-0.1-0.4-0.3-0.5-0.6C98.7,29.8,98.5,29.7,98.2,29.8z"/>
<path class="st7" d="M44.6,29.7c0-0.1,0-0.1-0.1-0.2c0-0.1,0.1-0.1,0.2-0.1c0,0,0.1,0,0.1,0.1c0.3,0.4,0.5,0.8,0.9,1.1
	c-0.1,0.2-0.2,0.1-0.3,0.1C45.1,30.5,44.9,30,44.6,29.7z"/>
<path class="st7" d="M40.3,29.8c0-0.1,0-0.1,0.1-0.2c0.2-0.1,0.3-0.1,0.5-0.1c0,0,0.1,0,0.1,0.1c0.2,0.4,0.5,0.6,0.7,0.9
	c0,0.1-0.1,0.1-0.2,0.1c-0.3-0.1-0.4-0.4-0.6-0.6C40.8,29.8,40.6,29.7,40.3,29.8z"/>
<path class="st17" d="M34.3,29.8c0-0.1,0-0.1,0-0.2c0-0.1,0.1-0.1,0.2-0.1c0,0,0.1,0,0.1,0.1c0,0.5,0.4,0.7,0.7,1
	c0.1,0.1,0.1,0.1,0.2,0.1C34.8,30.8,34.6,30.2,34.3,29.8z"/>
<path class="st16" d="M44.7,28.2c0.5,0.2,0.6,0.6,0.3,1.1c-0.1,0-0.1-0.1-0.2-0.1c0-0.4-0.2-0.6-0.4-0.9
	C44.5,28.1,44.6,28.2,44.7,28.2z"/>
<path class="st17" d="M54.9,30.4c0,0-0.1-0.1-0.1-0.1c0.2-0.5,0.4-1.1,0.6-1.6c0.1-0.1,0.2-0.2,0.2,0C55.4,29.2,55.2,29.8,54.9,30.4
	z"/>
<path class="st13" d="M41,29.7c0,0-0.1,0-0.1,0c0.1-0.4,0.1-0.7-0.2-1c0-0.1,0.1-0.1,0.2-0.1C41.5,28.8,41.5,29.2,41,29.7z"/>
<path class="st18" d="M34.5,29.6L34.5,29.6L34.5,29.6c-0.2-0.1-0.1-0.2-0.1-0.3c0-0.3-0.1-0.4-0.2-0.6c0.1-0.1,0.2-0.1,0.3-0.1
	C34.9,28.8,35,29.2,34.5,29.6z"/>
<path class="st19" d="M92,30.4c-0.1-0.1-0.1-0.2-0.2-0.3c0.2,0.1,0.2-0.1,0.2-0.2c0.2-0.4,0.3-0.8,0.5-1.2c0,0,0.1,0.1,0.1,0.1
	C92.4,29.4,92.2,29.9,92,30.4z"/>
<path class="st16" d="M99,29.6C98.9,29.6,98.9,29.6,99,29.6c-0.1-0.4-0.1-0.7-0.4-1c0.1-0.1,0.2-0.1,0.3,0
	C99.3,28.8,99.4,29.1,99,29.6z"/>
<path class="st20" d="M89.4,30.5c0.1,0.3,0.3,0.2,0.5,0.1c0.2,0,0.4,0.1,0.6-0.1c0.1,0,0.1,0,0.1,0.1c0,0.2-0.2,0.1-0.3,0.1
	c-0.2,0-0.3,0-0.5,0c-0.2,0-0.3,0-0.5,0C89.3,30.6,89.3,30.6,89.4,30.5z"/>
<path class="st17" d="M70.4,30.1C70.4,30,70.3,30,70.4,30.1c0-0.3,0.1-0.5-0.1-0.7c0.1-0.1,0.2-0.1,0.3,0
	C70.7,29.6,70.5,29.9,70.4,30.1z"/>
<path class="st21" d="M69.2,28.3C69.2,28.3,69.2,28.2,69.2,28.3c0.1-0.2,0.3-0.2,0.5-0.1c0.2,0,0.2,0.2,0.2,0.5
	C69.7,28.3,69.5,28.1,69.2,28.3z"/>
<path class="st22" d="M46.4,30.6c0.2,0.1,0.3,0.1,0.5,0c0.2,0,0.4,0,0.6,0c0,0,0,0.1,0,0.1c-0.4,0-0.8,0-1.2,0
	C46.3,30.7,46.4,30.6,46.4,30.6z"/>
<path class="st23" d="M79.4,28.7c-0.1-0.1-0.2-0.1-0.3-0.1c0,0-0.1,0-0.1,0c0-0.1,0-0.1,0.1-0.1c0.3,0,0.7,0,1,0
	c0,0.2-0.2,0.1-0.2,0.1C79.7,28.7,79.6,28.7,79.4,28.7z"/>
<path class="st23" d="M44.7,28.2c-0.1,0-0.2,0-0.2,0.1c-0.1,0.1-0.2,0.1-0.4,0c-0.1-0.1-0.2-0.1-0.3,0c-0.1,0-0.1-0.1-0.2-0.2
	C44,28.2,44.3,28.1,44.7,28.2z"/>
<path class="st24" d="M41,28.6c-0.1,0-0.1,0.1-0.2,0.1c-0.1,0.1-0.3,0.1-0.4,0c-0.1-0.1-0.2-0.1-0.3,0c-0.1,0-0.1-0.1-0.2-0.2
	C40.3,28.5,40.6,28.5,41,28.6z"/>
<path class="st25" d="M31.8,28.7c-0.1-0.1-0.2-0.1-0.3-0.1c0,0-0.1,0-0.1,0c-0.1-0.1,0-0.1,0.1-0.1c0.3,0,0.7,0,1,0
	c0,0.2-0.2,0.1-0.2,0.1C32.1,28.7,32,28.7,31.8,28.7z"/>
<path class="st24" d="M98.8,28.6c-0.1,0-0.2,0-0.2,0.1c-0.1,0.1-0.2,0.1-0.4,0c-0.1-0.1-0.2-0.1-0.3-0.1c0,0-0.1,0-0.1,0
	c-0.1,0-0.1-0.1,0-0.1C98.2,28.5,98.5,28.4,98.8,28.6z"/>
<path class="st26" d="M34.4,28.6c-0.1,0-0.2,0-0.2,0.1c-0.1,0.1-0.3,0.1-0.4,0c-0.1-0.1-0.2-0.1-0.3-0.1c0,0-0.1,0-0.1,0
	C33.7,28.5,34.1,28.4,34.4,28.6z"/>
<path class="st23" d="M46.7,28.7c-0.1-0.1-0.2-0.1-0.3-0.1c0,0-0.1,0-0.1,0c-0.1-0.1,0-0.1,0.1-0.1c0.3,0,0.7,0,1,0
	c0,0.2-0.2,0.1-0.2,0.1C47,28.7,46.8,28.7,46.7,28.7z"/>
<path class="st27" d="M36.2,28.7c-0.1-0.1-0.2-0.1-0.2,0.1c0,0.2,0,0.3,0,0.5c-0.1-0.2,0.1-0.5-0.2-0.7c0.2,0,0.4,0,0.6,0
	C36.3,28.6,36.3,28.6,36.2,28.7z"/>
<path class="st28" d="M101.7,28.7c-0.1,0.1-0.2,0.3-0.4,0.3c-0.1-0.2,0.2-0.2,0.2-0.4C101.6,28.6,101.7,28.5,101.7,28.7z"/>
<path class="st29" d="M100.6,28.8c0-0.1,0-0.4-0.3-0.2c-0.1,0-0.1-0.1-0.2-0.1c0.2,0,0.4,0,0.6,0C100.7,28.6,100.6,28.7,100.6,28.8z
	"/>
<path class="st30" d="M58.6,30.5c0.1,0.2,0.2,0.2,0.3,0.1c0.1,0,0.1,0.1,0.2,0.1c-0.2,0-0.5,0-0.7,0C58.5,30.6,58.6,30.6,58.6,30.5z
	"/>
<path class="st31" d="M43.8,30.6c0.1,0.1,0.2,0.1,0.3,0c0.1,0,0.1,0.1,0.2,0.1c-0.2,0-0.5,0-0.8,0C43.7,30.7,43.7,30.6,43.8,30.6z"
	/>
<path class="st29" d="M89.6,28.8c0-0.1,0-0.2-0.1-0.2c-0.1,0-0.1,0.1-0.1,0.2c-0.1-0.1-0.1-0.1-0.2-0.2c0.2,0,0.4,0,0.6,0
	C89.7,28.6,89.7,28.7,89.6,28.8z"/>
<path class="st32" d="M52.8,30.4C52.8,30.5,52.8,30.5,52.8,30.4c0,0.2-0.2,0.3-0.4,0.3c0,0-0.1-0.1-0.1-0.1
	C52.4,30.5,52.5,30.4,52.8,30.4z"/>
<path class="st29" d="M91.4,28.3c-0.1-0.1-0.3-0.1-0.4-0.1c0,0-0.1,0-0.1,0c0,0,0,0,0-0.1c0.2,0,0.4,0,0.6,0c0,0,0.1,0,0.1,0
	C91.5,28.2,91.4,28.3,91.4,28.3z"/>
<path class="st33" d="M25.2,28.3c-0.1-0.1-0.2-0.1-0.3,0c-0.1,0-0.1-0.1-0.2-0.1c0.3,0,0.5,0,0.7,0C25.3,28.2,25.2,28.3,25.2,28.3z"
	/>
<path class="st34" d="M55.9,30.6c0.3,0.2,0.2-0.1,0.3-0.2c0,0.1,0,0.2,0,0.3c-0.2,0-0.3,0-0.6,0C55.8,30.7,55.8,30.6,55.9,30.6z"/>
<path class="st34" d="M40.1,30.5c0,0.2,0.2,0.1,0.3,0.2c0,0,0.1,0,0.1,0c0,0,0,0,0,0c-0.2,0-0.4,0-0.6,0C40,30.6,40,30.6,40.1,30.5z
	"/>
<path class="st34" d="M60.4,30.7c0.1,0,0.3,0.1,0.3-0.2c0.1,0.1,0.1,0.2,0.2,0.2C60.7,30.7,60.6,30.7,60.4,30.7
	C60.3,30.7,60.3,30.7,60.4,30.7C60.3,30.6,60.4,30.7,60.4,30.7z"/>
<path class="st34" d="M86,30.7c0.1,0,0.3,0.1,0.3-0.2c0.1,0.1,0.1,0.1,0.2,0.2C86.3,30.7,86.2,30.7,86,30.7
	C85.9,30.7,85.9,30.7,86,30.7C85.9,30.6,86,30.7,86,30.7z"/>
<path class="st35" d="M100.3,30.5c0,0.2,0.2,0.2,0.3,0.2c0,0,0.1,0,0.1,0c0.1,0,0,0.1,0,0.1c-0.2,0-0.4,0-0.6,0
	C100.2,30.6,100.3,30.6,100.3,30.5z"/>
<path class="st31" d="M24.8,30.6c0.1,0.2,0.3,0.1,0.4,0.1c0,0,0.1,0,0.1,0c0,0,0,0,0,0c-0.2,0-0.5,0-0.7,0
	C24.7,30.7,24.8,30.6,24.8,30.6z"/>
<path class="st36" d="M72.8,30.6c0.1,0.2,0.3,0.1,0.4,0.1c0,0,0.1,0,0.1,0c0.1,0,0,0.1,0,0.1c-0.2,0-0.4,0-0.7,0
	C72.7,30.7,72.8,30.6,72.8,30.6z"/>
<path class="st17" d="M38.6,28.6c-0.1,0-0.1,0-0.2,0.1c-0.2,0.1-0.3,0-0.5,0c-0.1,0-0.1-0.1-0.1-0.1C38.1,28.5,38.4,28.5,38.6,28.6z
	"/>
<path class="st33" d="M54.2,28.6c-0.1,0-0.3-0.1-0.3,0.1c-0.1,0-0.1-0.1-0.3-0.1C53.8,28.5,54,28.5,54.2,28.6
	C54.2,28.5,54.2,28.5,54.2,28.6C54.2,28.6,54.2,28.6,54.2,28.6z"/>
<path class="st34" d="M97.9,30.7c0.1,0,0.3,0,0.3-0.1c0.1,0,0.1,0.1,0.3,0.2C98.2,30.7,98,30.7,97.9,30.7
	C97.8,30.7,97.8,30.7,97.9,30.7C97.8,30.6,97.9,30.7,97.9,30.7z"/>
<path class="st35" d="M82.2,30.6c0.1,0.1,0.2,0.1,0.2,0c0.1,0,0.1,0.1,0.2,0.1c-0.2,0-0.4,0-0.7,0C82.1,30.7,82.2,30.6,82.2,30.6z"
	/>
<path class="st4" d="M76.2,30.6c0.1,0.1,0.2,0.1,0.2,0c0.1,0,0.1,0.1,0.2,0.1c-0.2,0-0.4,0-0.7,0C76.1,30.7,76.1,30.6,76.2,30.6z"/>
<path class="st13" d="M63.2,28.6c-0.1,0-0.1,0-0.2,0.1c-0.2,0.1-0.3,0-0.5,0c-0.1,0-0.1-0.1-0.1-0.1C62.7,28.5,62.9,28.5,63.2,28.6z
	"/>
<path class="st37" d="M64.5,30.6c0.1,0.1,0.2,0.1,0.2,0c0.1,0,0.1,0.1,0.2,0.1c-0.2,0-0.4,0-0.7,0C64.4,30.7,64.5,30.6,64.5,30.6z"
	/>
<path class="st38" d="M95.4,28.8C95.3,28.8,95.3,28.8,95.4,28.8c0-0.2,0.2-0.3,0.3-0.3c0,0,0.1,0,0.1,0.1
	C95.7,28.8,95.6,28.9,95.4,28.8z"/>
<path class="st27" d="M55.7,28.7c-0.1-0.1-0.1,0-0.2,0c0.1-0.1-0.2-0.1,0-0.1c0.1,0,0.3,0,0.5,0C55.8,28.6,55.7,28.6,55.7,28.7z"/>
<path class="st34" d="M35.9,30.7c0.1,0,0.3,0,0.4,0c0,0,0.1,0,0.1,0c0,0,0,0,0,0.1C36.2,30.7,36,30.7,35.9,30.7
	C35.8,30.7,35.8,30.7,35.9,30.7C35.8,30.7,35.8,30.7,35.9,30.7z"/>
<path class="st24" d="M60.7,28.7c-0.1-0.1-0.2-0.1-0.3-0.1c0,0,0,0,0,0c0,0-0.1-0.1,0-0.1c0.2,0,0.4,0,0.6,0
	C60.8,28.6,60.8,28.6,60.7,28.7z"/>
<path class="st34" d="M29.7,30.7c0.1,0,0.3,0,0.4,0c0,0,0.1,0,0.1,0c0,0,0,0,0,0.1C30,30.7,29.8,30.7,29.7,30.7
	C29.6,30.7,29.6,30.7,29.7,30.7C29.6,30.7,29.6,30.7,29.7,30.7z"/>
<path class="st39" d="M63.4,30.3C63.4,30.4,63.5,30.4,63.4,30.3c0,0.2-0.1,0.3-0.3,0.3c0,0,0,0,0,0C63.1,30.4,63.2,30.4,63.4,30.3z"
	/>
<path class="st40" d="M84.7,30.7c0.1,0,0.3,0.1,0.4-0.1c0.1,0,0.2,0.1,0.2,0.1C85.1,30.7,84.9,30.8,84.7,30.7z"/>
<path class="st41" d="M75.2,28.6c-0.1,0-0.2,0-0.3,0.1c0,0-0.1-0.1-0.2-0.2C74.9,28.5,75.1,28.5,75.2,28.6
	C75.3,28.5,75.3,28.5,75.2,28.6C75.3,28.6,75.3,28.6,75.2,28.6z"/>
<path class="st24" d="M86.3,28.7c-0.1-0.1-0.2-0.1-0.3-0.1c0,0,0,0,0,0c0,0,0,0-0.1,0c0.2-0.1,0.4-0.1,0.5,0
	C86.5,28.6,86.3,28.6,86.3,28.7z"/>
<path class="st42" d="M28.3,28.7c-0.1-0.1-0.2-0.1-0.3-0.1c0,0-0.1,0-0.1,0c0,0,0,0,0,0c0.2,0,0.4,0,0.5,0
	C28.4,28.6,28.3,28.6,28.3,28.7z"/>
<path class="st42" d="M50.3,28.7c-0.1-0.1-0.2-0.1-0.3-0.1c0,0-0.1,0-0.1,0c0,0,0,0,0-0.1c0.1,0,0.3,0,0.4,0c0,0,0.1,0,0.1,0
	C50.4,28.6,50.4,28.6,50.3,28.7z"/>
<path class="st15" d="M47.1,28.7c0.1,0,0.1-0.1,0.2-0.1c0.2,0,0.1,0.1,0.1,0.2c0,0.1-0.1,0-0.1,0C47.2,28.7,47.2,28.7,47.1,28.7z"/>
<path class="st43" d="M26.3,30.7c0.1,0,0.2,0,0.3-0.1c0.1,0,0.1,0.1,0.2,0.2C26.5,30.7,26.4,30.7,26.3,30.7
	C26.2,30.7,26.2,30.7,26.3,30.7C26.2,30.7,26.2,30.7,26.3,30.7z"/>
<path class="st44" d="M48.3,30.7c0.1,0,0.2,0,0.3-0.1c0.1,0,0.1,0.1,0.2,0.2C48.5,30.7,48.4,30.7,48.3,30.7
	C48.2,30.7,48.1,30.7,48.3,30.7C48.2,30.7,48.3,30.7,48.3,30.7z"/>
<path class="st35" d="M45.5,30.7c0.1,0,0.2,0,0.3-0.1c0.1,0,0.2,0.1,0.2,0.1C45.8,30.7,45.6,30.8,45.5,30.7z"/>
<path class="st29" d="M94.4,28.2c-0.1,0-0.2,0-0.3,0c0,0-0.1,0-0.1,0c0,0-0.1-0.1,0-0.1C94.1,28.1,94.3,28.1,94.4,28.2
	C94.5,28.1,94.5,28.2,94.4,28.2C94.4,28.2,94.4,28.2,94.4,28.2z"/>
<path class="st24" d="M101.7,28.7c-0.1-0.1-0.2-0.1-0.3-0.1c0.1-0.2,0.3,0,0.4-0.1C101.9,28.6,101.8,28.6,101.7,28.7z"/>
<path class="st45" d="M66.6,28.6c-0.1,0-0.2,0-0.3,0c0,0-0.1,0-0.1,0c0,0,0,0,0-0.1C66.3,28.5,66.5,28.5,66.6,28.6
	C66.6,28.5,66.6,28.5,66.6,28.6C66.6,28.6,66.6,28.6,66.6,28.6z"/>
<path class="st46" d="M96.3,30.7c-0.1,0-0.1,0-0.2-0.1c0.1-0.2,0.2-0.2,0.4-0.1c0,0,0.1,0,0.1,0.1C96.5,30.7,96.4,30.7,96.3,30.7z"
	/>
<path class="st47" d="M62.4,28.5C62.4,28.6,62.5,28.6,62.4,28.5c0,0.2-0.1,0.3-0.2,0.2c0,0-0.1,0-0.1-0.1
	C62.2,28.6,62.3,28.5,62.4,28.5z"/>
<path class="st21" d="M44.9,29.1c0,0.1,0,0.1,0.1,0.2c0,0.1-0.1,0.2-0.2,0.2c0,0-0.1,0-0.1,0C44.7,29.3,44.7,29.2,44.9,29.1z"/>
<path class="st48" d="M99.4,30.7c0.1,0,0.2,0,0.2-0.1c0.1,0,0.2,0.1,0.2,0.1C99.7,30.7,99.6,30.8,99.4,30.7z"/>
<path class="st49" d="M37.9,28.5C37.9,28.6,37.9,28.6,37.9,28.5c0,0.2-0.1,0.3-0.2,0.2c0,0-0.1,0-0.1-0.1
	C37.6,28.6,37.8,28.5,37.9,28.5z"/>
<path class="st45" d="M78.2,28.6c-0.1,0-0.2,0-0.3,0c0,0-0.1,0-0.1,0c0,0,0,0,0-0.1C78,28.5,78.1,28.5,78.2,28.6
	C78.3,28.5,78.3,28.5,78.2,28.6C78.3,28.6,78.2,28.6,78.2,28.6z"/>
<path class="st50" d="M41.6,30.7c0.1,0,0.1,0,0.2-0.1c0.1,0,0.2,0.1,0.3,0.1C41.9,30.7,41.7,30.8,41.6,30.7z"/>
<path class="st39" d="M51.8,28.5C51.9,28.6,51.9,28.6,51.8,28.5c0,0.2-0.1,0.3-0.2,0.2c0,0-0.1-0.1-0.1-0.1
	C51.6,28.6,51.7,28.6,51.8,28.5z"/>
<path class="st51" d="M90.5,30.6C90.5,30.6,90.5,30.5,90.5,30.6c-0.1-0.2,0-0.3,0-0.2C90.7,30.4,90.6,30.5,90.5,30.6z"/>
<path class="st14" d="M32.2,28.7c0.1,0,0.1-0.1,0.2-0.1c0,0,0.1,0,0.1,0c0,0.1,0,0.1-0.1,0.1C32.4,28.7,32.3,28.7,32.2,28.7z"/>
<path class="st52" d="M70.6,29.4c-0.1,0-0.2,0-0.3,0c0,0-0.1,0-0.1-0.1C70.3,29.3,70.5,29.2,70.6,29.4z"/>
<path class="st8" d="M79.9,28.7c0.1,0,0.2-0.1,0.2-0.1c0.1,0,0.1,0.1,0.1,0.1C80.1,28.7,80,28.7,79.9,28.7z"/>
<path class="st29" d="M80.2,30.7C80.2,30.6,80.1,30.6,80.2,30.7c0-0.1,0-0.2,0-0.3C80.3,30.5,80.3,30.6,80.2,30.7z"/>
<path class="st53" d="M71,18.2c0.4,0.9,0.7,1.9,1.1,2.8c0.1,0.2,0,0.2-0.2,0.2c-0.6,0-1.2,0-1.9,0c-0.1,0-0.2,0-0.2-0.2
	c0.3-1,0.7-1.9,1-2.9C70.9,18.2,71,18.2,71,18.2z"/>
<path class="st53" d="M34.2,18.2c0.1,0.1,0.2,0.4,0.2,0.5c0.3,0.7,0.5,1.5,0.8,2.2c0.1,0.2,0,0.3-0.2,0.3c-0.6,0-1.2,0-1.8,0
	c-0.1,0-0.3,0-0.2-0.2C33.5,20.1,33.8,19.2,34.2,18.2C34.1,18.2,34.2,18.2,34.2,18.2z"/>
<path class="st54" d="M56.4,29.8c0.1-0.3,0.2-0.6,0.3-0.8c0.2,0.2,0.2,0.5,0.3,0.7c0.1,0.1,0,0.2-0.1,0.2
	C56.7,29.8,56.6,29.8,56.4,29.8z"/>
<path class="st55" d="M44.9,29.1c-0.1,0.1-0.1,0.3-0.3,0.4c0,0-0.1,0-0.1,0c-0.4,0.1-0.5-0.1-0.5-0.5c0-0.2,0-0.5,0-0.7
	c0.1,0,0.3,0,0.4,0C44.9,28.4,44.9,28.8,44.9,29.1z"/>
<path class="st56" d="M33.8,28.7c0.1,0,0.3,0,0.4,0c0.4,0.2,0.4,0.6,0.3,0.9c-0.1,0-0.1,0.1-0.2,0.1c-0.4,0.1-0.5-0.1-0.5-0.5
	C33.8,29,33.8,28.8,33.8,28.7z"/>
<path class="st55" d="M37.6,28.7c0.1,0,0.2-0.1,0.3-0.1c0.2,0,0.3,0,0.5,0.1c0.7,0.5,0.8,1.3,0.1,1.9c-0.6,0.1-1,0-1.2-0.4
	C37.2,29.7,37.3,29.1,37.6,28.7z"/>
<path class="st53" d="M62.2,28.7c0.1,0,0.2-0.1,0.3-0.1c0.2,0,0.4,0,0.5,0.1c0.6,0.4,0.7,1,0.4,1.7c-0.1,0.1-0.2,0.1-0.3,0.3
	c-1,0-1.5-0.5-1.2-1.4C61.9,29,62,28.9,62.2,28.7z"/>
<path class="st53" d="M51.6,28.8c0.1,0,0.2-0.1,0.3-0.1c0.4,0,0.8,0.1,1,0.5c0.2,0.5,0.2,1-0.1,1.4c-0.2,0.1-0.3,0.1-0.5,0.2
	c-0.4,0-0.8-0.2-0.9-0.7C51.2,29.5,51.2,29.1,51.6,28.8z"/>
<path class="st55" d="M96.5,30.5c-0.1,0-0.3,0.1-0.4,0.1c-0.9-0.2-1.3-1-0.7-1.8c0.1-0.1,0.3-0.1,0.4-0.2c0.6,0,0.9,0.1,1,0.5
	C97,29.6,96.9,30.1,96.5,30.5z"/>
<path class="st57" d="M98.2,28.7c0.1,0,0.3,0,0.4,0c0.4,0.2,0.4,0.4,0.3,0.9c-0.2,0.2-0.4,0.1-0.6,0.1C98.1,29.4,98.2,29,98.2,28.7z
	"/>
<path class="st58" d="M40.3,28.7c0.1-0.1,0.3,0,0.4,0c0.4,0.3,0.4,0.5,0.1,1c-0.2,0-0.3,0-0.5,0C40.3,29.4,40.4,29,40.3,28.7z"/>
</svg>
