<?xml version="1.0" encoding="utf-8"?>
<!-- Generator: Adobe Illustrator 24.0.2, SVG Export Plug-In . SVG Version: 6.00 Build 0)  -->
<svg version="1.1" id="Layer_1" xmlns="http://www.w3.org/2000/svg" xmlns:xlink="http://www.w3.org/1999/xlink" x="0px" y="0px"
	 viewBox="0 0 77.5 17.1" style="enable-background:new 0 0 77.5 17.1;" xml:space="preserve">
<style type="text/css">
	.st0{fill:#404040;}
</style>
<g>
	<path class="st0" d="M29.2,0.4c-0.3,0.6-0.3,1.2-0.3,1.7c0,3.5,0,6.9,0,10.4c0,0.1,0,0.2,0,0.3c-0.1,0-0.1,0-0.1,0
		c-0.4,0.1-0.6-0.1-0.7-0.4c-1.2-2.3-2.5-4.6-3.8-6.9c0-0.1-0.1-0.2-0.2-0.2c0,0.1,0,0.2,0,0.3c0,2,0,4,0,6c0,0.5,0,1.1,0.3,1.6
		c-0.9,0.1-1.7,0.2-2.6,0.2c0,0,0-0.1,0-0.1c0.3-0.5,0.3-1,0.3-1.5c0-3.1,0-6.1,0-9.2c0-0.6,0.1-1.2-0.3-1.8
		c0.7-0.1,1.4-0.1,2.1-0.2c0.1,0,0.2,0.1,0.2,0.2c0.7,1.3,1.4,2.7,2,4c0.2,0.4,0.4,0.9,0.7,1.4c0-0.1,0-0.2,0-0.3c0-1.5,0-2.9,0-4.4
		c0-0.3-0.1-0.7-0.2-1.1C27.5,0.5,28.3,0.4,29.2,0.4z"/>
	<path class="st0" d="M65.3,14.7c-0.8-0.1-1.6-0.2-2.5-0.4c0.5-0.7,0.3-1.4,0.3-2.1c0-2.8,0-5.6,0-8.4c0-0.7,0.1-1.3-0.3-2
		C63.3,1.9,63.7,2,64.2,2c0.6,0,0.9,0.3,1.2,0.9c0.8,1.8,1.6,3.5,2.4,5.3c0,0.1,0.1,0.1,0.1,0.2c0-0.1,0-0.2,0-0.2
		c0-1.3,0-2.6,0-3.9c0-0.5,0-1.1-0.3-1.6c0.9,0.2,1.7,0.3,2.6,0.5c-0.4,0.7-0.3,1.4-0.3,2c0,3.3,0,6.7,0,10c0,0.1,0,0.2,0,0.3
		c-0.5,0-0.6,0-0.7-0.4c-1.3-2.7-2.6-5.4-3.8-8.1c0-0.1-0.1-0.2-0.2-0.3c0,0.1,0,0.2,0,0.3c0,2.2,0,4.4,0,6.6
		C65.1,13.9,65.2,14.3,65.3,14.7z"/>
	<path class="st0" d="M61.2,7.9c0,1.2-0.1,2.3-0.6,3.4c-0.1,0.3-0.3,0.6-0.5,0.9c-1,1.6-2.8,2-4.4,1.1c-1-0.5-1.6-1.4-2.1-2.4
		C53,9.3,52.9,7.6,53,5.9C53,5,53.2,4.1,53.6,3.3c0.1-0.3,0.3-0.6,0.5-0.8c1.1-1.6,3-2,4.6-0.9c1,0.6,1.5,1.6,1.9,2.6
		C61.1,5.4,61.2,6.6,61.2,7.9z M59,7.3c0-0.4-0.1-1-0.1-1.7c0-0.3-0.1-0.6-0.2-0.8c-0.2-0.6-0.4-1.2-0.8-1.7
		c-0.6-0.6-1.3-0.6-1.8,0.1c-0.2,0.4-0.5,0.8-0.6,1.2c-0.5,1.8-0.4,3.7,0,5.5c0.1,0.6,0.4,1.2,0.8,1.7c0.6,0.6,1.3,0.6,1.8-0.1
		c0.2-0.3,0.4-0.6,0.5-0.9C58.9,9.6,59,8.6,59,7.3z"/>
	<path class="st0" d="M31,12.8c0.4-0.6,0.3-1.3,0.4-1.9c0-2.9,0-5.7,0-8.6c0-0.7,0.1-1.3-0.3-2c0.2,0,0.4,0,0.5,0
		c1,0,1.9-0.1,2.9-0.1c1.2,0,2.2,0.5,2.8,1.5c0.5,0.8,0.8,1.7,0.9,2.6C38.5,5.8,38.5,7.4,38,9c-0.3,1-0.7,1.9-1.5,2.6
		c-0.7,0.6-1.5,1-2.4,1C33.2,12.7,32.1,12.7,31,12.8z M33.4,1.8c0,3.1,0,6.2,0,9.3c0.7,0.1,1.4-0.1,1.8-0.7c0.4-0.5,0.6-1,0.7-1.6
		c0.4-1.7,0.4-3.4,0.1-5.1c-0.1-0.5-0.3-1-0.5-1.4c-0.1-0.3-0.4-0.5-0.7-0.5C34.3,1.8,33.8,1.8,33.4,1.8z"/>
	<path class="st0" d="M15.8,14.2c-0.6,0.1-1.1,0.2-1.7,0.2c-0.5,0.1-0.5,0.1-0.7-0.4c-0.5-1.4-0.9-2.8-1.4-4.3
		c0-0.1-0.1-0.2-0.1-0.3c-0.3,0-0.5,0.1-0.8,0.1c0,0.1,0,0.2,0,0.3c0,1.1,0,2.2,0,3.4c0,0.5-0.1,1.1,0.3,1.6
		C10.7,15,9.9,15.1,9,15.2c0.4-0.7,0.3-1.3,0.3-2c0-2.9,0-5.7,0-8.6c0-0.6,0.1-1.3-0.3-1.9c0.5-0.1,0.9-0.2,1.3-0.2
		c0.8-0.1,1.6-0.3,2.4-0.4c1.4-0.2,2.6,0.7,2.8,2.1c0.3,1.9-0.2,3.4-1.7,4.7c-0.1,0-0.1,0.2-0.1,0.2c0.5,1.4,1.1,2.8,1.7,4.2
		C15.5,13.6,15.7,13.9,15.8,14.2z M11.3,7.9c0.2,0,0.3-0.1,0.5-0.1c0.5-0.1,1-0.3,1.3-0.7c0.5-0.7,0.6-1.5,0.4-2.3
		c-0.1-0.4-0.4-0.7-0.9-0.8c-0.4-0.1-0.8,0-1.3,0.1C11.3,5.4,11.3,6.7,11.3,7.9z"/>
	<path class="st0" d="M6.6,6C6.2,5.8,5.9,5.5,5.5,5.5C4.6,5.2,3.8,5.6,3.2,6.3c-0.5,0.6-0.7,1.3-0.9,2C2.1,9.7,2,11,2.4,12.4
		c0.2,0.7,0.5,1.3,1.1,1.8c0.5,0.4,1,0.4,1.4,0.1C5,14.2,5.1,14,5.1,13.8c0-1,0-2,0-3c0-0.5,0.1-1-0.3-1.5C5.6,9.2,6.4,9,7.3,8.8
		C6.9,9.4,7,10.1,7,10.7c0,1,0,2,0,3c0,0.3-0.1,0.6-0.2,0.8c-0.5,1-1.4,1.5-2.4,1.8c-1.2,0.3-2.2-0.1-3-1c-0.7-0.8-1-1.7-1.2-2.8
		C-0.2,10.4,0.1,8.4,1,6.5c0.6-1.2,1.4-2.2,2.7-2.7c0.7-0.3,1.4-0.4,2.2-0.3c0.1,0,0.1,0,0.2,0c0.6,0.2,0.6,0.2,0.6,0.8
		C6.6,4.9,6.6,5.4,6.6,6z"/>
	<path class="st0" d="M72,3.4c1.7,0.4,3.5,0.8,5.2,1.1c0,0.7,0,1.3,0,2c-0.9-0.8-2-0.8-3-1.1c0,0.1,0,0.2,0,0.3c0,0.9,0,1.9,0,2.8
		c0,0.2,0.1,0.3,0.3,0.3C75,9,75.6,9.1,76.2,8.9c0,0.7,0,1.4,0,2.1c-0.6-0.5-1.3-0.6-2-0.7c0,0.1,0,0.2,0,0.3c0,1.3,0,2.6,0,3.9
		c0,0.2,0.1,0.3,0.3,0.3c0.6,0.1,1.1,0.3,1.7,0.4c0.3,0.1,0.6,0,1,0c0.1,0,0.3-0.1,0.4-0.1c0,0.7,0,1.4,0,2
		c-1.8-0.4-3.7-0.8-5.5-1.2c0,0,0,0,0,0c0.3-0.4,0.3-0.9,0.3-1.4c0-3,0-5.9,0-8.9C72.2,4.9,72.3,4.1,72,3.4C72,3.5,72,3.4,72,3.4z"
		/>
	<path class="st0" d="M43.9,2.5c-0.1-0.1-0.2-0.3-0.3-0.4c-0.2-0.2-0.5-0.4-0.8-0.5c-0.8-0.3-1.5,0.2-1.4,1c0,0.7,0.4,1.3,0.8,1.8
		c0.4,0.5,0.9,1,1.3,1.6c0.6,0.8,1,1.7,1.2,2.8c0.1,0.6,0.1,1.3-0.1,1.9c-0.4,1.2-1.4,1.9-2.7,2c-0.7,0-1.4,0-2-0.3
		c-0.2-0.1-0.4-0.3-0.4-0.6c0-0.6,0-1.2,0-1.8c0.1,0.1,0.1,0.2,0.2,0.3c0.3,0.5,0.8,0.9,1.4,0.9c0.9,0.1,1.6-0.4,1.7-1.3
		c0.1-0.6,0-1.1-0.3-1.6c-0.3-0.7-0.8-1.3-1.4-1.9c-0.6-0.6-1.1-1.3-1.4-2c-0.3-0.7-0.4-1.4-0.3-2.1c0.1-1.1,0.9-1.9,2.1-2.1
		c0.8-0.2,1.5-0.1,2.3,0.1c0.2,0,0.2,0.1,0.2,0.3C43.9,1.2,43.9,1.8,43.9,2.5z"/>
	<path class="st0" d="M45.5,2.5c0-0.8,0-1.5,0-2.3c2.2,0.1,4.5,0.3,6.7,0.4c0,0.8,0,1.5,0,2.3c-0.7-0.6-1.5-0.7-2.4-0.7
		c0,0.1,0,0.2,0,0.3c0,3,0,6.1,0,9.1c0,0.4,0.1,0.8,0.3,1.2c0,0,0,0.1,0.1,0.2c-0.9-0.1-1.8-0.1-2.6-0.2c0,0,0,0,0,0
		c0.4-0.5,0.3-1.1,0.3-1.7c0-2.9,0-5.8,0-8.7c0-0.1,0-0.2,0-0.3C47,2,46.2,1.9,45.5,2.5z"/>
	<path class="st0" d="M17.5,1.4c0.8-0.1,1.6-0.2,2.4-0.3c0,0,0,0,0,0.1c-0.3,0.5-0.3,1-0.3,1.6c0,3,0,6,0,9c0,0.6-0.1,1.3,0.3,1.9
		c-0.9,0.1-1.7,0.2-2.6,0.3c0.1-0.1,0.1-0.2,0.1-0.3c0.1-0.3,0.2-0.6,0.2-0.9c0-3.4,0-6.8,0-10.2C17.7,2.2,17.6,1.8,17.5,1.4z"/>
</g>
</svg>
