<?xml version="1.0" encoding="utf-8"?>
<!-- Generator: Adobe Illustrator 24.0.2, SVG Export Plug-In . SVG Version: 6.00 Build 0)  -->
<svg version="1.1" id="Layer_1" xmlns="http://www.w3.org/2000/svg" xmlns:xlink="http://www.w3.org/1999/xlink" x="0px" y="0px"
	 viewBox="0 0 56 13" style="enable-background:new 0 0 56 13;" xml:space="preserve">
<style type="text/css">
	.st0{fill:#404040;}
	.st1{fill:#FFFFFF;}
</style>
<path class="st0" d="M0,0.2c0.1,0,0.1,0,0.2,0c1.9,0,3.9,0,5.8,0c0.1,0,0.2,0,0.2,0.1c0,0.5,0,1,0,1.5C6.2,1.9,6.2,2,6,2
	C5.6,2,5.1,2,4.7,2C4.5,2,4.5,2,4.5,2.2c0,2.7,0,5.4,0,8.1c0,0.1,0,0.1,0,0.2c0,0.3,0,0.3,0.3,0.3c0.4,0,0.9,0,1.3,0h0.1
	c0,0.6,0,1.2,0,1.9c-0.1,0-0.1,0-0.2,0c-1.9,0-3.8,0-5.7,0c-0.1,0-0.1,0-0.2,0c0-0.6,0-1.2,0-1.9c0.5,0,1,0,1.5,0c0-0.1,0-0.1,0-0.2
	c0-0.6,0-1.3,0-1.9c0-1.1,0-2.3,0-3.4c0-1,0-2,0-3.1C1.6,2,1.6,2,1.4,2C1,2,0.5,2,0.1,2C0,1.5,0,0.8,0,0.2z"/>
<path class="st1" d="M0,2.1c0.4,0,0.9,0,1.3,0c0.2,0,0.2,0,0.2,0.2c0,1,0,2,0,3.1s0,2.3,0,3.4c0,0.6,0,1.3,0,1.9c0,0,0,0.1,0,0.2
	c-0.5,0-1,0-1.5,0C0,7.9,0,5,0,2.1z"/>
<path class="st0" d="M18.5,2.1c-0.1,0-0.1,0-0.2,0c-1.3,0-2.6,0-3.8,0c-0.1,0-0.2,0-0.2,0.2c-0.1,0.7-0.2,1.3-0.3,2
	c0,0.1,0,0.1-0.1,0.1c-0.7,0-1.4,0-2.1,0l0,0c-0.1-1.3-0.2-2.7-0.2-4.1c3.7,0,7.4,0,11.1,0c0,0.1,0,0.2,0,0.3c0,0.5,0,1.1,0,1.6
	c0,0.1,0,0.1-0.1,0.2c-1,1.2-2,2.4-3.1,3.7c-1.2,1.4-2.4,2.8-3.6,4.2c-0.1,0.2-0.3,0.4-0.5,0.6c0.1,0,0.2,0,0.3,0c1.4,0,2.7,0,4.1,0
	c0.1,0,0.2,0,0.2-0.2c0.1-0.7,0.3-1.5,0.5-2.2c0-0.1,0-0.1,0.1-0.1c0.7,0,1.5,0,2.2,0l0,0c0,1.4,0,2.9,0,4.4c-0.1,0-0.1,0-0.2,0
	c-3.7,0-7.3,0-11,0c-0.2,0-0.2,0-0.2-0.2c0-0.6,0-1.2,0-1.8c0-0.1,0-0.2,0.1-0.3c1-1.2,2-2.4,3-3.6c0.9-1,1.7-2,2.6-3.1
	c0.4-0.5,0.9-1,1.3-1.5C18.4,2.2,18.5,2.1,18.5,2.1z"/>
<path class="st0" d="M55.3,4.5c-0.3-1.1-0.9-2.1-1.8-2.8c-1.3-0.9-2.7-1.4-4.3-1.4c-2.2,0-4.4,0-6.6,0c-0.2,0-0.2,0-0.2,0.1
	c0,0.5,0,1.1,0,1.6c0,0,0,0,0,0.1c0.5,0,1,0,1.5,0c0,3,0,5.9,0,8.8c-0.1,0-0.1,0-0.2,0c-0.4,0-0.8,0-1.2,0c-0.1,0-0.1,0-0.1,0.1
	c0,0.5,0,1.1,0,1.6c0,0,0,0,0,0.1c0.1,0,0.2,0,0.2,0c2.1,0,4.1,0,6.1,0c0.8,0,1.5,0,2.2-0.2c1-0.3,1.9-0.7,2.7-1.4
	c1.1-1,1.6-2.2,1.8-3.7c0.1-0.2,0.1-0.3,0.1-0.5c0-0.3,0-0.6,0-0.9c0,0,0,0,0-0.1C55.5,5.4,55.4,5,55.3,4.5z M52.5,7.8
	c-0.3,1-0.8,1.8-1.6,2.3c-0.1,0.1-0.3,0.2-0.5,0.3c-0.6,0.3-1.2,0.4-1.9,0.5C47.9,11,47.4,11,46.8,11c-0.2,0-0.2,0-0.2-0.2
	c0.1-1.5,0.1-2.9,0.1-4.3s0-2.8,0-4.1c0-0.2,0-0.2,0.1-0.2c0-0.1,0-0.1,0.2-0.1c0.8-0.1,1.6,0,2.5,0.2c0.8,0.2,1.5,0.5,2.1,1.1
	c0.5,0.5,0.9,1.2,1,1.9C52.7,6.2,52.7,7,52.5,7.8z"/>
<path class="st0" d="M39,5.7c-0.2-1.5-0.8-2.7-1.9-3.8c-1-1-2.1-1.6-3.5-1.8C33.4,0,33.2,0,33,0s-0.4,0-0.6-0.1
	C32.2,0,32.1,0,31.9,0c-1.4,0.2-2.6,0.7-3.6,1.7C26.7,3.2,26,5,26.2,7.1c0.1,1.1,0.4,2.2,1.1,3.1c1.1,1.5,2.6,2.4,4.4,2.7
	c0.2,0.1,0.5,0.1,0.7,0.1c0.2,0,0.4,0,0.6,0h0.1c0.2,0,0.5-0.1,0.7-0.1c1.5-0.3,2.7-1,3.7-2.2C38.7,9.3,39.2,7.6,39,5.7z M35.7,9
	c-0.7,1-1.7,1.5-2.9,1.5c0,0,0,0-0.1,0c0,0,0,0,0,0c-1.2,0.1-2.1-0.4-2.9-1.3c-0.5-0.6-0.8-1.3-0.9-2.1c0-0.2,0-0.4,0-0.6
	c0-0.9,0.2-1.7,0.8-2.5C30.3,3.2,31,2.7,32,2.6c1.1-0.2,2.1,0,3,0.7c0.8,0.6,1.2,1.4,1.4,2.4C36.6,6.9,36.4,8,35.7,9z"/>
</svg>
