<?xml version="1.0" encoding="utf-8"?>
<!-- Generator: Adobe Illustrator 24.0.2, SVG Export Plug-In . SVG Version: 6.00 Build 0)  -->
<svg version="1.1" id="Layer_1" xmlns="http://www.w3.org/2000/svg" xmlns:xlink="http://www.w3.org/1999/xlink" x="0px" y="0px"
	 viewBox="0 0 50 30" style="enable-background:new 0 0 50 30;" xml:space="preserve">
<style type="text/css">
	.st0{fill:#404040;}
</style>
<g>
	<path class="st0" d="M49.9,10.2c-0.1,0-0.1,0.1-0.2,0.1c-2.4,1.2-4.8,2.4-7.3,3.6c-2.7,1.3-5.3,2.6-8,3.9c-2.7,1.3-5.4,2.6-8,4
		c-2.7,1.3-5.4,2.6-8,4c-1,0.5-1.9,0.9-2.9,1.4c-1.5,0.7-3.1,1.3-4.8,1.8c-0.8,0.2-1.7,0.4-2.6,0.5c-0.7,0.1-1.3,0.1-2,0.1
		c-1,0-2-0.2-2.9-0.6c-1.5-0.7-2.6-1.9-3.1-3.5c-0.3-0.8-0.3-1.7-0.2-2.5c0.1-1.8,0.7-3.4,1.5-5c0.7-1.5,1.7-2.9,2.8-4.2
		c0.8-1,1.6-1.9,2.5-2.9c0.1-0.1,0.2-0.3,0.3-0.4c0,0,0-0.1,0.1-0.1c0,0,0.1,0,0.1,0c0,0,0,0.1,0,0.1c0,0,0,0.1,0,0.1
		c-0.6,1.2-0.9,2.5-1.2,3.9C6,15.2,6,16,6,16.8c0.1,0.9,0.3,1.8,0.7,2.6c0.4,0.6,0.8,1.1,1.4,1.6c0.4,0.3,0.8,0.4,1.3,0.5
		c0.6,0.1,1.2,0,1.8-0.1c1.2-0.2,2.3-0.5,3.4-0.9c4.6-1.4,9.2-2.8,13.9-4.1c1.6-0.5,3.2-1,4.9-1.4c0.1,0,0.1,0,0.2-0.1
		c-0.1-0.1-0.1,0-0.2,0c-0.6,0-1.3,0-1.9,0c0,0-0.1,0-0.1,0c-0.1,0-0.2-0.1-0.2-0.2c0-0.1,0-0.2,0-0.3c0.3-1,0.6-2,0.9-3
		c1-3.5,2-6.9,3-10.4c0.1-0.2,0.1-0.5,0.2-0.7c0.1-0.2,0.1-0.3,0.3-0.3c0.3,0,0.6,0,0.9,0c1.3,0,2.6,0,3.9,0c0.1,0,0.1,0,0.2,0
		c0.1,0,0.1,0.1,0.1,0.1c0,0,0,0.1,0,0.1c-0.2,0.6-0.4,1.2-0.5,1.8c-0.1,0.2-0.1,0.2-0.3,0.2c-0.7,0-1.3,0-2,0c-0.1,0-0.2,0-0.3,0
		c-0.2,0-0.3,0.1-0.3,0.3c-0.2,0.5-0.3,1.1-0.5,1.6c-0.1,0.5-0.3,0.9-0.4,1.4c0,0,0,0.1,0,0.1c0,0.2,0,0.3,0.2,0.3
		c0.6,0,1.2,0,1.8,0c0.1,0,0.3,0,0.4,0c0.2,0,0.2,0.1,0.2,0.2c-0.2,0.6-0.3,1.2-0.5,1.8c0,0.2-0.1,0.2-0.3,0.2c-0.5,0-1,0-1.5,0
		c-0.3,0-0.5,0-0.8,0c-0.3,0-0.4,0-0.5,0.3c-0.3,0.9-0.6,1.9-0.8,2.8c-0.1,0.3-0.2,0.5-0.2,0.8c-0.1,0.2,0,0.2,0.2,0.2
		c0.2,0,0.3,0,0.5,0c0.8,0,1.6,0,2.4,0c0.2,0,0.3,0.1,0.2,0.3c-0.1,0.3-0.2,0.6-0.3,0.9c0,0,0,0.1,0,0.2c0.1,0,0.1,0,0.2,0
		c1.1-0.3,2.2-0.7,3.3-1c2.7-0.8,5.4-1.6,8.1-2.4c0.2-0.1,0.4-0.1,0.6-0.2C49.8,10.1,49.9,10.1,49.9,10.2
		C49.9,10.1,49.9,10.2,49.9,10.2z"/>
	<path class="st0" d="M13.1,11.4c0-1.1,0.1-2.2,0.1-3.2c0-0.1,0-0.2,0-0.3c0-0.1,0-0.1-0.1-0.1c0,0-0.1,0-0.1,0
		c-0.2,0-0.2,0-0.3,0.2c-0.2,0.7-0.4,1.5-0.6,2.2c-0.5,1.5-0.9,3-1.4,4.6c0,0,0,0.1,0,0.1c0,0.2,0,0.2-0.2,0.2c-0.8,0-1.5,0-2.3,0
		c-0.2,0-0.2,0-0.2-0.2c0.4-1.2,0.7-2.4,1.1-3.6c1.1-3.6,2.1-7.2,3.2-10.8c0.1-0.2,0.1-0.2,0.2-0.2c0.3,0,0.6,0,0.8,0
		c0.6,0,1.2,0,1.8,0c0.2,0,0.2,0,0.2,0.2c0,0.5,0,1-0.1,1.5c0,0.5-0.1,1.1-0.1,1.6C15.1,4.3,15,5.1,15,6c0,0.2,0,0.4,0,0.5
		c0,0.1,0,0.2,0.2,0.2c0.1,0,0.1,0,0.2,0c0.1,0,0.1,0,0.2-0.1c0-0.1,0.1-0.2,0.1-0.3c0.6-2,1.2-3.9,1.8-5.9c0.1-0.2,0.1-0.2,0.3-0.2
		c0.7,0,1.4,0,2.1,0c0,0,0,0,0.1,0c0.2,0,0.2,0,0.2,0.3c-0.3,1.2-0.7,2.4-1.1,3.6c-1.1,3.6-2.1,7.2-3.2,10.8c0,0,0,0,0,0.1
		C15.7,15,15.7,15,15.6,15c-0.5,0-0.9,0-1.4,0c-0.3,0-0.6,0-1,0C13,15,13,15,13,14.8c0-0.6,0-1.2,0-1.8
		C13.1,12.5,13.1,11.9,13.1,11.4C13.1,11.4,13.1,11.4,13.1,11.4z"/>
	<path class="st0" d="M28.2,0.1c0.3,0,0.6,0,1,0c0,0,0.1,0,0.1,0c0.1,0,0.2,0,0.2,0.2c0,0.1,0,0.2-0.1,0.2c-0.3,1.1-0.7,2.2-1,3.3
		c0,0.1-0.1,0.2-0.1,0.4c0,0.1,0,0.2,0.1,0.2c0,0,0.1,0,0.1,0c0.1,0,0.2-0.1,0.3-0.2c0.3-0.5,0.6-0.9,1-1.4C30.4,2,31,1.1,31.6,0.3
		c0.1-0.1,0.2-0.2,0.4-0.2c0.6,0,1.3,0,1.9,0c0,0,0.1,0,0.1,0c0.1,0,0.2,0.1,0.1,0.2c0,0.1-0.1,0.1-0.1,0.2
		c-1.2,1.8-2.5,3.5-3.7,5.3c-0.1,0.2-0.3,0.4-0.4,0.5c-0.1,0.2-0.1,0.3-0.1,0.5c0.1,0.7,0.1,1.5,0.1,2.2c0.1,0.9,0.1,1.8,0.2,2.7
		c0,0.6,0.1,1.2,0.1,1.8c0,0.4,0,0.7,0.1,1.1c0,0,0,0.1,0,0.1c0,0.1,0,0.2-0.2,0.2c-0.2,0-0.4,0-0.6,0c-0.5,0-1,0-1.6,0
		c-0.2,0-0.2,0-0.2-0.2c0,0,0-0.1,0-0.1c0-1.1-0.1-2.2-0.1-3.3c0-0.8-0.1-1.6-0.1-2.4c0-0.2-0.1-0.3-0.3-0.3c-0.2,0-0.3,0-0.3,0.3
		c-0.3,1.1-0.7,2.3-1,3.4c-0.2,0.8-0.5,1.6-0.7,2.4c-0.1,0.2-0.1,0.2-0.3,0.2c-0.7,0-1.4,0-2.1,0c0,0-0.1,0-0.1,0
		c-0.1,0-0.1,0-0.1-0.1c0-0.1,0-0.2,0-0.3c0.3-1,0.6-2,0.9-3c1.1-3.7,2.2-7.4,3.3-11.2c0.1-0.2,0.1-0.3,0.4-0.3
		C27.5,0.1,27.8,0.1,28.2,0.1C28.2,0.1,28.2,0.1,28.2,0.1z"/>
	<path class="st0" d="M19.1,15c-0.4,0-0.7,0-1.1,0c-0.2,0-0.2,0-0.2-0.2c0-0.1,0-0.1,0-0.2c0.9-2.9,1.7-5.9,2.6-8.8
		C21,4,21.5,2.2,22,0.4c0,0,0-0.1,0-0.1c0-0.1,0.1-0.2,0.2-0.2c0.8,0,1.5,0,2.3,0c0,0,0,0,0.1,0c0.1,0,0.2,0.1,0.1,0.2
		c-0.1,0.3-0.2,0.5-0.2,0.8c-1.1,3.9-2.3,7.7-3.4,11.6c-0.2,0.7-0.4,1.4-0.6,2c-0.1,0.2-0.1,0.2-0.3,0.2C19.8,15,19.5,14.9,19.1,15
		C19.1,15,19.1,15,19.1,15z"/>
</g>
</svg>
