<?xml version="1.0" encoding="utf-8"?>
<!-- Generator: Adobe Illustrator 24.0.2, SVG Export Plug-In . SVG Version: 6.00 Build 0)  -->
<svg version="1.1" id="Layer_1" xmlns="http://www.w3.org/2000/svg" xmlns:xlink="http://www.w3.org/1999/xlink" x="0px" y="0px"
	 viewBox="0 0 40.1 40" style="enable-background:new 0 0 40.1 40;" xml:space="preserve">
<style type="text/css">
	.st0{fill:#FFFFFF;}
	.st1{fill:#404040;}
</style>
<path class="st0" d="M40.1,40c-13.4,0-26.7,0-40.1,0c0-13.3,0-26.7,0-40c13.4,0,26.7,0,40.1,0C40.1,13.4,40.1,26.7,40.1,40z M40,0.1
	c-0.1,0-0.2,0-0.3,0c-13.1,0-26.3,0-39.4,0c-0.3,0-0.3,0-0.3,0.3c0,13.1,0,26.2,0,39.3c0,0.3,0,0.3,0.3,0.3c13.1,0,26.2,0,39.3,0
	c0.3,0,0.3,0,0.3-0.3c0-13.1,0-26.2,0-39.4C40,0.2,40,0.2,40,0.1z"/>
<path class="st1" d="M40,0.1c0,0.1,0,0.2,0,0.3c0,13.1,0,26.2,0,39.4c0,0.3,0,0.3-0.3,0.3c-13.1,0-26.2,0-39.3,0
	c-0.3,0-0.3,0-0.3-0.3c0-13.1,0-26.2,0-39.3c0-0.3,0-0.3,0.3-0.3c13.1,0,26.3,0,39.4,0C39.9,0.1,39.9,0.1,40,0.1z M34.5,19.3
	c0-1.6,0-3.1,0-4.7c0-0.2-0.1-0.2-0.2-0.2c-0.7,0-1.4,0-2.1,0c-0.2,0-0.2,0.1-0.2,0.2c0,1.1,0,2.2,0,3.3c0,0.2-0.1,0.2-0.2,0.2
	c-1.1,0-2.1,0-3.2,0c-0.2,0-0.2-0.1-0.2-0.2c0-1.1,0-2.2,0-3.3c0-0.2,0-0.2-0.2-0.2c-0.7,0-1.4,0-2.1,0c-0.2,0-0.2,0.1-0.2,0.2
	c0,3.1,0,6.3,0,9.4c0,0.2,0.1,0.2,0.2,0.2c0.7,0,1.4,0,2.1,0c0.3,0,0.3,0,0.3-0.3c0-1.2,0-2.3,0-3.5c0-0.2,0-0.3,0.2-0.3
	c1.1,0,2.1,0,3.2,0c0.2,0,0.2,0.1,0.2,0.2c0,1.2,0,2.4,0,3.6c0,0.2,0,0.2,0.2,0.2c0.7,0,1.4,0,2.1,0c0.2,0,0.2,0,0.2-0.2
	C34.5,22.5,34.5,20.9,34.5,19.3z M5.6,19.3c0,1.6,0,3.1,0,4.7c0,0.2,0.1,0.2,0.2,0.2c0.7,0,1.4,0,2.1,0c0.3,0,0.3,0,0.3-0.3
	c0-0.9,0-1.7,0-2.6c0-0.4,0-0.4,0.4-0.4c0.8,0,1.5,0.1,2.3-0.1c0.9-0.2,1.6-0.7,2-1.6c0.3-0.8,0.3-1.7,0.2-2.5
	c-0.1-0.7-0.5-1.3-1.2-1.8c-0.7-0.4-1.4-0.6-2.2-0.6c-1.3,0-2.5,0-3.8,0c-0.3,0-0.3,0-0.3,0.3C5.6,16.3,5.6,17.8,5.6,19.3z
	 M19.2,20.2C19.2,20.2,19.1,20.2,19.2,20.2c-0.1-0.1-0.1-0.2-0.2-0.2c-0.7-1.8-1.4-3.6-2.2-5.4c0-0.1-0.1-0.2-0.2-0.2
	c-0.8,0-1.6,0-2.5,0c-0.2,0-0.2,0.1-0.1,0.2c0.1,0.3,0.3,0.7,0.4,1c0.7,1.7,1.5,3.5,2.2,5.2c0.5,1.1,0.9,2.2,1.4,3.2
	c0.1,0.2,0.1,0.2,0.3,0.2c0.5,0,1,0,1.5,0c0.2,0,0.3-0.1,0.4-0.2c0.4-1,0.8-2,1.3-2.9c0.9-2.1,1.8-4.3,2.7-6.4
	c0.1-0.2,0.1-0.2-0.1-0.2c-0.8,0-1.6,0-2.4,0c-0.1,0-0.2,0.1-0.3,0.2c-0.6,1.6-1.3,3.2-1.9,4.8C19.4,19.7,19.3,19.9,19.2,20.2z"/>
<path class="st1" d="M8.2,17.7c0-0.3,0-0.6,0-1c0-0.2,0-0.2,0.2-0.2c0.3,0,0.6,0,1,0c0.7,0.1,1,0.4,1,1.1c0,0.6-0.2,1.1-0.9,1.2
	c-0.3,0-0.6,0-0.8,0.1c-0.4,0-0.4,0-0.4-0.4C8.2,18.2,8.2,18,8.2,17.7z"/>
</svg>
