<?xml version="1.0" encoding="utf-8"?>
<!-- Generator: Adobe Illustrator 24.0.2, SVG Export Plug-In . SVG Version: 6.00 Build 0)  -->
<svg version="1.1" id="Layer_1" xmlns="http://www.w3.org/2000/svg" xmlns:xlink="http://www.w3.org/1999/xlink" x="0px" y="0px"
	 viewBox="0 0 297.5 78" style="enable-background:new 0 0 297.5 78;" xml:space="preserve">
<style type="text/css">
	.st0{fill:#404040;}
</style>
<path class="st0" d="M64.2,27.8c4-0.4,8-0.3,12.1-0.2c-0.3,0.6-0.5,1-0.8,1.5c-0.8,1.1-0.8,2.4-0.7,3.7c0.2,2.1,0.5,4.3,0.7,6.4
	c0.2,1.2,0.4,2.5,0.5,3.7c0,0.2,0.1,0.3,0.2,0.6c0.2-0.2,0.3-0.3,0.4-0.4c3-3.8,6-7.6,9-11.5c0.8-1,1-2.2,0.9-3.4
	c0-0.4,0.1-0.5,0.5-0.6c5.5,0,11-0.1,16.4-0.2c0.2,0,0.3,0,0.5,0c-0.1,0.7-0.2,1.4-0.3,2.2c0.4-0.2,0.6-0.2,0.9-0.4
	c1.4-0.8,2.8-1.6,4.4-1.9c2.3-0.4,4.6-0.6,6.8,0.3c2,0.9,3.1,2.5,3.1,4.7c0,1.1-0.1,2.3-0.4,3.3c-1,3.5-2.2,7.1-3.3,10.6
	c-0.5,1.5-0.9,3-1.4,4.5c-0.3,1-0.4,2-0.1,3.1c0.1,0.4,0,0.6-0.4,0.6c-0.7,0.1-1.4,0.2-2.1,0.2c-2.6,0-5.1,0-7.7,0
	c-0.3,0-0.5-0.1-0.9-0.1c0.3-0.4,0.5-0.7,0.8-1c1-0.9,1.7-2,2.1-3.3c1.6-4.4,3.2-8.8,4.3-13.3c0.2-0.9,0.3-1.8,0.1-2.7
	c-0.1-0.7-0.5-1.1-1.1-1.4c-1.6-0.7-3-0.3-4.4,0.5c-1.6,1-2.6,2.4-3.3,4.1c-1.8,4.4-3.3,8.9-4.6,13.5c-0.3,0.9-0.4,1.8,0.1,2.6
	c0.1,0.1,0.1,0.3,0.1,0.4c0.1,0.4,0,0.6-0.4,0.6c-3.2,0-6.5,0-9.7,0c-0.3,0-0.6-0.1-1.1-0.2c0.2-0.3,0.3-0.5,0.4-0.6
	c1.1-0.9,1.8-2.1,2.3-3.4c1.6-4.5,3.2-9.1,4.8-13.6c0.6-1.9,1.2-3.7,1.8-5.6c0.3-1,0.3-2.1-0.1-3.2c-0.7,0.6-1.5,1.1-2,1.7
	c-2.4,2.8-4.8,5.6-7.2,8.5c-5.7,7-11.3,14.1-17,21.1c-1.7,2.1-3.7,4-6.1,5.4c-2.7,1.5-5.6,2.2-8.7,2c-0.4,0-0.8-0.1-1.2-0.2
	c-0.3,0-0.4-0.2-0.4-0.5c0.1-0.4,0.2-0.7,0.3-1.1c0.5-1.2,1.1-2.3,1.7-3.5c0.3-0.6,0.5-0.7,1.1-0.3c1.1,0.7,2.4,0.9,3.7,0.5
	c1.8-0.6,3.3-1.5,4.7-2.8c1.3-1.3,2.6-2.6,3.9-3.9c0.2-0.2,0.3-0.5,0.3-0.7c-0.2-2.4-0.4-4.7-0.7-7.1c-0.3-2.7-0.6-5.3-0.9-8
	c-0.3-2.8-0.6-5.6-1-8.4c-0.1-0.9-0.5-1.7-1.1-2.4c-0.2-0.2-0.2-0.4-0.4-0.6C64.2,28,64.2,27.9,64.2,27.8z"/>
<path class="st0" d="M12.2,19.4c0.6-0.1,1.1-0.2,1.6-0.2c4.5-0.1,9-0.3,13.6-0.3c2.1,0,4.2,0.2,6.2,1.1c1.8,0.9,3,2.2,3.2,4.3
	c0.3,3.1-1,5.5-3.1,7.6c-1.5,1.5-3.3,2.6-5.3,3.3c0,0-0.1,0-0.1,0.1c-1.4,0.6-1.6,0.8-1.2,2.3c0.9,4.2,1.9,8.4,2.9,12.6
	c0.4,1.5,1,2.9,2.1,4c0.1,0.1,0.2,0.3,0.4,0.6c-0.3,0-0.4,0.1-0.6,0.1c-2.9,0-5.8-0.1-8.7-0.1c-0.9,0-1.6-0.6-2-1.4
	c-0.7-1.2-1-2.6-1.2-3.9c-0.7-3.8-1.3-7.6-2-11.5c-0.1-0.8-0.2-1.5-0.3-2.3c-0.1-0.8,0.1-1.1,0.9-1.1c2.6-0.1,4.8-1.1,6.7-2.8
	c1.6-1.4,2.6-3.1,2.5-5.2c0-1.5-0.8-2.4-2.2-2.8c-1.2-0.3-2.4-0.2-3.6-0.2c-1,0-1.4,0.5-1.6,1.4c-2.6,8-5.3,15.9-8,23.9
	c-0.4,1.1-0.7,2.2-0.9,3.4c-0.1,0.6,0.1,1.3,0.2,2c0.1,0.5,0,0.7-0.4,0.7c-0.7,0-1.3,0.1-2,0.1c-2.6,0-5.2-0.1-7.8-0.1
	c-0.4,0-0.8-0.1-1.3-0.2c0.2-0.2,0.2-0.4,0.4-0.4c1-0.6,1.6-1.4,2-2.4c1.4-3.6,2.7-7.3,4-11c1.9-5.5,3.7-11.1,5.5-16.7
	c0.3-0.8,0.4-1.6,0.6-2.4C12.7,21,12.6,20.2,12.2,19.4z"/>
<path class="st0" d="M190.7,54.9c-3.2,0-6.4,0-9.7,0c0.1-0.3,0.2-0.7,0.2-1c0-0.2-0.1-0.4-0.2-0.7c-0.2,0.1-0.4,0.2-0.6,0.3
	c-0.7,0.3-1.3,0.7-2.1,0.9c-2.8,1-5.7,1.3-8.6,0.4c-3.3-1-5.2-3.3-5.7-6.7c-0.4-2.2,0.2-4.2,0.8-6.2c1.7-5,4.8-9,9.3-11.9
	c2.2-1.4,4.6-2.4,7.2-2.7c1.8-0.2,3.7-0.1,5.5,0.4c0.5,0.1,1,0.5,1.5,0.7c0.3,0.2,0.6,0.4,0.9,0.6c0.1-0.2,0.2-0.3,0.3-0.5
	c0.7-2.2,1.4-4.4,2.1-6.7c0.2-0.8,0.1-1.5-0.3-2.3c-0.3-0.7-0.2-0.8,0.5-0.9c2.4,0,4.8-0.1,7.2-0.1c0.6,0,1.3,0.1,2,0.2
	c-0.2,0.7-0.4,1.4-0.6,2c-3.3,10-6.7,20-10,30c-0.2,0.5-0.3,1-0.4,1.4c-0.3,0.7,0,1.3,0.4,1.9c0.2,0.2,0.3,0.4,0.4,0.6
	C190.8,54.8,190.8,54.9,190.7,54.9z M173.1,46.5c0,0.2,0,0.4,0,0.6c0,1.7,1.3,3.1,3,3.1c3.3,0.2,5.7-1.5,7.2-4.2
	c1.8-3.1,2.8-6.6,3.6-10.1c0.4-1.6-0.3-3-1.7-3.6c-1.8-0.7-3.7-0.6-5.3,0.5c-2.1,1.3-3.5,3.2-4.5,5.4
	C174.1,40.9,173.2,43.6,173.1,46.5z"/>
<path class="st0" d="M277.8,45c0.1-0.1,0.2-0.3,0.3-0.4c2-3.1,3.4-6.4,3.9-10.1c0.8-6,0-11.8-3.2-17.1c-0.2-0.3-0.4-0.4-0.6-0.7
	c-0.2,0.3-0.4,0.5-0.5,0.8c-1.3,4.8-3.7,9-6.4,13.1c-3.1,4.5-6.9,8.4-11.1,11.9c-5.1,4.4-10.7,8.1-16.6,11.4
	c-0.8,0.5-1.8,0.8-2.7,1.1c-0.3,0.1-0.7,0-1.1,0c0-0.1-0.1-0.1-0.1-0.2c0.2-0.2,0.4-0.4,0.6-0.5c1.8-1.1,3.5-2.2,5.3-3.3
	c7.4-4.8,14-10.5,19.5-17.4c4.4-5.5,7.6-11.7,9.1-18.8c0.9-4.6,0.5-9.1-1.1-13.5c0-0.1-0.1-0.2-0.1-0.2c-0.4-0.8-0.4-0.9,0.6-1
	c0.9-0.1,1.8,0,2.8,0c0.2,0,0.4,0.2,0.4,0.3c1.6,3.3,2.2,6.7,1.9,10.3c-0.1,1.3-0.1,2.5-0.2,3.8c0,0.2,0.1,0.4,0.2,0.6
	c1,2.2,2.1,4.4,3.1,6.7c0.8,1.8,1.2,3.7,1.2,5.6c0,2.3,0,4.6-0.1,6.9c-0.1,2.3-0.9,4.5-1.8,6.6c-3,6.7-7.9,11.3-14.6,14.3
	c-2.3,1-4.7,1.5-7.2,1.5c-2,0-4.1,0.1-6.1,0.1c-0.8,0-1.5-0.2-2.3-0.3c-0.3,0-0.5-0.2-0.7-0.3c-0.1-0.1-0.2-0.2-0.2-0.3
	c0-0.1,0.2-0.3,0.3-0.3c1.3-0.5,2.7-1,4-1.5c0.4-0.1,0.8-0.2,1.2-0.3c0.4-0.2,0.9-0.4,1.1-0.8c0.7-0.9,1.3-1.8,2-2.8
	c0.6-0.9,0.5-1.1-0.5-1.4c-0.5-0.2-0.9-0.2-1.4-0.4c-0.3-0.1-0.6-0.2-0.9-0.3c3.7-3.2,7.3-6.3,11-9.5c0,0.3,0,0.7,0.1,1
	c0.1,0.5,0.2,1.1,0.5,1.4c0.6,0.7,1.4,1.3,2.2,1.8c0.2,0.1,0.6,0.2,0.8,0.1c1.3-0.3,2.4-0.8,3.4-1.8c0.7-0.7,1.6-0.9,2.6-0.7
	c0.2,0,0.5,0.3,0.5,0.5c0.1,0.7,0.2,1.2,0.6,1.8c0.2,0.4,0.1,1,0.1,1.5c0,0.3,0,0.6-0.1,0.8C277.7,44.9,277.7,45,277.8,45z"/>
<path class="st0" d="M149.9,36.5c0.2,4.5-1.7,8.1-4.5,11.3c-2,2.2-4.1,4.2-6.8,5.5c-2.7,1.3-5.5,2.2-8.5,2.2c-2.5,0-5-0.5-6.9-2.1
	c-2.4-1.9-3.7-4.5-3.5-7.7c0.4-6,3.5-10.4,8.1-14.1c2.2-1.7,4.6-2.9,7.3-3.7c3-0.9,6.1-1,9.1,0.2c2.2,0.8,3.8,2.4,5.1,4.4
	c0.5,0.9,0.6,1.9,0.7,3C149.9,35.8,149.9,36.2,149.9,36.5z M141.5,36.1c0-0.5-0.1-0.9-0.1-1.4c-0.1-2.5-2-3.2-3.7-3
	c-2.2,0.3-4.1,1.5-5.4,3.5c-2.2,3.3-3.6,6.9-4.2,10.8c-0.2,1.4,0,2.7,1,3.8c1,1.1,2.3,1,3.7,0.8c1.8-0.3,3.1-1.4,4.3-2.8
	c1.5-1.7,2.4-3.8,3.1-5.9C140.9,40.1,141.4,38.1,141.5,36.1z"/>
<path class="st0" d="M58,47.3c-1,1.6-1.9,3.3-2.9,4.9c-0.8,1.2-2.1,1.7-3.4,2.1c-1.9,0.6-3.9,0.9-5.9,1c-1.8,0.1-3.7,0.1-5.4-0.5
	c-2.1-0.6-4-1.5-5.3-3.4c-0.9-1.3-1.3-2.9-1.5-4.4c-0.3-3.3,0.7-6.3,2.3-9.1c3-5.4,7.4-9,13.4-10.3c2.8-0.6,5.6-0.5,8.3,0.6
	c1.1,0.4,2,1.2,2.6,2.1c1.5,2.2,2.1,4.7,1.6,7.3c-0.3,1.3-0.7,2.5-1,3.8c-0.1,0.3-0.2,0.4-0.6,0.4c-3.4,0.1-6.8,0.1-10.2,0.2
	c-2.3,0-4.7,0.1-7,0.1c-0.4,0-0.6,0.2-0.6,0.6c-0.1,0.7-0.3,1.4-0.3,2c-0.3,3,1,4.8,3.9,5.6c1.9,0.5,3.6,0.2,5.4-0.4
	c1.8-0.6,3.4-1.4,5.2-2.2c0.4-0.2,0.9-0.4,1.3-0.6C57.9,47.2,58,47.3,58,47.3z M49.4,37.5C49.4,37.5,49.4,37.6,49.4,37.5
	c1.2,0.1,2.3,0.1,3.5,0.1c0.2,0,0.3-0.1,0.5-0.1c0.5-0.1,0.7-0.3,0.8-0.8c0.1-0.8,0.2-1.6,0.2-2.4c-0.1-1.8-0.7-2.6-2.7-2.9
	c-1.3-0.2-2.5,0.3-3.5,1c-1.5,1.1-2.5,2.6-3.4,4.3c-0.2,0.5-0.2,0.6,0.4,0.8c0.1,0,0.2,0,0.3,0C46.8,37.5,48.1,37.5,49.4,37.5z"/>
<path class="st0" d="M258.4,12.4c-1-0.1-1.9-0.2-2.7-0.3c-0.7-0.1-1.4-0.1-2.1,0c-0.2,0-0.5,0.1-0.6,0.2c-0.2,0.2-0.3,0.5-0.3,0.7
	c0,0.1,0.4,0.2,0.6,0.3c0.2,0.1,0.5,0.1,0.6,0.3c0.8,1.2,1.1,2.5,1,3.9c-0.1,0.7-0.1,1.4,0,2.1c0.1,0.8,0.4,1.4,1.4,1.4
	c-0.4,0.9-0.7,1.8-1.1,2.6c-1.8,3.8-4.2,7.3-6.9,10.5c-1.5,1.9-3.1,3.7-4.9,5.3c-0.5,0.4-1.1,0.7-1.6,1.1c-0.3,0.2-0.5,0.5-0.7,0.7
	c-0.1,0.2-0.2,0.4-0.4,0.5c-1.6,1.4-3.2,2.9-4.8,4.4c-0.4-0.5-0.7-0.9-1-1.4c-1.6-2.6-2.9-5.4-3.5-8.4c-0.7-4.1-1-8.2,0.1-12.3
	c0.9-3,2-6,3.9-8.6c2.2-3,4.8-5.5,7.9-7.5c2.1-1.3,4.4-2.2,6.7-2.9c0.2-0.1,0.4,0.1,0.6,0.1c-0.1,0.2-0.2,0.4-0.4,0.5
	c0,0-0.1,0-0.2,0.1c-0.2,0.1-0.3,0.3-0.4,0.4c0.2,0.1,0.4,0.4,0.6,0.4c0.5,0,1.1-0.1,1.6-0.2c2-0.6,4.1-0.5,6.2-0.5
	c0.1,0,0.3,0.2,0.4,0.3C258.3,8.1,258.3,10.2,258.4,12.4z M241.4,32.6c0.1-0.3,0.2-0.6,0.3-0.8c0.3-0.5,0.6-1.1,1-1.5
	c0.7-0.7,1.6-1.2,2.4-1.8c1.1-0.9,2.2-1.7,3.8-1.7c0.7,0,0.8-0.2,0.7-1c0-0.7,0.2-1,1.1-1.1c0.6-0.1,0.7,0,0.8,0.8
	c0,0.1,0,0.2,0,0.2c0.2,0.2,0.4,0.4,0.6,0.6c0.1-0.2,0.2-0.4,0.3-0.7c0-0.1,0-0.2,0-0.3c-0.3-1.2-0.5-2.3-0.9-3.5
	c-0.1-0.4-0.3-0.7-0.5-1c-0.2-0.4-0.5-0.7-0.7-1.1c-0.1-0.2-0.2-0.5-0.3-0.7c-0.1-0.3-0.3-0.4-0.6-0.2c-0.4,0.4-0.8,0.9-1.2,1.3
	c-0.5,0.5-1,1.1-1.6,1.6c-0.2,0.2-0.4,0.1-0.5-0.2c-0.1-1-0.3-1.9-0.3-2.9c-0.1-0.9,0.2-1.2,1-1.5c0.3-0.1,0.6-0.1,0.8-0.1
	c0.6-0.1,1.2-0.3,1.7-0.5c0.3-0.1,0.5-0.5,0.5-0.8c0-0.5-0.6-1-1-1.1c-0.2-0.1-0.5-0.2-0.5-0.4c0-0.1,0.1-0.4,0.3-0.5
	c0.4-0.3,0.7-0.7,0.7-1.2c0-0.4-0.2-0.7-0.3-1.1c-0.3,0.2-0.5,0.3-0.8,0.5c-0.4,0.3-0.6,0.3-0.7-0.2c-0.3-0.9,0.1-1.7,0.6-2.4
	c0.2-0.3,0.4-0.6,0.6-0.9c0.2-0.4,0.1-0.6-0.3-0.7c-1.2-0.3-2.4-0.1-3.5,0.5c-0.4,0.2-0.7,0.6-0.8,1c-0.2,1.1-0.8,1.9-1.5,2.7
	c-1.9,2.1-3.8,4.1-5.8,6.1c-0.8,0.9-1.4,1.8-1.7,3c-0.7,3-1.1,6-1,9c0,0.7,0.2,1.5,0.6,2.2c1,1.8,2,3.5,3.1,5.2
	c0.2,0.3,0.4,0.5,0.6,0.8c0.4-0.6,0.5-1.7,0-2.2c-0.8-0.7-0.7-1.3-0.3-2.1c0.2-0.4,0-0.7-0.5-0.8c-0.4-0.1-0.8,0-1.2-0.1
	c-0.2-0.1-0.5-0.2-0.6-0.4c-0.5-1,0-3,0.9-3.6c0.2-0.1,0.5-0.2,0.7-0.2c1.5,0.5,2.8,1.2,3.3,2.9C241.2,32,241.3,32.2,241.4,32.6z
	 M252.5,16.9c-0.2-0.8-0.3-1.6-0.5-2.3c-0.2-0.6-0.5-0.8-1.1-0.5c-0.7,0.3-0.9,0.9-0.4,1.5c0.1,0.1,0.2,0.2,0.3,0.3
	c0.4,0.3,0.4,0.6,0.2,1.1c-0.2,0.3-0.4,0.7-0.5,1c-0.1,0.4,0.1,0.8,0.5,0.9c0.2,0.1,0.5-0.1,0.7-0.2
	C252.3,18.2,252.4,17.5,252.5,16.9z"/>
<path class="st0" d="M196.3,47.2c0.5,0.3,0.9,0.6,1.2,0.8c2.2,1.8,4.8,2.6,7.6,2.7c1.8,0.1,3.4-0.4,4.7-1.7c0.7-0.7,1.1-1.4,0.9-2.4
	c-0.1-0.6-0.5-1.1-1.1-1.3c-0.9-0.4-1.8-0.7-2.7-1.1c-1.4-0.6-2.9-1.1-4.1-1.9c-2.2-1.4-2.7-3.1-2.1-5.5c1-3.9,3.7-6.4,7.2-8.1
	c2.7-1.3,5.5-1.4,8.4-1.3c1.8,0.1,3.5,0.3,5.3,0.5c0.2,0,0.3,0.1,0.5,0.1c1.2,0.4,1.3,0.6,0.9,1.7c-0.5,1.3-0.9,2.6-1.4,3.9
	c-0.1,0.2-0.1,0.3-0.2,0.6c-0.4-0.3-0.8-0.5-1.2-0.7c-1.9-1.1-3.8-1.9-6-1.7c-1.4,0.1-2.7,0.4-3.6,1.7c-0.9,1.3-0.7,2.5,0.7,3.2
	c1.3,0.6,2.6,1.1,3.9,1.7c1.5,0.7,3,1.5,4.2,2.7c0.5,0.5,0.8,1.1,0.8,1.8c-0.1,1,0,2-0.2,3c-0.5,2.6-2.1,4.6-4.2,6.1
	c-3.2,2.4-6.7,3.6-10.7,3.6c-3.3,0-6.6-0.5-9.8-1.4c-0.3-0.1-0.5-0.2-0.4-0.5c0.4-1.9,0.8-3.8,1.3-5.7
	C196.2,47.6,196.2,47.5,196.3,47.2z"/>
<path class="st0" d="M224.3,54.8c0.4-0.3,0.9-0.5,1.3-0.8c5.1-3,10-6.2,14.5-10c4.1-3.4,7.9-7.2,11.1-11.4c3.3-4.3,5.9-9.1,7.5-14.3
	c0.9-3.1,1.4-6.3,1.2-9.6c-0.1-2.7-0.8-5.3-1.9-7.8c-0.3-0.6-0.2-0.7,0.4-0.7c2-0.1,4-0.1,6-0.1c0.1,0,0.4,0.2,0.4,0.3
	c1,2.2,1.6,4.4,1.5,6.9c-0.1,2.3-0.1,4.7-0.1,7c0,1.9-0.7,3.7-1.4,5.5c-1.8,5.1-4.6,9.6-8,13.7c-3.9,4.8-8.4,9-13.4,12.6
	c-3.6,2.6-7.4,5-11.2,7.2c-1.9,1.1-3.9,1.7-6.1,1.6c-0.6,0-1.2,0-1.8,0C224.3,54.9,224.3,54.8,224.3,54.8z"/>
<path class="st0" d="M147.1,54.7c0.3-0.4,0.7-0.8,1-1.1c0.7-0.7,1.2-1.4,1.5-2.3c2.5-7.5,5.1-14.9,7.6-22.4c0.8-2.4,1.5-4.8,2.3-7.2
	c0.3-0.9,0.1-1.6-0.5-2.3c-0.1-0.1-0.1-0.3-0.2-0.5c0.2,0,0.3-0.1,0.5-0.1c2.9,0,5.8,0,8.8,0c0.6,0,0.7,0.2,0.5,0.9
	c-0.4,1.1-0.8,2.2-1.2,3.4c-3,9.1-6.1,18.3-9.1,27.4c-0.2,0.6-0.4,1.2-0.5,1.8c-0.2,0.7-0.2,1.4,0.4,2c0.3,0.3,0.1,0.5-0.2,0.5
	c-0.8,0.1-1.5,0.2-2.3,0.2c-2.2,0-4.4,0-6.6,0c-0.7,0-1.4-0.1-2.1-0.1C147.1,54.8,147.1,54.7,147.1,54.7z"/>
<path class="st0" d="M232.9,54.7c1.2-0.7,2.3-1.3,3.5-2c6.2-3.8,11.9-8.1,17-13.2c3.7-3.7,7.1-7.7,9.7-12.3
	c2.6-4.6,4.4-9.4,5.1-14.6c0.6-4.2-0.1-8.2-1.9-12.1c-0.1-0.1-0.1-0.3-0.2-0.4c0,0,0-0.1,0-0.1c0.1,0,0.3,0,0.5,0c1.3,0,2.7,0,4,0
	c0.4,0,0.5,0.1,0.7,0.4c1,2.3,1.5,4.7,1.8,7.1c0.5,4.4-0.6,8.6-2.1,12.7c-2.2,6.1-5.8,11.3-10.2,16c-3.3,3.5-6.8,6.8-10.6,9.7
	c-2.7,2-5.6,3.8-8.4,5.7c-1.4,0.9-2.8,1.7-4.2,2.5c-1.4,0.8-3,0.8-4.6,0.8C232.9,54.8,232.9,54.8,232.9,54.7z"/>
<path class="st0" d="M155.5,77.7c0.5-1.2,1.1-2.3,1.5-3.5c0.6-1.5,1-3.1,1.5-4.7c0.2-0.7,0.1-1-0.6-1.2c-0.9-0.3-1.8-0.2-2.3,0.7
	c-0.6,1.1-1.2,2.3-1.6,3.5c-0.5,1.6-0.9,3.2-1.3,4.7c0,0.1-0.2,0.3-0.3,0.3c-1.4,0.1-2.7,0.1-4.1,0.2c0,0-0.1,0-0.1,0
	c1.5-3.4,2.7-6.9,3.7-10.5c0-0.2,0.1-0.3,0.1-0.5c0.1-0.7,0.1-0.8,0.9-0.8c0.8,0,1.7,0,2.5,0.1c0.1,0,0.1,0,0.2,0.1
	c0.7,0.5,1.5,0.3,2.1-0.1c1.2-0.6,2.4-0.5,3.5,0.2c0.2,0.1,0.5,0.2,0.8,0.4c0.5,0.2,1,0.2,1.5-0.1c1.2-0.8,2.6-0.9,4-0.7
	c1.3,0.2,1.8,0.8,1.8,2c0,1-0.2,2-0.5,3c-0.4,1.7-1,3.4-1.4,5c-0.1,0.4-0.1,0.9-0.1,1.3c0,0.4-0.4,0.4-0.6,0.4
	c-0.7,0.1-1.5,0.1-2.2,0.1c-0.5,0-1.1,0-1.7,0c0.1-0.2,0.1-0.3,0.2-0.5c1.1-2.4,2-4.9,2.5-7.5c0-0.2,0.1-0.4,0.1-0.6
	c0-0.8-0.6-1.3-1.4-1c-0.7,0.2-1.3,0.6-1.6,1.4c-0.7,1.7-1.4,3.4-2,5.2c-0.3,0.8-0.4,1.7-0.7,2.6c0,0.1-0.2,0.4-0.3,0.4
	C158.2,77.8,156.9,77.8,155.5,77.7z"/>
<path class="st0" d="M244.8,77.7c-1.6,0.1-3.1,0.2-4.7,0.3c-2.3,0.2-3.8-1.2-3.9-3.5c-0.1-2,0.8-3.6,1.8-5.1c1.7-2.3,4-3.5,6.8-3.7
	c0.6,0,1.1,0.2,1.7,0.3c0.6,0.2,0.8,0.1,1.1-0.4c0.4-0.8,0.6-1.7,0.6-2.6c0-0.8,0-0.9,0.8-0.9c0.9,0,1.8,0,2.6,0.1
	c0.5,0,0.6,0.3,0.4,0.7c-1,2.9-1.9,5.9-2.9,8.8c-0.6,1.9-1.1,3.8-1.6,5.6c0,0.1-0.3,0.3-0.5,0.3C246.5,77.7,245.7,77.8,244.8,77.7
	C244.8,77.8,244.8,77.8,244.8,77.7z M240.2,74c0,0.1,0,0.1,0,0.2c0.1,1.1,0.9,2,1.7,1.9c0.9-0.1,1.6-0.5,2.2-1.2
	c0.9-1.1,1.4-2.4,1.8-3.8c0.2-0.6,0.2-1.1,0.3-1.7c0.1-1.1-1-1.9-2.1-1.5c-0.7,0.3-1.4,0.7-1.9,1.3C241,70.5,240.5,72.2,240.2,74z"
	/>
<path class="st0" d="M198.2,77.8c1.1-1.9,1.7-4,2.4-5.9c1-2.9,1.9-5.8,2.8-8.7c0.1-0.4,0.1-0.9,0.4-1.1c0.2-0.2,0.7,0,1.1,0
	c1.5,0,3.1,0.1,4.6,0.1c0.6,0,1.3,0,1.9,0.1c1.9,0.2,3,1.7,2.6,3.6c-0.6,3.1-3.6,4.8-5.8,5c-1,0.1-2.1,0.1-3.1,0.2
	c-0.2,0-0.4,0.2-0.5,0.3c-0.5,1.7-1,3.3-1.5,5c0,0.1,0,0.2,0,0.3c-0.1,1-0.2,1.1-1.2,1.1c-0.9,0-1.9,0.1-2.8,0.1
	C198.7,77.9,198.4,77.8,198.2,77.8z M206.5,69c1.4,0,3-1.2,3.4-2.6c0.4-1.1-0.2-2.2-1.4-2.4c-0.4-0.1-0.8,0-1.2,0
	c-0.4,0-0.6,0.2-0.7,0.6c-0.3,1.1-0.7,2.2-1,3.3C205.5,68.8,205.6,69,206.5,69z"/>
<path class="st0" d="M107.6,77.6c1.3-2.6,2.2-5.2,3-7.9c0.3-1,0.5-2.1,0.8-3.2c0.1-0.2,0.3-0.5,0.5-0.5c1,0,2.1-0.2,3,0.1
	c0.9,0.3,1.6,0,2.4-0.1c0.8-0.1,1.6-0.3,2.4-0.2c1.4,0.1,2.8,1.6,2.2,3.4c-0.7,2.2-1.4,4.4-2,6.6c-0.1,0.5-0.2,1-0.3,1.5
	c0,0.1-0.2,0.3-0.3,0.3c-1.3,0-2.7,0-4,0c0,0,0,0,0,0c0.6-1.5,1.2-3,1.7-4.4c0.4-1.1,0.7-2.2,1-3.4c0.1-0.5,0.2-1-0.3-1.4
	c-0.5-0.4-1-0.4-1.5-0.1c-0.4,0.2-0.9,0.6-1.2,1c-1.4,2.2-2.3,4.7-2.9,7.2c-0.3,1.1-0.2,1.2-1.4,1.2c-0.9,0-1.8,0-2.8,0
	C107.9,77.7,107.8,77.6,107.6,77.6z"/>
<path class="st0" d="M149.2,65.9c-0.3,0.8-0.5,1.6-0.8,2.3c-0.9,2.8-1.8,5.6-2.6,8.3c0,0.1,0,0.1-0.1,0.2c-0.2,1-0.2,1-1.2,1
	c-1.7,0.1-3.4,0.1-5,0.2c-0.8,0-1.7,0.1-2.5,0.1c-1.2,0-1.8-0.7-1.8-1.9c0-1.6,0.5-3.2,1-4.7c0.4-1.3,0.8-2.6,1.2-3.9
	c0.1-0.2,0.1-0.4,0.1-0.6c0-0.8,0.1-0.9,0.9-1c0.9,0,1.7,0,2.6,0.1c0.4,0,0.6,0.2,0.5,0.7c-0.7,2.2-1.4,4.5-2.1,6.7
	c-0.1,0.4-0.2,0.7-0.3,1.1c-0.1,0.5,0.1,0.8,0.6,1c1,0.3,2.3-0.1,2.8-1.2c0.6-1.3,1.2-2.6,1.7-4c0.4-1.3,0.6-2.6,1-3.9
	c0-0.1,0.3-0.3,0.4-0.3C146.7,66,147.9,65.9,149.2,65.9z"/>
<path class="st0" d="M258.1,66.1c-0.4,1.3-0.8,2.4-1.1,3.6c-0.4,1.5-0.9,2.9-1.3,4.4c-0.3,1,0,1.3,1.1,1.4c1,0.1,1.7-0.4,2.2-1.2
	c1.3-2.4,2.2-4.9,2.7-7.6c0.1-0.7,0.4-0.8,0.9-0.8c1.1,0,2.2,0,3.3,0c-0.4,1.3-0.9,2.6-1.3,3.9c-0.7,2.3-1.4,4.6-2.1,6.8
	c-0.3,1-0.2,1-1.3,1c-1.7,0-3.3,0.1-5,0.2c-0.8,0-1.7,0.1-2.5,0.1c-1.1,0-1.7-0.7-1.8-1.8c-0.1-1.7,0.5-3.2,0.9-4.8
	c0.4-1.5,0.8-3,1.3-4.4c0-0.2,0-0.4,0.1-0.5c0.1-0.2,0.2-0.4,0.4-0.4C255.6,65.8,256.8,65.9,258.1,66.1z"/>
<path class="st0" d="M103,65.7c0.6,0.1,1.4,0.2,2.1,0.5c1.6,0.6,2.3,1.9,2.5,3.5c0.2,1.5-0.4,2.8-1.2,3.9c-1.4,2.2-3.3,3.8-6,4.3
	c-1,0.2-2.1,0.2-3.1,0c-2.3-0.5-3.6-2.8-3-5.2c1-3.6,3.4-5.8,7-6.9C101.9,65.8,102.4,65.8,103,65.7z M103.7,69.6c0-0.3,0-0.5,0-0.8
	c0-0.7-0.3-1-1-1c-0.8,0-1.5,0.3-2.1,0.9c-0.8,0.9-1.5,1.9-1.8,3c-0.3,0.9-0.5,1.9-0.6,2.8C98,75.5,98.7,76,99.6,76
	c1,0,1.8-0.4,2.4-1.2C103.3,73.3,103.7,71.5,103.7,69.6z"/>
<path class="st0" d="M226.8,78.1c-1.5-0.1-2.7-0.2-3.6-1.2c-1.1-1-1.2-2.3-1.1-3.7c0.4-4.1,4.7-7.1,7.6-7.4c1.3-0.1,2.6,0,3.8,0.6
	c0.8,0.4,1.3,1.1,1.6,1.9c0.6,1.6,0.3,3.2-0.4,4.6c-1.4,2.6-3.5,4.3-6.4,5C227.6,78,227,78,226.8,78.1z M227.2,76
	c1.1-0.1,2-0.7,2.6-1.6c1-1.4,1.4-3.1,1.8-4.7c0.2-1-0.6-2-1.8-1.9c-0.8,0.1-1.4,0.4-1.8,1c-1.3,1.7-2.3,3.5-2.2,5.8
	C225.7,75.6,226.2,76,227.2,76z"/>
<path class="st0" d="M95.2,65c-1.8-1.4-4.9-1.4-6.8,0c-2.6,1.9-4,4.5-4.2,7.6c-0.1,2,1.3,3.7,4,3.4c1.4-0.2,2.7-0.7,4.1-1.1
	c0.2-0.1,0.4-0.1,0.6-0.2c-0.5,1.1-0.9,2.2-1.9,2.9c-0.4,0.2-0.8,0.3-1.3,0.4c-1.9,0.2-3.9,0.4-5.7-0.3c-2-0.7-3.5-1.9-3.6-4.2
	c-0.1-1.8,0.3-3.5,1.2-5c1.6-2.8,3.8-4.8,6.9-6c0.6-0.2,1.3-0.4,1.9-0.4c1.7,0,3.5,0,5.2,0.1c0.5,0,0.7,0.3,0.6,0.8
	C96,63.6,95.6,64.6,95.2,65z"/>
<path class="st0" d="M181.2,74.8c-0.5,1.4-1.3,2.5-2.8,2.9c-1.6,0.5-3.3,0.6-4.9,0.1c-2.1-0.6-3.4-2.8-2.8-5
	c1.2-4.4,3.9-6.7,8.3-7.3c2-0.3,3.9,1.4,4.1,3.4c0.1,0.7,0,1.5-0.1,2.2c0,0.6-0.4,0.7-0.8,0.8c-0.8,0.1-1.6,0.1-2.4,0.1
	c-1.4,0-2.8,0-4.2,0.1c-0.9,0-1.2,0.3-1.2,1.3c0,1.6,0.9,2.5,2.5,2.3c1-0.1,1.9-0.4,2.8-0.7c0.5-0.1,1-0.3,1.4-0.5
	C181.2,74.7,181.2,74.8,181.2,74.8z M177.5,70.3c0.6-0.1,1.1-0.1,1.5-0.2c0.2,0,0.4-0.1,0.5-0.3c0.3-0.3,0.3-1.4,0-1.8
	c-0.3-0.4-1.1-0.7-1.6-0.5c-0.9,0.4-1.6,1-2.1,1.9c-0.2,0.4-0.1,0.7,0.4,0.8C176.6,70.3,177.1,70.3,177.5,70.3z"/>
<path class="st0" d="M122.5,74.6c0.4,0.2,0.7,0.4,1.1,0.6c1.2,0.6,2.4,1,3.7,0.7c0.7-0.1,1.2-0.4,1.5-1c0.2-0.4,0.2-0.7-0.2-1
	c-0.6-0.3-1.2-0.7-1.9-1c-0.4-0.2-0.8-0.4-1.1-0.6c-1.3-0.7-1.5-1.5-0.9-3.1c0.5-1.4,1.8-2.2,3.1-2.8c2-0.9,4-0.9,6-0.4
	c0.6,0.2,0.7,0.3,0.5,0.9c-0.1,0.4-0.3,0.9-0.5,1.3c-0.1,0.4-0.4,0.4-0.7,0.2c-0.6-0.3-1.3-0.6-1.9-0.7c-0.5-0.1-1.2,0-1.7,0.3
	c-0.9,0.4-0.9,1.2-0.1,1.7c0.7,0.4,1.4,0.8,2.2,1.1c1.8,0.8,2,2.2,1.1,3.9c-1,1.9-2.7,2.8-4.8,3.2c-1.5,0.2-3.1,0.2-4.6-0.2
	c-0.1,0-0.1,0-0.2-0.1c-1.1-0.3-1.2-0.4-0.9-1.6c0.1-0.5,0.2-1,0.3-1.4C122.5,74.7,122.5,74.6,122.5,74.6z"/>
<path class="st0" d="M297.5,66.2c-0.3,0.7-0.5,1.3-0.7,2c-0.1,0.4-0.4,0.5-0.8,0.3c-0.6-0.2-1.2-0.5-1.8-0.7c-0.8-0.2-1.4,0-2.1,0.5
	c-0.6,0.4-0.6,0.9,0,1.3c0.5,0.3,1.1,0.6,1.7,0.9c0.4,0.2,0.9,0.4,1.3,0.7c1.1,0.7,1.4,1.3,1.1,2.6c-0.2,1-0.8,1.7-1.5,2.4
	c-1.2,1.1-2.6,1.7-4.1,1.8c-1.3,0.1-2.6,0-4-0.1c-1.1-0.1-1.3-0.4-1.3-1.5c0-0.4,0.1-0.8,0.2-1.3c0.1-0.3,0.3-0.4,0.6-0.3
	c0.3,0.2,0.6,0.3,0.9,0.5c1.2,0.6,2.4,0.9,3.7,0.5c0.2-0.1,0.5-0.1,0.6-0.2c0.8-0.5,1-1,0.1-1.6c-0.7-0.5-1.4-0.9-2.2-1.2
	c-1.7-0.9-2.1-1.8-1.4-3.6c0.3-0.6,0.7-1.3,1.3-1.7c1.5-1.3,3.4-1.8,5.4-1.6c0.8,0.1,1.5,0.2,2.3,0.3
	C297.1,66,297.2,66.1,297.5,66.2z"/>
<path class="st0" d="M275.4,75c-0.2,0.5-0.5,1-0.7,1.5c-0.7,1.2-1.8,1.5-3.1,1.6c-1.1,0.1-2.2,0.1-3.3-0.3c-1.5-0.5-2.2-1.5-2.3-3
	c-0.3-3.1,1.2-5.3,3.4-7.2c2-1.7,4.3-2.1,6.8-1.7c0.3,0,0.6,0.1,0.9,0.1c0.4,0,0.6,0.2,0.5,0.7c-0.2,0.7-0.5,1.5-0.8,2.3
	c-0.4-0.3-0.6-0.5-0.8-0.7c-0.6-0.5-1.2-0.7-2-0.5c-1.2,0.3-2.2,0.9-2.9,1.9c-0.8,1.2-1.4,2.5-1.5,4c-0.1,1.3,1.4,2.5,2.7,2.3
	c0.8-0.2,1.6-0.5,2.4-0.8c0.2-0.1,0.4-0.1,0.6-0.2C275.4,75,275.4,75,275.4,75z"/>
<path class="st0" d="M283.9,75.9c-0.2,0.9-1.6,2.1-2.6,2.2c-0.8,0-1.6-0.1-2.4-0.2c-0.7-0.1-1-0.6-1-1.3c-0.1-1.3,0.4-2.4,0.7-3.6
	c0.4-1.3,0.8-2.6,1.2-3.8c0.2-0.7,0.4-1.4-0.6-1.8c2.2-1.3,3.9-3,6-4.1c0.1,0.1,0.1,0.1,0.2,0.2c-0.1,0.3-0.2,0.6-0.2,0.8
	c-0.1,0.3-0.2,0.5-0.2,0.8c-0.2,0.6,0,0.8,0.5,0.9c0.2,0,0.5,0,0.7,0c0.3,0.1,0.8,0.2,0.8,0.4c0.1,0.4-0.1,0.9-0.5,1.1
	c-0.4,0.2-0.8,0.3-1.3,0.3c-0.7,0-1.2,0.4-1.4,1c-0.7,2-1.4,4.1-2,6.2c-0.2,0.7,0.3,1.1,1.1,1.1C283.2,76,283.5,75.9,283.9,75.9z"/>
<path class="st0" d="M182.9,77.7c0.8-2.1,1.6-4.1,2.3-6.2c0.5-1.4,0.9-2.9,1.3-4.4c0-0.1,0-0.1,0.1-0.2c0.2-1,0.2-1.1,1.2-1.1
	c0.7,0,1.5,0,2.2,0.1c0.2,0,0.5,0.1,0.6,0.2c0.3,0.4,0.6,0.3,0.9,0.2c0.7-0.2,1.3-0.4,2-0.5c0.6-0.1,0.7,0.1,0.6,0.7
	c-0.1,0.5-0.3,1-0.5,1.5c-0.2,0.5-0.6,0.8-1.1,0.8c-1.6-0.2-2.5,0.6-3.2,2c-0.9,1.9-1.5,3.8-1.9,5.9c-0.2,0.9-0.1,0.9-1,1
	C185.2,77.8,184,77.7,182.9,77.7z"/>
<path class="st0" d="M219.2,67.1c1.4-0.5,2.4-1.4,3.9-1.3c-0.1,1.1-0.3,2-0.9,2.9c-0.1,0.2-0.5,0.3-0.8,0.2
	c-1.4-0.2-2.2,0.6-2.9,1.6c-1,1.6-1.6,3.3-2,5.1c-0.1,0.5-0.1,1-0.2,1.5c0,0.2-0.2,0.5-0.4,0.5c-1.4,0.3-2.7,0.1-4.1,0
	c1.5-3.3,2.7-6.6,3.5-10c0.1-0.4,0-0.8,0.1-1.2c0-0.1,0.2-0.4,0.3-0.4c1.1,0,2.2,0,3.3,0c0.1,0,0.2,0.3,0.3,0.4
	C219.4,66.6,219.3,66.7,219.2,67.1z"/>
<path class="st0" d="M277.8,22.3c0.7,0.6,0.7,1.7,0.2,2.4c-0.2,0.3-0.6,0.6-0.9,0.9c-0.5,0.3-0.8,0.7-0.8,1.3c0,0.1,0,0.2,0,0.2
	c-0.2,0.1-0.4,0.2-0.6,0.4c0-0.2-0.2-0.4-0.1-0.6c0.3-0.8,0.7-1.6,1.1-2.3C276.9,23.8,277.4,23.1,277.8,22.3z"/>
</svg>
