<?xml version="1.0" encoding="utf-8"?>
<!-- Generator: Adobe Illustrator 24.0.2, SVG Export Plug-In . SVG Version: 6.00 Build 0)  -->
<svg version="1.1" id="Layer_1" xmlns="http://www.w3.org/2000/svg" xmlns:xlink="http://www.w3.org/1999/xlink" x="0px" y="0px"
	 viewBox="0 0 296 63.6" style="enable-background:new 0 0 296 63.6;" xml:space="preserve">
<style type="text/css">
	.st0{fill:#404040;}
</style>
<g>
	<path class="st0" d="M86.3,37.3c1,0,1.8,0,2.7,0c0,2.5,0,5,0,7.6c-4.5,0-9,0-13.6,0c0-0.5,0-0.9,0-1.4c0-4.8,0-9.6,0-14.4
		c0-2.2-1-3.1-3.1-3.2c-2,0-3,0.7-3.1,2.7c-0.1,2.8,0,5.7,0,8.7c0.9,0,1.8,0.1,2.7,0.1c0,2.5,0,5,0,7.5c-4.5,0-9,0-13.6,0
		c0-0.5,0-0.9,0-1.4c0-4.7,0-9.4,0-14.2c0-2.7-1.4-3.8-4-3.2c-1.2,0.2-2.1,0.9-2.1,2.2c-0.1,3,0,5.9,0,9c0.9,0,1.7,0.1,2.7,0.1
		c0,2.5,0,5,0,7.5c-5.5,0-10.8,0-16.3,0c0-2.5,0-4.9,0-7.5c0.8,0,1.7,0,2.7,0c0-3.7,0-7.3,0-11c-0.8,0-1.7,0-2.7,0c0-2.6,0-5,0-7.6
		c4.1,0,8.2,0,12.5,0c0,1,0,2,0,3.2c2.6-2.6,5.5-3.9,9-4.1c3.5-0.2,6.5,0.6,8.8,3.6c2-1.7,4.2-3,6.8-3.4c1.5-0.2,3.1-0.3,4.6-0.1
		c3.7,0.5,6,3.1,6.1,6.9c0.2,3.6,0.1,7.1,0.1,10.7C86.3,36.2,86.3,36.7,86.3,37.3z"/>
	<path class="st0" d="M25.1,8.9c0-1,0-1.8,0-2.6c3.2,0,6.3,0,9.5,0c0,3.6,0,7.1,0,10.7c-0.3,0-0.7,0.1-1,0.1c-1.6,0-3.2-0.1-4.7,0
		c-2.2,0.1-4.1-0.2-5.9-2c-2.4-2.4-5.8-2.7-9.1-2c-1.6,0.3-2.4,1.3-2.5,2.4c-0.1,1.1,0.7,2.2,2.2,2.6c2.6,0.7,5.2,1.1,7.9,1.6
		c2.2,0.5,4.4,0.9,6.5,1.6c6.3,2.3,8.5,7,7.7,13.3c-0.8,6.1-4.9,10-11.1,10.8c-1.8,0.2-3.7,0.3-5.5,0.2c-3-0.2-5.8-1.3-8.2-3.8
		c0,1.1,0,2,0,2.9c-3.2,0-6.3,0-9.6,0c0-2,0-3.9,0-5.9c0-2,0-4,0-6.2c1.4,0,2.7,0,4,0c0.7,0,1.5,0,2.2,0c2.1-0.2,3.9,0,5.4,2.2
		c1.9,2.7,7.1,3.3,10.1,1.9c1-0.5,1.6-1.2,1.6-2.4c0-1.2-0.6-2.1-1.7-2.5c-2.3-0.7-4.6-1.2-6.9-1.7c-2.6-0.6-5.3-1-7.8-1.8
		C2.8,26.7,0.3,23.5,0,18.2C-0.3,13.5,2.4,9,7.1,7c6-2.5,12-2.8,17.4,1.7C24.6,8.7,24.7,8.8,25.1,8.9z"/>
	<path class="st0" d="M172.9,26.6c-2.2,0-4.2,0-6.3,0c0-2.6,0-5.2,0-7.8c2.9,0,5.7,0,8.5,0c0.8-2,1.7-3.9,2.4-5.9
		c1.3-3.1,3.1-5.9,5.4-8.3c4-4.2,8.9-5.6,14.4-4c4.8,1.4,8,6.4,7.2,10.9c-0.7,3.7-4.4,5.4-7.4,3.3c-1.9-1.4-2.4-3.7-1.1-5.7
		c0.4-0.7,0.1-1.4-0.9-1.6c-1.3-0.4-2.7-0.2-3.8,0.7c-1.4,1.2-2.8,2.5-3.8,4.1c-1.1,1.9-1.7,4.1-2.6,6.5c1.7,0,3.1,0,4.6,0
		c0,2.7,0,5.2,0,7.9c-1.6,0-3.2,0.1-4.7,0c-1.1-0.1-1.5,0.3-1.8,1.3c-2.1,7.3-4.3,14.6-6.7,21.8c-0.9,2.7-2.3,5.3-3.9,7.7
		c-3.5,5.2-11.7,7.6-17.6,5.3c-0.5-0.2-0.9-0.5-1.5-0.8c0.8-1.8,1.5-3.6,2.3-5.4c0.6,0.1,1.2,0.1,1.7,0.1c2.6,0.2,4.8-0.6,6.2-2.8
		c1.2-1.9,2.3-3.9,3-6c2.1-6.8,4-13.6,5.9-20.4C172.8,27.2,172.8,27,172.9,26.6z"/>
	<path class="st0" d="M293.1,37.3c1,0,1.9,0,2.9,0c0,2.6,0,5,0,7.6c-4.3,0-8.6,0-13.1,0c0-0.9-0.1-1.8-0.2-2.8
		c-0.3,0.2-0.4,0.3-0.5,0.4c-5.2,5.6-16.3,4.8-19.7-5.1c-1.4-4.2-1.3-8.4,0.4-12.5c2.7-6.5,10.6-9,16.8-5.4c0.8,0.5,1.6,1,2.4,1.6
		c0-2.4,0-4.8,0-7.3c-1.3,0-2.5,0-3.9,0c0-2.6,0-5,0-7.6c4.9,0,9.8,0,14.8,0C293.1,16.6,293.1,26.9,293.1,37.3z M282.8,31.6
		c0-2.8-2.2-5.1-5-5.1c-2.7-0.1-5,2.3-5,5.1c0,2.8,2.1,5,4.9,5C280.5,36.6,282.8,34.3,282.8,31.6z"/>
	<path class="st0" d="M144.1,37.4c1.1,0,2,0,3,0c0,2.6,0,5,0,7.5c-5.6,0-11.1,0-16.7,0c0-2.5,0-4.9,0-7.5c0.9,0,1.8,0,2.8,0
		c0-7.9,0-15.6,0-23.5c-0.8,0-1.7,0-2.7,0c0-2.6,0-5,0-7.6c4.5,0,9,0,13.7,0c0,4.5,0,9,0,13.4c2.3-0.5,4.4-1.3,6.5-1.5
		c2.5-0.2,5.1-0.1,7.6,0.3c2.7,0.5,4.2,2.5,4.3,5.3c0.1,4,0.1,7.9,0.1,11.9c0,0.5,0,1,0,1.7c1.1,0,2,0,3.1,0c0,2.6,0,5,0,7.6
		c-4.7,0-9.4,0-14.2,0c0-0.5,0-0.9,0-1.4c0-4.5,0-8.9,0-13.4c0-0.5,0-0.9,0-1.4c-0.3-2.3-1.4-3.2-3.7-3.1c-2.3,0.1-3.6,1.2-3.6,3.4
		C144.1,31.7,144.1,34.4,144.1,37.4z"/>
	<path class="st0" d="M242,34c-6.8,0-13.3,0-19.9,0c-0.4,2,0.5,3.8,2.2,4.6c2.3,1,5.1,0.5,6.8-1.3c0.3-0.3,0.8-0.4,1.2-0.4
		c2.8,0.5,5.6,1.1,8.7,1.7c-0.7,1-1.2,1.9-1.8,2.7c-2.6,2.9-6.1,4.1-9.9,4.5c-3.3,0.3-6.5,0-9.7-1.1c-5.6-1.9-8.7-6.1-8.9-11.9
		c-0.2-6.4,2.7-11.2,8.3-13.4c4.8-1.9,9.6-1.9,14.5-0.4c4.6,1.5,6.9,5,7.8,9.6C241.7,30.2,241.8,32,242,34z M231.4,29.6
		c0.1-3.4-1.5-5.2-4.4-5.2c-3.2,0-5.3,2.1-5.1,5.2C225,29.6,228.2,29.6,231.4,29.6z"/>
	<path class="st0" d="M243.2,44.9c0-2.5,0-4.9,0-7.5c1,0,2,0,3.1,0c0-7.9,0-15.6,0-23.6c-1,0-2,0-3.1,0c0-2.6,0-5,0-7.6
		c4.6,0,9.2,0,14,0c0,10.3,0,20.6,0,31c1.1,0,2,0,3,0c0,2.6,0,5,0,7.6C254.6,44.9,249,44.9,243.2,44.9z"/>
	<path class="st0" d="M127,26.4c-1.2,0-2.3,0-3.5,0c0,3,0,5.9,0,8.8c0,1,0.6,1.6,1.6,1.6c0.6,0,1.2,0,1.9,0c0,2.8,0,5.4,0,8.4
		c-3.5-0.1-6.9-0.1-10.3-0.5c-2.5-0.3-3.9-2.3-4-5c-0.1-3.8,0-7.7-0.1-11.5c0-0.5,0-1,0-1.7c-1,0-2,0-3,0c0-2.6,0-5.1,0-7.7
		c1,0,1.9,0,3,0c0-2.3,0-4.5,0-6.7c0.6-0.1,1-0.1,1.5-0.2c2.3-0.4,4.1-1.6,5-3.9c0.3-0.7,0.6-1,1.4-0.9c0.9,0.1,1.9,0,2.9,0
		c0,3.9,0,7.7,0,11.6c1.3,0,2.4,0,3.6,0C127,21.3,127,23.8,127,26.4z"/>
	<path class="st0" d="M192.7,37.3c0.9,0,1.8,0,2.8,0c0-3.6,0-7.1,0-10.7c-0.9,0-1.8,0-2.8,0c0-2.6,0-5.2,0-7.8c4.5,0,9,0,13.7,0
		c0,6.1,0,12.3,0,18.5c1.1,0,2,0,3,0c0,2.6,0,5,0,7.6c-5.5,0-11.1,0-16.7,0C192.7,42.4,192.7,40,192.7,37.3z"/>
	<path class="st0" d="M105.9,18.8c0,6.2,0,12.2,0,18.5c1,0,2,0,3,0c0,2.6,0,5.1,0,7.6c-5.5,0-11.1,0-16.7,0c0-2.5,0-4.9,0-7.5
		c0.9,0,1.8,0,2.8,0c0-3.7,0-7.3,0-11c-0.9,0-1.9,0-2.8,0c0-2.6,0-5,0-7.6C96.6,18.8,101.2,18.8,105.9,18.8z"/>
	<path class="st0" d="M100.1,3.7c3.3,0,6,2.8,6,6.1c0,3.3-2.8,5.9-6.2,5.9c-3.3-0.1-5.8-2.7-5.8-6C94.1,6.3,96.9,3.6,100.1,3.7z"/>
</g>
</svg>
