<?xml version="1.0" encoding="utf-8"?>
<!-- Generator: Adobe Illustrator 24.0.2, SVG Export Plug-In . SVG Version: 6.00 Build 0)  -->
<svg version="1.1" id="Layer_1" xmlns="http://www.w3.org/2000/svg" xmlns:xlink="http://www.w3.org/1999/xlink" x="0px" y="0px"
	 viewBox="0 0 104 21" style="enable-background:new 0 0 104 21;" xml:space="preserve">
<style type="text/css">
	.st0{fill:#404040;}
	.st1{fill:#A1A1A1;}
</style>
<path class="st0" d="M0,15.5c0.3-0.2,0.2-0.5,0.2-0.8c0.2-0.8,0.1-0.8,0.9-0.8c1.4,0,2.8,0,4.2,0c1.5,0,1.9-0.9,1.8-2.1
	c0-0.4-0.3-0.7-0.7-0.7c-0.6-0.1-1.1,0-1.7,0c-0.8,0-1.7,0.1-2.5-0.1c-0.8-0.2-1.5-0.6-1.8-1.5c0-0.2,0-0.4,0-0.6
	c0-0.8,0.1-1.6,0.4-2.4c0.5-1.3,1.5-2.1,2.9-2.1c2-0.1,4,0,5.9-0.1c0.2,0,0.3,0.1,0.2,0.3c0,0.4-0.1,0.9-0.2,1.3
	c0,0.3-0.2,0.3-0.4,0.3c-1.6,0-3.1,0-4.7,0c-1.2,0-1.9,0.7-1.8,1.9c0,0.4,0.2,0.7,0.6,0.8C3.6,9,3.9,9,4.2,9c1,0,1.9,0,2.9,0
	C7.6,9,8,9.1,8.4,9.3c0.9,0.4,1.3,1.3,1.2,2.4c-0.1,0.6-0.2,1.2-0.3,1.7c-0.4,1.4-1.7,2.5-3.3,2.5c-2,0-4,0-5.9,0
	C0,15.8,0,15.7,0,15.5z"/>
<path class="st1" d="M103.5,4.6L103.5,4.6c0.1,0.1,0.1,0.3,0.1,0.4l0,0l0,0C103.4,4.8,103.4,4.7,103.5,4.6z"/>
<path class="st0" d="M103.5,4.6c0,0.1,0,0.3,0,0.4c-0.1,0.3-0.4,0.5-0.7,0.6c-7.5,2.4-15,4.9-22.5,7.3c-3.1,1-6.2,2-9.3,3
	C70.8,16,70.6,16,70.5,16c-0.2,0-0.3,0-0.4-0.2s0-0.3,0.1-0.4c0.1-0.1,0.3-0.2,0.4-0.3c4.9-2.5,9.8-4.9,14.8-7.4
	c0.1-0.1,0.3-0.1,0.4-0.2C85.9,7.4,86,7.3,86,7.1c0-0.2-0.2-0.3-0.4-0.4c-0.8-0.2-1.6-0.4-2.4-0.6c-2.1-0.5-4.2-1-6.3-1.5
	c-0.2-0.1-0.6,0-0.5-0.4c0-0.3,0.4-0.1,0.6-0.1c8.5,0,17.1,0,25.6,0C102.9,4.2,103.3,4.2,103.5,4.6z"/>
<path class="st0" d="M57.6,0c-0.3,1.3-0.6,2.5-0.9,3.7c-0.1,0.3-0.2,0.4-0.6,0.4c-1.7,0-3.4,0-5.1,0c-1.9,0.1-3.3,1.3-3.6,3.2
	c-0.3,1.7-0.6,3.3-0.9,5c-0.1,0.5-0.2,1-0.1,1.5c0.1,1.1,1,1.9,2.3,1.9c1.6,0.1,3.2,0.1,4.8,0c2,0,3.2-1.1,3.6-3.1
	c0.1-0.7,0.3-1.5,0.4-2.2c0.7-3.4,1.3-6.9,2-10.3C58.7,0.1,58,0.1,57.6,0z M55.9,6.8c-0.3,1.8-0.6,3.7-1,5.5
	c-0.1,0.8-0.8,1.4-1.7,1.4c-1.2,0.1-2.4,0.1-3.6,0c-0.8-0.1-1.2-0.5-1-1.3c0.3-1.5,0.5-3.1,0.8-4.6c0.2-0.9,0.8-1.5,1.8-1.6
	c0.6,0,1.3,0.1,2.1,0c0.7,0,1.4,0,2.1,0C55.9,6.2,56,6.4,55.9,6.8z"/>
<path class="st0" d="M21,4.6c-0.4-0.2-0.7-0.3-1.1-0.3c-1.7-0.1-3.3-0.1-5,0c-2.1,0.1-3.2,1.1-3.5,3.2c-0.3,1.9-0.6,3.7-0.9,5.5
	c-0.4,2.2-0.8,4.5-1.2,6.7c-0.1,0.3,0,0.4,0.3,0.4c0.5,0,1,0,1.5,0c0.3,0,0.4,0,0.4-0.3c0.2-1.2,0.4-2.3,0.6-3.4
	c0-0.4,0.1-0.5,0.5-0.5c0.8,0,1.6,0,2.4,0s1.6,0,2.5,0c2.1,0,3.5-1.5,3.7-3.1c0.2-1.2,0.4-2.3,0.6-3.5c0.1-1,0.4-1.9,0.4-2.9
	C22.2,5.6,21.8,4.9,21,4.6z M19.9,7.8c-0.3,1.6-0.5,3.2-0.8,4.8c-0.2,0.9-0.8,1.4-1.8,1.4c-0.8-0.1-1.4-0.1-2.1-0.1s-1.3,0-2,0
	c-0.5,0-0.6-0.2-0.5-0.6c0.3-1.8,0.6-3.6,1-5.5c0.2-1,0.8-1.5,1.8-1.5c1.1,0,2.2,0,3.2,0C19.6,6.3,20.1,6.8,19.9,7.8z"/>
<path class="st0" d="M32.3,4.2c-0.8-0.1-1.5-0.1-2.3-0.1c-1.1,0-2.2,0-3.3,0.1C25,4.4,23.9,5.4,23.6,7c-0.2,0.9-0.3,1.8-0.5,2.8
	c-0.2,1.2-0.5,2.3-0.6,3.4c0,0.8,0.1,1.5,0.8,2c0.4,0.4,0.9,0.6,1.5,0.6c2.5,0.1,5.1,0,7.6,0c0.2,0,0.3-0.1,0.3-0.3
	c0-0.5,0.1-0.9,0.2-1.4c0.1-0.3,0-0.3-0.3-0.3c-1.7,0-3.5,0-5.3,0c-0.5,0-0.9,0-1.3,0c-0.8,0-1.2-0.5-1.1-1.3
	c0.1-0.4,0.2-0.8,0.2-1.2c0-0.2,0.1-0.3,0.4-0.3c1.2,0,2.5,0,3.8,0s2.6,0,4-0.1c0.2,0,0.4,0.1,0.4-0.2c0.2-1.4,0.5-2.7,0.6-4.1
	C34.4,5.2,33.7,4.4,32.3,4.2z M31.6,9c0,0.3-0.2,0.3-0.4,0.3c-0.9,0-1.8,0-2.7,0s-1.9,0-2.8,0c-0.3,0-0.3-0.1-0.3-0.3
	c0.1-0.4,0.1-0.8,0.2-1.2c0.1-0.9,0.7-1.4,1.7-1.5c1.1-0.1,2.3-0.1,3.4,0c0.9,0.1,1.2,0.5,1.1,1.3C31.8,8.1,31.7,8.5,31.6,9z"/>
<path class="st0" d="M43.9,4.3c-1.8-0.2-3.5-0.2-5.3,0C37,4.5,36,5.4,35.6,7c-0.4,2.1-0.8,4.2-1,6.3c-0.2,1.5,0.7,2.6,2.2,2.6
	c2.4,0,4.7,0,7.1,0c0.2,0,0.3-0.1,0.3-0.3c0-0.4,0.1-0.9,0.2-1.3c0.1-0.3,0-0.4-0.3-0.4c-1.8,0-3.6,0-5.4,0c-0.3,0-0.7,0-1,0
	c-0.6-0.1-1-0.5-0.9-1.1c0.1-0.5,0.2-0.9,0.2-1.4c0-0.3,0.1-0.4,0.4-0.4c1.2,0,2.4,0,3.6,0c1.3,0,2.5,0,3.8,0c0.2,0,0.4,0.1,0.4-0.2
	c0.2-1.4,0.5-2.8,0.6-4.2C45.9,5.3,45.2,4.4,43.9,4.3z M43.2,9.1c0,0.3-0.1,0.3-0.4,0.3c-0.7-0.1-1.6-0.1-2.5-0.1
	c-0.9,0-1.7,0-2.6,0c-0.3,0-0.4-0.1-0.3-0.3c0.1-0.3,0.1-0.7,0.1-1c0.1-1,0.6-1.5,1.6-1.6c1.1-0.1,2.2-0.1,3.2,0
	c0.8,0.1,1.2,0.5,1.1,1.3C43.3,8.2,43.3,8.6,43.2,9.1z"/>
<path class="st0" d="M67.8,4.3c-1.7,0-3.5,0-5.2,0c-0.5,0-1,0.1-1.5,0.4c-1.1,0.6-1.5,1.6-1.7,2.7c-0.4,1.8-0.7,3.6-1,5.4
	c-0.3,2,0.6,3.1,2.6,3.1c0.7,0,1.5,0,2.2,0c0.8,0,1.6,0,2.4,0c1.8,0,3.1-1.1,3.4-2.9c0.3-2,0.7-4,1-6C70.3,5.5,69.4,4.3,67.8,4.3z
	 M67.3,10.1c-0.1,0.8-0.3,1.5-0.4,2.3c-0.2,1-0.8,1.5-1.8,1.5c-0.5-0.1-1-0.1-1.6,0c-0.6,0-1.1,0-1.7,0c-0.9,0-1.4-0.5-1.2-1.4
	c0.2-1.3,0.4-2.5,0.7-3.8c0.1-0.4,0.1-0.7,0.2-1.1c0.2-0.8,0.7-1.3,1.5-1.3c1.2-0.1,2.5-0.1,3.7,0c0.7,0,1.1,0.5,1,1.1
	C67.7,8.3,67.4,9.2,67.3,10.1z"/>
</svg>
