<?xml version="1.0" encoding="UTF-8"?>
<svg width="180px" height="11px" viewBox="0 0 180 11" version="1.1" xmlns="http://www.w3.org/2000/svg" xmlns:xlink="http://www.w3.org/1999/xlink">
    <title>Tommy_Hilfiger_Tailored_logo</title>
    <g id="Welcome" stroke="none" stroke-width="1" fill="none" fill-rule="evenodd" opacity="0.75">
        <g id="Tablet-Portrait" transform="translate(-379.000000, -1080.000000)" fill="#000000" fill-rule="nonzero">
            <g id="Group-4" transform="translate(41.000000, 1065.000000)">
                <g id="Tommy_Hilfiger_Tailored_logo" transform="translate(338.221198, 15.423963)">
                    <polyline id="path4213" points="8 1.29824561 4.65822785 1.29824561 4.65822785 10 3.30801688 10 3.30801688 1.29824561 0 1.29824561 0 0 8 0 8 1.29824561"></polyline>
                    <path d="M18.4640523,0 C16.0555556,0 14.5457516,1.46757679 14.5457516,1.46757679 C13,2.93515358 13,4.98293515 13,4.98293515 C13,7.06484642 14.4738562,8.49829352 14.4738562,8.49829352 C15.9836601,10 18.4640523,10 18.4640523,10 C20.9803922,10 22.5261438,8.46416382 22.5261438,8.46416382 C24,7.06484642 24,4.98293515 24,4.98293515 C24,2.93515358 22.5261438,1.46757679 22.5261438,1.46757679 C20.9803922,0 18.4640523,0 18.4640523,0 Z M18.4640523,1.29692833 C20.2254902,1.29692833 21.3398693,2.35494881 21.3398693,2.35494881 C22.4901961,3.41296928 22.4901961,4.98293515 22.4901961,4.98293515 C22.4901961,6.55290102 21.3398693,7.64505119 21.3398693,7.64505119 C20.2254902,8.66894198 18.4640523,8.66894198 18.4640523,8.66894198 C16.7385621,8.66894198 15.6601307,7.64505119 15.6601307,7.64505119 C14.5457516,6.55290102 14.5457516,4.98293515 14.5457516,4.98293515 C14.5457516,3.41296928 15.6601307,2.35494881 15.6601307,2.35494881 C16.7385621,1.29692833 18.4640523,1.29692833 18.4640523,1.29692833 Z" id="path4215"></path>
                    <polyline id="path4219" points="39 10 37.6075472 10 37.6075472 2.21052632 34.6188679 6.07017544 34.3811321 6.07017544 31.4264151 2.21052632 31.3924528 2.21052632 31.3924528 10 30 10 30 0 31.290566 0 34.5169811 4.10526316 37.7433962 0 39 0 39 10"></polyline>
                    <polyline id="path4221" points="55 10 53.6075472 10 53.6075472 2.21052632 53.5735849 2.21052632 50.6188679 6.07017544 50.3811321 6.07017544 47.3924528 2.21052632 47.3924528 10 46 10 46 0 47.290566 0 50.4830189 4.10526316 53.6754717 0 55 0 55 10"></polyline>
                    <polyline id="path4223" points="69.4444444 0 71 0 67.6349206 4.70175439 67.6349206 10 66.3650794 10 66.3650794 4.70175439 63 0 64.5873016 0 67.031746 3.47368421 69.4444444 0"></polyline>
                    <polyline id="path4225" points="108 0 108 10 106.672199 10 106.672199 5.64912281 101.360996 5.64912281 101.360996 10 100 10 100 0 101.360996 0 101.360996 4.35087719 106.672199 4.35087719 106.672199 0 108 0"></polyline>
                    <polyline id="path4227" points="115.5 10 114 10 114 0 115.5 0 115.5 10"></polyline>
                    <polyline id="path4229" points="123.428571 8.70175439 128 8.70175439 128 10 122 10 122 0 123.428571 0 123.428571 8.70175439"></polyline>
                    <polyline id="path4231" points="137 1.29824561 133.339869 1.29824561 133.339869 4.07017544 137 4.07017544 137 5.36842105 133.339869 5.36842105 133.339869 10 132 10 132 0 137 0 137 1.29824561"></polyline>
                    <polyline id="path4233" points="143.5 10 142 10 142 0 143.5 0 143.5 10"></polyline>
                    <path d="M156,9.18088737 C156,9.18088737 154.227799,10 152.247104,10 C152.247104,10 149.953668,10 148.494208,8.60068259 C148.494208,8.60068259 147,7.20136519 147,5.05119454 C147,5.05119454 147,2.93515358 148.494208,1.4334471 C148.494208,1.4334471 150.057915,0 152.281853,0 C152.281853,0 153.84556,0 155.826255,0.853242321 L155.826255,2.25255973 C155.826255,2.25255973 154.123552,1.29692833 152.247104,1.29692833 C152.247104,1.29692833 150.648649,1.29692833 149.53668,2.3890785 C149.53668,2.3890785 148.459459,3.44709898 148.459459,4.98293515 C148.459459,4.98293515 148.459459,6.62116041 149.53668,7.64505119 C149.53668,7.64505119 150.683398,8.66894198 152.420849,8.66894198 L154.57529,8.32764505 L154.57529,6.27986348 L152.698842,6.27986348 L152.698842,5.08532423 L156,5.08532423 L156,9.18088737" id="path4235"></path>
                    <polyline id="path4237" points="165.855422 1.29824561 161.445783 1.29824561 161.445783 4.28070175 165.710843 4.28070175 165.710843 5.57894737 161.445783 5.57894737 161.445783 8.70175439 166 8.70175439 166 10 160 10 160 0 165.855422 0 165.855422 1.29824561"></polyline>
                    <path d="M172,0 L172,10 L173.310502,10 L173.310502,5.64912281 L173.853881,5.64912281 C174.39726,5.64912281 174.844749,6 174.844749,6 C175.420091,6.52631579 176.251142,7.96491228 176.251142,7.96491228 L177.43379,10 L179,10 L177.785388,8 C176.506849,5.78947368 175.771689,5.22807018 175.771689,5.22807018 C177.273973,4.56140351 177.273973,2.80701754 177.273973,2.80701754 C177.273973,1.50877193 176.474886,0.736842105 176.474886,0.736842105 C175.675799,0 174.269406,0 174.269406,0 L172,0 Z M173.310502,1.26315789 L174.141553,1.26315789 C175.931507,1.26315789 175.931507,2.73684211 175.931507,2.73684211 C175.931507,4.35087719 174.141553,4.35087719 174.141553,4.35087719 L173.310502,4.35087719 L173.310502,1.26315789 Z" id="path4241"></path>
                    <path d="M77,0 L77,10 L92,10 L92,0 L77,0 Z M78.0046189,1.01754386 L90.9953811,1.01754386 L90.9953811,2.07017544 L78.0046189,2.07017544 L78.0046189,1.01754386 Z M78.0046189,3.0877193 L83.9976905,3.0877193 L83.9976905,6.94736842 L78.0046189,6.94736842 L78.0046189,3.0877193 Z M85.0023095,3.0877193 L90.9953811,3.0877193 L90.9953811,6.94736842 L85.0023095,6.94736842 L85.0023095,3.0877193 Z M78.0046189,7.96491228 L90.9953811,7.96491228 L90.9953811,8.98245614 L78.0046189,8.98245614 L78.0046189,7.96491228 Z" id="path4267"></path>
                </g>
            </g>
        </g>
    </g>
</svg>