<svg height="11" viewBox="0 0 180 11" width="180" xmlns="http://www.w3.org/2000/svg"><g opacity=".75" transform="translate(.221198 .423963)"><path d="m8 1.29824561h-3.34177215v8.70175439h-1.35021097v-8.70175439h-3.30801688v-1.29824561h8z"/><path d="m18.4640523 0c-2.4084967 0-3.9183007 1.46757679-3.9183007 1.46757679-1.5457516 1.46757679-1.5457516 3.51535836-1.5457516 3.51535836 0 2.08191127 1.4738562 3.51535837 1.4738562 3.51535837 1.5098039 1.50170648 3.9901961 1.50170648 3.9901961 1.50170648 2.5163399 0 4.0620915-1.53583618 4.0620915-1.53583618 1.4738562-1.3993174 1.4738562-3.48122867 1.4738562-3.48122867 0-2.04778157-1.4738562-3.51535836-1.4738562-3.51535836-1.5457516-1.46757679-4.0620915-1.46757679-4.0620915-1.46757679zm0 1.29692833c1.7614379 0 2.875817 1.05802048 2.875817 1.05802048 1.1503268 1.05802047 1.1503268 2.62798634 1.1503268 2.62798634 0 1.56996587-1.1503268 2.66211604-1.1503268 2.66211604-1.1143791 1.02389079-2.875817 1.02389079-2.875817 1.02389079-1.7254902 0-2.8039216-1.02389079-2.8039216-1.02389079-1.1143791-1.09215017-1.1143791-2.66211604-1.1143791-2.66211604 0-1.56996587 1.1143791-2.62798634 1.1143791-2.62798634 1.0784314-1.05802048 2.8039216-1.05802048 2.8039216-1.05802048z"/><path d="m39 10h-1.3924528v-7.78947368l-2.9886793 3.85964912h-.2377358l-2.954717-3.85964912h-.0339623v7.78947368h-1.3924528v-10h1.290566l3.2264151 4.10526316 3.2264151-4.10526316h1.2566038z"/><path d="m55 10h-1.3924528v-7.78947368h-.0339623l-2.954717 3.85964912h-.2377358l-2.9886793-3.85964912v7.78947368h-1.3924528v-10h1.290566l3.1924529 4.10526316 3.1924528-4.10526316h1.3245283z"/><path d="m69.4444444 0h1.5555556l-3.3650794 4.70175439v5.29824561h-1.2698412v-5.29824561l-3.3650794-4.70175439h1.5873016l2.4444444 3.47368421z"/><path d="m108 0v10h-1.327801v-4.35087719h-5.311203v4.35087719h-1.360996v-10h1.360996v4.35087719h5.311203v-4.35087719z"/><path d="m115.5 10h-1.5v-10h1.5z"/><path d="m123.428571 8.70175439h4.571429v1.29824561h-6v-10h1.428571z"/><path d="m137 1.29824561h-3.660131v2.77192983h3.660131v1.29824561h-3.660131v4.63157895h-1.339869v-10h5z"/><path d="m143.5 10h-1.5v-10h1.5z"/><path d="m156 9.18088737s-1.772201.81911263-3.752896.81911263c0 0-2.293436 0-3.752896-1.39931741 0 0-1.494208-1.3993174-1.494208-3.54948805 0 0 0-2.11604096 1.494208-3.61774744 0 0 1.563707-1.4334471 3.787645-1.4334471 0 0 1.563707 0 3.544402.85324232v1.39931741s-1.702703-.9556314-3.579151-.9556314c0 0-1.598455 0-2.710424 1.09215017 0 0-1.077221 1.05802048-1.077221 2.59385665 0 0 0 1.63822526 1.077221 2.66211604 0 0 1.146718 1.02389079 2.884169 1.02389079l2.154441-.34129693v-2.04778157h-1.876448v-1.19453925h3.301158z"/><path d="m165.855422 1.29824561h-4.409639v2.98245614h4.26506v1.29824562h-4.26506v3.12280702h4.554217v1.29824561h-6v-10h5.855422z"/><path d="m172 0v10h1.310502v-4.35087719h.543379c.543379 0 .990868.35087719.990868.35087719.575342.52631579 1.406393 1.96491228 1.406393 1.96491228l1.182648 2.03508772h1.56621l-1.214612-2c-1.278539-2.21052632-2.013699-2.77192982-2.013699-2.77192982 1.502284-.66666667 1.502284-2.42105264 1.502284-2.42105264 0-1.29824561-.799087-2.07017543-.799087-2.07017543-.799087-.73684211-2.20548-.73684211-2.20548-.73684211zm1.310502 1.26315789h.831051c1.789954 0 1.789954 1.47368422 1.789954 1.47368422 0 1.61403508-1.789954 1.61403508-1.789954 1.61403508h-.831051z"/><path d="m77 0v10h15v-10zm1.0046189 1.01754386h12.9907622v1.05263158h-12.9907622zm0 2.07017544h5.9930716v3.85964912h-5.9930716zm6.9976906 0h5.9930716v3.85964912h-5.9930716zm-6.9976906 4.87719298h12.9907622v1.01754386h-12.9907622z"/></g></svg>