<?xml version="1.0" encoding="UTF-8"?>
<svg width="180px" height="11px" viewBox="0 0 180 11" version="1.1" xmlns="http://www.w3.org/2000/svg" xmlns:xlink="http://www.w3.org/1999/xlink">
    <title>Tommy_Hilfiger_Tailored_logo</title>
    <g id="Welcome" stroke="none" stroke-width="1" fill="none" fill-rule="evenodd" opacity="0.75">
        <g id="Tablet-Portrait" transform="translate(-379.000000, -1080.000000)" fill="#000000" fill-rule="nonzero">
            <g id="Tommy_Hilfiger_Tailored_logo" transform="translate(379.000000, 1080.000000)">
                <polyline id="path4213" points="8.22119816 1.72220875 4.879426 1.72220875 4.879426 10.4239631 3.52921503 10.4239631 3.52921503 1.72220875 0.221198157 1.72220875 0.221198157 0.423963134 8.22119816 0.423963134 8.22119816 1.72220875"></polyline>
                <path d="M18.6852504,0.423963134 C16.2767537,0.423963134 14.7669498,1.89153993 14.7669498,1.89153993 C13.2211982,3.35911672 13.2211982,5.40689829 13.2211982,5.40689829 C13.2211982,7.48880955 14.6950544,8.92225665 14.6950544,8.92225665 C16.2048583,10.4239631 18.6852504,10.4239631 18.6852504,10.4239631 C21.2015903,10.4239631 22.7473419,8.88812696 22.7473419,8.88812696 C24.2211982,7.48880955 24.2211982,5.40689829 24.2211982,5.40689829 C24.2211982,3.35911672 22.7473419,1.89153993 22.7473419,1.89153993 C21.2015903,0.423963134 18.6852504,0.423963134 18.6852504,0.423963134 Z M18.6852504,1.72089146 C20.4466884,1.72089146 21.5610674,2.77891194 21.5610674,2.77891194 C22.7113942,3.83693242 22.7113942,5.40689829 22.7113942,5.40689829 C22.7113942,6.97686416 21.5610674,8.06901433 21.5610674,8.06901433 C20.4466884,9.09290511 18.6852504,9.09290511 18.6852504,9.09290511 C16.9597602,9.09290511 15.8813289,8.06901433 15.8813289,8.06901433 C14.7669498,6.97686416 14.7669498,5.40689829 14.7669498,5.40689829 C14.7669498,3.83693242 15.8813289,2.77891194 15.8813289,2.77891194 C16.9597602,1.72089146 18.6852504,1.72089146 18.6852504,1.72089146 Z" id="path4215"></path>
                <polyline id="path4219" points="39.2211982 10.4239631 37.8287453 10.4239631 37.8287453 2.63448945 34.8400661 6.49413857 34.6023302 6.49413857 31.6476133 2.63448945 31.613651 2.63448945 31.613651 10.4239631 30.2211982 10.4239631 30.2211982 0.423963134 31.5117642 0.423963134 34.7381793 4.52922629 37.9645944 0.423963134 39.2211982 0.423963134 39.2211982 10.4239631"></polyline>
                <polyline id="path4221" points="55.2211982 10.4239631 53.8287453 10.4239631 53.8287453 2.63448945 53.7947831 2.63448945 50.8400661 6.49413857 50.6023302 6.49413857 47.613651 2.63448945 47.613651 10.4239631 46.2211982 10.4239631 46.2211982 0.423963134 47.5117642 0.423963134 50.704217 4.52922629 53.8966699 0.423963134 55.2211982 0.423963134 55.2211982 10.4239631"></polyline>
                <polyline id="path4223" points="69.6656426 0.423963134 71.2211982 0.423963134 67.8561188 5.12571752 67.8561188 10.4239631 66.5862775 10.4239631 66.5862775 5.12571752 63.2211982 0.423963134 64.8084997 0.423963134 67.2529442 3.89764734 69.6656426 0.423963134"></polyline>
                <polyline id="path4225" points="108.221198 0.423963134 108.221198 10.4239631 106.893397 10.4239631 106.893397 6.07308594 101.582194 6.07308594 101.582194 10.4239631 100.221198 10.4239631 100.221198 0.423963134 101.582194 0.423963134 101.582194 4.77484033 106.893397 4.77484033 106.893397 0.423963134 108.221198 0.423963134"></polyline>
                <polyline id="path4227" points="115.221198 10.4239631 113.221198 10.4239631 113.221198 0.423963134 115.221198 0.423963134 115.221198 10.4239631"></polyline>
                <polyline id="path4229" points="123.64977 9.12571752 128.221198 9.12571752 128.221198 10.4239631 122.221198 10.4239631 122.221198 0.423963134 123.64977 0.423963134 123.64977 9.12571752"></polyline>
                <polyline id="path4231" points="137.221198 1.72220875 133.561067 1.72220875 133.561067 4.49413857 137.221198 4.49413857 137.221198 5.79238419 133.561067 5.79238419 133.561067 10.4239631 132.221198 10.4239631 132.221198 0.423963134 137.221198 0.423963134 137.221198 1.72220875"></polyline>
                <polyline id="path4233" points="142.221198 10.4239631 140.221198 10.4239631 140.221198 0.423963134 142.221198 0.423963134 142.221198 10.4239631"></polyline>
                <path d="M156.221198,9.60485051 C156.221198,9.60485051 154.448997,10.4239631 152.468302,10.4239631 C152.468302,10.4239631 150.174866,10.4239631 148.715407,9.02464573 C148.715407,9.02464573 147.221198,7.62532832 147.221198,5.47515767 C147.221198,5.47515767 147.221198,3.35911672 148.715407,1.85741023 C148.715407,1.85741023 150.279113,0.423963134 152.503051,0.423963134 C152.503051,0.423963134 154.066758,0.423963134 156.047453,1.27720545 L156.047453,2.67652286 C156.047453,2.67652286 154.34475,1.72089146 152.468302,1.72089146 C152.468302,1.72089146 150.869847,1.72089146 149.757878,2.81304163 C149.757878,2.81304163 148.680658,3.87106211 148.680658,5.40689829 C148.680658,5.40689829 148.680658,7.04512354 149.757878,8.06901433 C149.757878,8.06901433 150.904596,9.09290511 152.642048,9.09290511 L154.796488,8.75160818 L154.796488,6.70382661 L152.92004,6.70382661 L152.92004,5.50928737 L156.221198,5.50928737 L156.221198,9.60485051" id="path4235"></path>
                <polyline id="path4237" points="166.07662 1.72220875 161.666981 1.72220875 161.666981 4.70466489 165.932042 4.70466489 165.932042 6.0029105 161.666981 6.0029105 161.666981 9.12571752 166.221198 9.12571752 166.221198 10.4239631 160.221198 10.4239631 160.221198 0.423963134 166.07662 0.423963134 166.07662 1.72220875"></polyline>
                <path d="M172.221198,0.423963134 L172.221198,10.4239631 L173.5317,10.4239631 L173.5317,6.07308594 L174.075079,6.07308594 C174.618458,6.07308594 175.065947,6.42396313 175.065947,6.42396313 C175.641289,6.95027892 176.47234,8.38887541 176.47234,8.38887541 L177.654988,10.4239631 L179.221198,10.4239631 L178.006586,8.42396313 C176.728047,6.21343682 175.992888,5.65203331 175.992888,5.65203331 C177.495171,4.98536664 177.495171,3.23098068 177.495171,3.23098068 C177.495171,1.93273506 176.696084,1.16080524 176.696084,1.16080524 C175.896997,0.423963134 174.490605,0.423963134 174.490605,0.423963134 L172.221198,0.423963134 Z M173.5317,1.68712103 L174.362751,1.68712103 C176.152705,1.68712103 176.152705,3.16080524 176.152705,3.16080524 C176.152705,4.77484033 174.362751,4.77484033 174.362751,4.77484033 L173.5317,4.77484033 L173.5317,1.68712103 Z" id="path4241"></path>
                <path d="M77.2211982,0.423963134 L77.2211982,10.4239631 L92.2211982,10.4239631 L92.2211982,0.423963134 L77.2211982,0.423963134 Z M78.2258171,1.44150699 L91.2165792,1.44150699 L91.2165792,2.49413857 L78.2258171,2.49413857 L78.2258171,1.44150699 Z M78.2258171,3.51168243 L84.2188887,3.51168243 L84.2188887,7.37133155 L78.2258171,7.37133155 L78.2258171,3.51168243 Z M85.2235076,3.51168243 L91.2165792,3.51168243 L91.2165792,7.37133155 L85.2235076,7.37133155 L85.2235076,3.51168243 Z M78.2258171,8.38887541 L91.2165792,8.38887541 L91.2165792,9.40641927 L78.2258171,9.40641927 L78.2258171,8.38887541 Z" id="path4267"></path>
            </g>
        </g>
    </g>
</svg>