<?xml version="1.0" encoding="utf-8"?>
<!-- Generator: Adobe Illustrator 24.0.2, SVG Export Plug-In . SVG Version: 6.00 Build 0)  -->
<svg version="1.1" id="Layer_1" xmlns="http://www.w3.org/2000/svg" xmlns:xlink="http://www.w3.org/1999/xlink" x="0px" y="0px"
	 viewBox="0 0 102 22.7" style="enable-background:new 0 0 102 22.7;" xml:space="preserve">
<style type="text/css">
	.st0{fill:#404040;}
</style>
<path class="st0" d="M95.4,11.4c-0.8,0-1.6,0-2.4,0c0-3.7,0-7.4,0-11.1c0.1,0,0.1,0,0.1,0c1.6,0,3.3,0,4.9,0.1c0.5,0,1,0.2,1.5,0.4
	c0.7,0.3,1.1,0.8,1.3,1.6c0.2,0.8,0.2,1.6-0.2,2.3C100.3,5.4,99.7,5.7,99,6c-0.1,0-0.2,0.1-0.4,0.1c1.1,1.8,2.1,3.5,3.1,5.3
	c-0.9,0-1.7,0-2.5,0c-0.2,0-0.3-0.1-0.3-0.2c-0.8-1.5-1.6-3-2.5-4.6c-0.2-0.3-0.7-0.5-1-0.3c-0.1,0-0.1,0.2-0.1,0.3
	c0,0.8,0,1.5,0,2.3c0,0.7,0,1.4,0,2.2C95.4,11.2,95.4,11.3,95.4,11.4z M95.4,3.3c0,0.7,0,1.4,0,2.1c0,0.3,0.1,0.4,0.4,0.4
	c0.2,0,0.4,0,0.7,0c1.1-0.1,1.8-0.6,2-1.5c0.1-0.5,0.1-1,0.1-1.5c-0.1-1.1-0.6-1.6-1.7-1.8c-0.4-0.1-0.7,0-1.1,0
	c-0.2,0-0.3,0.1-0.3,0.3C95.4,1.9,95.4,2.6,95.4,3.3z"/>
<path class="st0" d="M48.9,11.4c-0.6,0-1.1,0-1.7,0c-0.1,0-0.2,0-0.3,0c-0.6,0.2-0.8-0.1-1.1-0.6c-0.7-1.4-1.5-2.8-2.3-4.2
	c-0.1-0.2-0.8-0.4-1-0.2c-0.1,0.1-0.1,0.2-0.1,0.3c0,1.5,0,2.9,0,4.4c0,0.1,0,0.2,0,0.4c-0.8,0-1.6,0-2.4,0c0-0.1,0-0.2,0-0.3
	c0-3.5,0-6.9,0-10.4c0-0.3,0.1-0.4,0.4-0.4c1.2,0,2.5,0,3.7,0c0.7,0,1.4,0.1,2.1,0.3C47.4,0.9,48,1.7,48,2.8c0,0.4,0,0.8,0,1.1
	c-0.2,1-0.9,1.7-1.8,2C46,6,45.9,6,45.8,6.1c0,0,0,0-0.1,0.1C46.8,7.9,47.8,9.6,48.9,11.4z M42.5,3.3c0,0.7,0,1.4,0,2.2
	c0,0.2,0.1,0.3,0.3,0.3c0.2,0,0.5,0,0.7,0c1.1,0,1.9-0.6,2-1.6c0.1-0.6,0-1.1,0-1.7c-0.1-0.8-0.6-1.2-1.3-1.4
	c-0.4-0.1-0.9-0.1-1.3-0.1c-0.3,0-0.4,0.1-0.4,0.4C42.5,2,42.5,2.7,42.5,3.3z"/>
<path class="st0" d="M21.3,11.4c0-3.7,0-7.3,0-11c0,0,0,0,0.1,0c1.6,0,3.2,0,4.7,0.1c2.3,0.1,3.7,1.6,4.1,3.8c0.2,1.5,0.2,3-0.3,4.4
	c-0.7,1.8-2,2.6-3.8,2.7C24.4,11.4,22.8,11.4,21.3,11.4z M23.7,5.8c0,0.7,0,1.5,0,2.2c0,0.8,0,1.6,0,2.5c0,0.2,0,0.3,0.2,0.3
	c0.6,0,1.2,0,1.8-0.2c1.1-0.3,1.6-1.1,1.8-2.1c0.2-0.7,0.2-1.5,0.3-2.3c0.1-1.1,0-2.2-0.3-3.3c-0.3-1.1-1-1.8-2.1-2
	C24.8,1,24.4,1,24,0.9c-0.3,0-0.4,0.1-0.4,0.4C23.7,2.8,23.7,4.3,23.7,5.8z"/>
<path class="st0" d="M74,5.9c0,0.9-0.1,1.8-0.3,2.7c-0.5,1.7-1.7,2.7-3.4,3c-0.9,0.2-1.8,0.1-2.6-0.1c-1.7-0.4-2.8-1.5-3.1-3.3
	c-0.3-1.6-0.3-3.3,0-4.9c0.4-1.9,1.8-3,3.7-3.3C69.2,0,70.1,0,70.9,0.3c1.7,0.6,2.6,1.8,2.9,3.5C73.9,4.5,73.9,5.2,74,5.9z
	 M66.9,5.9c0,0.4,0,0.8,0,1.2c0,0.4,0.1,0.8,0.1,1.2c0.1,0.8,0.3,1.5,0.8,2.2c0.7,0.8,2,0.8,2.7,0c0.4-0.5,0.6-1.1,0.7-1.7
	c0.3-1.9,0.3-3.8,0-5.7c-0.1-0.6-0.3-1.3-0.7-1.8c-0.7-0.9-2-1-2.8-0.1c-0.3,0.4-0.5,0.8-0.6,1.2C66.9,3.6,66.9,4.7,66.9,5.9z"/>
<path class="st0" d="M11.6,2.8c0,1.5,0,2.9,0,4.3c0,1.4,0,2.8,0,4.3c-0.3,0-0.6,0-1,0c0-3.7,0-7.4,0-11c0.3,0,0.6,0,0.9,0
	c0.3,0,0.6,0,0.9,0c0.4-0.1,0.6,0.1,0.8,0.4c1.5,2.6,3.1,5.2,4.6,7.7c0.1,0.1,0.1,0.2,0.2,0.3c0,0,0.1,0,0.1,0C18,6,18,3.2,18,0.4
	c0.4,0,0.7,0,1,0c0,3.7,0,7.3,0,11c-0.3,0-0.6,0-0.9,0c-0.4,0-0.7,0-1.1,0c-0.2,0-0.3-0.1-0.4-0.2c-1.6-2.7-3.2-5.3-4.8-8
	C11.8,3.1,11.7,3,11.6,2.8z"/>
<path class="st0" d="M8.5,0.4c0,0.1,0,0.2,0,0.3c0,2.5,0,4.9,0,7.4c0,0.4,0,0.7-0.1,1.1c-0.2,1.2-0.9,2-2.1,2.3
	c-1.4,0.4-2.8,0.4-4.2-0.1C1,10.9,0.3,10,0.2,8.7c0-0.4-0.1-0.8-0.1-1.2c0-2.3,0-4.5,0-6.8c0-0.1,0-0.2,0-0.4c0.8,0,1.6,0,2.5,0
	c0,0.1,0,0.2,0,0.3c0,2.6,0,5.1,0,7.7c0,0.2,0,0.5,0.1,0.7c0.3,1.3,1.3,1.7,2.5,1.6c0.5,0,1-0.2,1.4-0.5c0.7-0.5,0.9-1.2,0.9-2
	c0-2.5,0-5.1-0.1-7.6c0-0.4,0-0.4,0.4-0.4C8,0.4,8.2,0.4,8.5,0.4z"/>
<path class="st0" d="M63.1,3.4c-0.7,0-1.4,0-2,0c-0.2,0-0.2-0.1-0.2-0.3c-0.1-0.5-0.2-0.9-0.3-1.3c-0.2-0.6-0.7-1.1-1.4-1.1
	c-0.8,0-1.3,0.4-1.6,1c-0.2,0.6-0.4,1.2-0.5,1.8c-0.2,1.4-0.2,2.8-0.1,4.3c0.1,0.8,0.2,1.6,0.6,2.3c0.3,0.6,0.7,1,1.4,1
	c0.7,0,1.2-0.3,1.5-0.9c0.3-0.6,0.4-1.3,0.4-2.1c0.1,0,0.2,0,0.3,0c0.5,0,1.1,0,1.6,0c0.2,0,0.3,0,0.3,0.3c-0.1,1.7-1.3,2.9-2.9,3.2
	c-1,0.2-1.9,0.2-2.8-0.1c-1.4-0.4-2.2-1.4-2.6-2.7c-0.6-1.9-0.6-3.8,0-5.7c0.6-1.9,2-2.9,4-3c0.7,0,1.4,0,2.1,0.2
	C62.3,0.8,63,1.8,63.1,3.4z"/>
<path class="st0" d="M38.1,6c-1.3,0-2.5,0-3.7,0c0,0.1,0,0.2,0,0.3c0,1.3,0,2.7,0,4c0,0.3,0.1,0.4,0.4,0.4c1.2,0,2.4,0,3.6,0
	c0.1,0,0.2,0,0.3,0c0,0.3,0,0.5,0,0.8c-2.2,0-4.4,0-6.7,0c0-3.7,0-7.4,0-11.1c2.2,0,4.5,0,6.7,0c0,0.3,0,0.5,0,0.8
	c-0.1,0-0.1,0-0.2,0c-1.3,0-2.6,0-3.9,0c-0.2,0-0.2,0.1-0.2,0.2c0,1.2,0,2.5,0,3.7c0,0.2,0.1,0.3,0.3,0.2c1,0,2,0,3.1,0
	c0.4,0,0.4,0,0.4,0.4C38.1,5.7,38.1,5.8,38.1,6z"/>
<path class="st0" d="M87.2,1.1c0,0.6,0,1.1,0,1.6c0,0.7,0,1.4,0,2.1c0,0.4,0,0.4,0.4,0.4c1,0,2,0,3,0c0.4,0,0.4,0,0.4,0.4
	c0,0.1,0,0.2,0,0.3c-1.3,0-2.5,0-3.8,0c0,1.6,0,3.1,0,4.7c1.4,0,2.8,0,4.2,0c0,0.3,0,0.5,0,0.8c-0.1,0-0.2,0-0.3,0c-2,0-4.1,0-6.1,0
	c-0.2,0-0.3-0.1-0.3-0.3c0-3.5,0-7,0-10.5c0-0.2,0-0.3,0.3-0.3c2.1,0,4.2,0,6.3,0c0,0,0.1,0,0.1,0c0,0.3,0,0.5,0,0.8
	C90.1,1.1,88.7,1.1,87.2,1.1z"/>
<path class="st0" d="M74.4,0.4c0.8,0,1.7,0,2.5,0c0.9,2.9,1.9,5.8,2.8,8.7c0,0,0.1,0,0.1,0c0.2-0.5,0.3-1.1,0.5-1.6
	c0.7-2.3,1.4-4.5,2.1-6.8c0.1-0.2,0.1-0.3,0.4-0.3c0.2,0,0.5,0,0.7,0c0,0.1,0,0.2-0.1,0.3c-1.2,3.5-2.3,7-3.5,10.5
	c-0.1,0.2-0.2,0.3-0.4,0.3c-0.3,0-0.7,0-1,0c-0.3,0-0.4-0.1-0.4-0.3c-0.6-1.8-1.2-3.6-1.8-5.4C75.6,4,75,2.3,74.5,0.6
	C74.4,0.5,74.4,0.5,74.4,0.4z"/>
<path class="st0" d="M60.3,21.2c0.2-0.8,0.4-1.6,0.7-2.3c0.1-0.3,0.2-0.5,0.2-0.8c0.1-0.3,0.2-0.4,0.5-0.3c-0.2,0.5-0.3,1-0.5,1.5
	c-0.3,0.8-0.5,1.6-0.8,2.4C60.4,22,60.3,22,60,22c-0.2,0-0.4,0-0.5-0.3c-0.3-0.9-0.6-1.8-0.9-2.7c0-0.1-0.1-0.1-0.1-0.3
	c-0.2,0.6-0.4,1.1-0.5,1.5c-0.2,0.5-0.3,1-0.5,1.5C57.4,22.1,57.2,22,57,22c-0.2,0-0.3,0-0.4-0.2c-0.4-1.3-0.8-2.6-1.2-4
	c0,0,0,0,0-0.1c0.2,0,0.5,0,0.7,0c0.1,0,0.2,0.1,0.2,0.2c0.3,0.9,0.5,1.9,0.8,2.8c0,0.1,0.1,0.2,0.1,0.4c0.1-0.1,0.1-0.2,0.1-0.3
	c0.3-1,0.7-2,1-2.9c0.1-0.3,0.2-0.2,0.4-0.2c0.2,0,0.3,0.1,0.3,0.3c0.3,1,0.6,2,1,3C60.1,21.1,60.2,21.2,60.3,21.2
	C60.2,21.2,60.2,21.2,60.3,21.2z"/>
<path class="st0" d="M16.5,17.8c0.3,0,0.6,0,0.9,0c0.3,1.1,0.7,2.3,1,3.5c0.1-0.2,0.1-0.2,0.1-0.3c0.3-1,0.7-1.9,1-2.9
	c0.1-0.2,0.2-0.3,0.4-0.3c0.2,0,0.3,0,0.4,0.3c0.3,1.1,0.7,2.1,1,3.3c0.1-0.2,0.1-0.3,0.1-0.4c0.3-1,0.5-1.9,0.8-2.9
	c0.1-0.3,0.2-0.3,0.5-0.2c-0.1,0.4-0.2,0.8-0.4,1.2c-0.3,0.9-0.6,1.9-0.9,2.8C21.4,22,21.3,22,21.1,22c-0.2,0-0.4,0-0.5-0.2
	c-0.3-0.9-0.6-1.8-0.9-2.7c0-0.1-0.1-0.2-0.1-0.3c-0.1,0.2-0.1,0.3-0.2,0.4c-0.3,0.9-0.6,1.8-0.9,2.6c-0.1,0.3-0.3,0.2-0.5,0.3
	c-0.2,0-0.3,0-0.4-0.2c-0.4-1.3-0.8-2.6-1.2-3.8C16.5,17.9,16.5,17.9,16.5,17.8z"/>
<path class="st0" d="M76.8,21.7c-0.6,0.4-1.1,0.5-1.7,0.4c-1-0.1-1.6-0.8-1.4-1.8c0.1-0.6,0.6-1,1.3-1.1c0.6,0,1.1,0,1.7,0.3
	c0-0.5,0.1-0.9-0.1-1.3c-0.2-0.4-0.5-0.5-0.9-0.5c-0.4,0-0.7,0.1-0.8,0.5c-0.1,0.3-0.2,0.3-0.5,0.3c-0.1,0-0.3,0-0.4,0
	c0-0.3,0.1-0.5,0.3-0.7c0.2-0.1,0.5-0.2,0.7-0.3c0.6-0.1,1.2-0.1,1.7,0.1c0.5,0.2,0.8,0.6,0.8,1.1c0,0.9,0,1.9,0,2.8
	c0,0.2-0.1,0.3-0.3,0.3c-0.1,0-0.2,0-0.3,0C76.9,22,76.8,22,76.8,21.7z M76.8,20.7c0-0.9-0.1-1-0.9-1.1c-0.6-0.1-1.2,0.3-1.3,0.8
	c-0.1,0.7,0.2,1.2,0.8,1.4c0.3,0,0.6,0,0.9,0c0.5-0.1,0.5-0.2,0.5-0.7C76.8,20.9,76.8,20.8,76.8,20.7z"/>
<path class="st0" d="M29.6,19.6c0-0.4,0-0.8-0.1-1.2c-0.1-0.4-0.5-0.6-1-0.5c-0.5,0-0.7,0.2-0.9,0.8c-0.3,0-0.5,0-0.8,0
	c0.1-0.5,0.4-0.7,0.8-0.9c0.6-0.2,1.3-0.2,1.9,0c0.6,0.2,0.9,0.5,0.9,1.2c0,0.9,0,1.9,0,2.8c0,0.2-0.1,0.3-0.3,0.3
	c-0.2,0-0.6,0.2-0.6-0.3c-0.6,0.4-1.3,0.5-1.9,0.3c-0.8-0.2-1.2-0.7-1.1-1.6c0.1-0.6,0.6-1.2,1.3-1.2c0.3,0,0.6,0,0.9,0
	C29,19.4,29.3,19.5,29.6,19.6z M29.6,20.7c0-0.9-0.1-1-1-1.1c-0.1,0-0.1,0-0.2,0c-0.6,0-1,0.4-1.1,1c-0.1,0.6,0.3,1.1,0.8,1.2
	c0.3,0,0.6,0,0.8,0c0.6-0.1,0.6-0.2,0.6-0.7C29.6,20.9,29.6,20.8,29.6,20.7z"/>
<path class="st0" d="M69.5,19.8c-0.9,0-1.8,0-2.7,0c-0.5,0-0.5,0-0.4,0.5c0.1,0.3,0.1,0.6,0.2,0.9c0.2,0.4,0.5,0.7,1,0.7
	c0.5,0,0.8-0.3,0.9-0.7c0.1-0.1,0.1-0.4,0.2-0.4c0.2-0.1,0.5,0,0.7,0c0,0.5-0.2,0.8-0.6,1c-0.8,0.5-1.7,0.5-2.6,0.1
	c-0.6-0.3-0.8-1-0.8-1.6c0-0.4,0-0.8,0.1-1.2c0.2-0.8,0.8-1.2,1.6-1.3c0.3,0,0.6,0,0.9,0C69.1,17.9,69.7,18.7,69.5,19.8z M66.4,19.5
	c0.8,0,1.5,0,2.3,0c0-0.6-0.1-1.1-0.6-1.5c-0.3-0.2-0.7-0.2-1.1,0C66.5,18.4,66.4,18.9,66.4,19.5z"/>
<path class="st0" d="M44.9,19.8c-0.5,0-1,0-1.5,0c-0.5,0-0.9,0-1.4,0c-0.2,0-0.3,0.1-0.3,0.3c0.1,0.4,0.1,0.8,0.3,1.2
	c0.2,0.4,0.5,0.7,1,0.6c0.5,0,0.7-0.3,0.9-0.7c0.1-0.1,0.1-0.4,0.2-0.4c0.2-0.1,0.5,0,0.7,0c0,0.5-0.2,0.8-0.5,1
	c-0.7,0.5-2,0.5-2.7,0.1c-0.6-0.4-0.8-1-0.8-1.6c0-0.4,0-0.8,0.1-1.1c0.2-0.8,0.8-1.3,1.7-1.3c0.3,0,0.6,0,0.9,0
	C44.5,17.9,45,18.7,44.9,19.8z M41.7,19.5c0.8,0,1.5,0,2.3,0c0-0.6-0.1-1.1-0.6-1.5c-0.4-0.2-0.8-0.2-1.1,0
	C41.8,18.4,41.7,18.9,41.7,19.5z"/>
<path class="st0" d="M37.1,21.9C37,21.9,36.9,22,36.9,22c-0.3,0-0.7,0.1-1,0c-0.4-0.1-0.6-0.3-0.6-0.8c0-0.9,0-1.8,0-2.8
	c0-0.5,0-0.5-0.5-0.5c-0.1,0-0.1,0-0.2,0c0-0.1,0-0.2,0-0.3c0.1,0,0.2,0,0.3,0c0.1,0,0.2,0,0.4,0c0-0.5,0-0.9,0-1.3
	c0.3,0,0.6,0,0.8,0c0,0.4,0,0.7,0,1.1c0,0.2,0.1,0.3,0.3,0.3c0.2,0,0.4,0,0.6,0c0,0.1,0,0.2,0,0.3c-0.1,0-0.1,0-0.2,0
	c-0.7,0-0.7-0.1-0.7,0.7c0,0.7,0,1.4,0,2.2C36.1,21.8,36.2,21.9,37.1,21.9C37,21.8,37.1,21.8,37.1,21.9z"/>
<path class="st0" d="M82.4,17.8c0.3,0,0.5,0,0.8,0c0,0.3,0,0.6,0,0.8c0.3-0.5,0.6-1,1.3-0.9c0,0.2,0,0.4,0,0.6c-0.1,0-0.3,0-0.4,0.1
	c-0.5,0.1-0.8,0.4-0.8,0.9c0,0.8,0,1.6,0,2.3c0,0.1-0.1,0.3-0.1,0.3c-0.2,0-0.4,0-0.7,0c0,0,0-0.1,0-0.2
	C82.4,20.5,82.4,19.2,82.4,17.8z"/>
<path class="st0" d="M49.4,17.8c0.3,0,0.5,0,0.8,0c0,0.3,0,0.5,0,0.8c0.3-0.5,0.5-1,1.2-0.9c0,0.2,0,0.4,0,0.6c0,0,0,0,0,0
	c-1.1,0.1-1.3,0.6-1.2,1.5c0,0.6,0,1.2,0,1.9c0,0.3-0.1,0.4-0.3,0.3c-0.1,0-0.2,0-0.3,0c-0.2,0-0.2-0.1-0.2-0.2c0-1.3,0-2.6,0-3.9
	C49.4,17.9,49.4,17.8,49.4,17.8z"/>
</svg>
