<?xml version="1.0" encoding="utf-8"?>
<!-- Generator: Adobe Illustrator 24.0.2, SVG Export Plug-In . SVG Version: 6.00 Build 0)  -->
<svg version="1.1" id="Layer_1" xmlns="http://www.w3.org/2000/svg" xmlns:xlink="http://www.w3.org/1999/xlink" x="0px" y="0px"
	 viewBox="0 0 122 13" style="enable-background:new 0 0 122 13;" xml:space="preserve">
<style type="text/css">
	.st0{fill:#404040;}
</style>
<path class="st0" d="M27.4,3.4c0,2.6,0,5.1,0,7.5c0,0.7-0.4,0.6-0.8,0.6s-0.9,0.2-0.9-0.6c0-3.2,0-6.3,0-9.5c0-0.5,0.1-0.6,0.6-0.6
	c0.7,0,1.2,0.2,1.6,0.7C30,4,32,6.4,34,8.8c0.2-0.1,0.1-0.3,0.1-0.5c0-2.3,0-4.6,0-6.9c0-0.5,0.1-0.7,0.6-0.6c1,0,1,0,1,1
	c0,3,0,6.1,0,9.1c0,0.5-0.1,0.6-0.6,0.6c-0.7,0-1.1-0.2-1.6-0.7c-1.9-2.4-3.9-4.7-5.8-7C27.7,3.7,27.6,3.7,27.4,3.4z"/>
<path class="st0" d="M112.1,3.4c0,2.6,0,5,0,7.4c0,0.8-0.4,0.7-0.9,0.7s-0.8,0-0.8-0.7c0-3.1,0-6.3,0-9.4c0-0.5,0.1-0.6,0.6-0.7
	c0.7,0,1.2,0.2,1.6,0.8c2,2.4,4,4.8,6.1,7.3c0.2-0.3,0.1-0.6,0.1-0.8c0-2.2,0-4.4,0-6.6c0-0.5,0.1-0.7,0.6-0.6c0.1,0,0.2,0,0.3,0
	c0.5-0.1,0.7,0.1,0.7,0.7c0,2.6,0,5.2,0,7.7c0,0.4,0,0.9,0,1.3c0,0.3,0.3,0.9-0.2,1c-0.6,0.1-1.2,0.3-1.7-0.4
	C116.5,8.6,114.3,6.1,112.1,3.4z"/>
<path class="st0" d="M98.2,6.2c0-1.6,0-3.2,0-4.8c0-0.4,0.1-0.5,0.5-0.5c2.5,0,5,0,7.5,0c0.5,0,0.6,0.1,0.6,0.6c0,0.2,0,0.3,0,0.5
	c0.1,0.4-0.1,0.5-0.5,0.5c-1.9,0-3.9,0-5.8,0c-0.5,0-0.6,0.1-0.6,0.6c0,0.6,0,1.2,0,1.7c0,0.4,0.1,0.5,0.5,0.5c1.7,0,3.4,0,5.1,0
	c0.6,0,0.7,0.3,0.7,0.8c0,0.4,0.1,0.8-0.6,0.8c-1.7-0.1-3.4,0-5.1,0c-0.4,0-0.6,0.1-0.6,0.6c0,0.6,0,1.3,0,1.9s0.1,0.7,0.7,0.7
	c1.9,0,3.8,0,5.7,0c0.7,0,0.6,0.4,0.6,0.8c0,0.4,0.1,0.8-0.6,0.8c-2.5,0-4.9,0-7.4,0c-0.5,0-0.6-0.1-0.6-0.6
	C98.2,9.4,98.2,7.8,98.2,6.2z"/>
<path class="st0" d="M58.7,6.2c0-1.6,0-3.2,0-4.8c0-0.4,0.1-0.5,0.5-0.5c2.5,0,5,0,7.5,0c0.5,0,0.6,0.1,0.6,0.6c0,0.1,0,0.3,0,0.4
	c0.1,0.5-0.1,0.6-0.6,0.6c-1.9,0-3.8,0-5.8,0c-0.5,0-0.7,0.1-0.6,0.6c0,0.5,0,1.1,0,1.7c0,0.5,0.1,0.6,0.6,0.6c1.7,0,3.4,0,5.1,0
	c0.8,0,0.5,0.5,0.5,0.9C66.6,6.7,66.5,7,66,7c-1.7,0-3.4,0-5.1,0c-0.5,0-0.6,0.1-0.6,0.6c0,0.7,0,1.3,0,2c0,0.5,0.1,0.6,0.6,0.6
	c1.9,0,3.8,0,5.7,0c0.5,0,0.7,0.1,0.7,0.7c-0.1,0.9,0,0.9-1,0.9c-2.3,0-4.7,0-7,0c-0.5,0-0.7-0.1-0.7-0.7
	C58.8,9.4,58.7,7.8,58.7,6.2z"/>
<path class="st0" d="M94.2,3.5c-0.5,0-0.9,0-1.3,0c-0.2,0-0.3,0-0.4-0.2c-0.3-0.6-0.8-0.8-1.4-0.9c-1.1-0.2-2.3-0.2-3.4,0
	c-0.2,0.1-0.5,0.2-0.7,0.3c-0.5,0.2-0.7,0.6-0.6,1.1c0,0.5,0.3,0.8,0.7,1C88,5.1,89,5.2,90,5.4c0.9,0.2,1.8,0.4,2.6,0.7
	c1.3,0.5,1.9,1.3,1.9,2.6c0,1.1-0.6,2-1.8,2.5c-2.1,0.8-4.2,0.8-6.4,0.1c-1.2-0.4-1.7-1.2-1.9-2.6c0.4,0,0.9,0,1.3,0
	c0.2,0,0.3,0.1,0.4,0.3c0.2,0.7,0.7,1,1.3,1.1c1.4,0.3,2.8,0.4,4.2,0c0.4-0.1,0.8-0.3,1-0.7c0.5-0.6,0.3-1.5-0.4-1.8
	c-1.2-0.5-2.6-0.6-3.9-1c-0.9-0.2-1.7-0.4-2.5-0.9c-1.5-1-1.5-3.3,0-4.3C86.4,1,87,0.8,87.7,0.8c1.7-0.2,3.4-0.3,4.9,0.5
	C93.6,1.7,94.1,2.4,94.2,3.5z"/>
<path class="st0" d="M54.6,6.2c0,1.6,0,3.2,0,4.8c0,0.5-0.2,0.6-0.6,0.6c-1,0-1,0-1-1c0-1.1,0-2.2,0-3.3c0-0.4-0.1-0.6-0.5-0.6
	c-1.9,0-3.8,0-5.7,0c-0.4,0-0.5,0.1-0.5,0.5c0,1.2,0,2.4,0,3.7c0,0.5-0.1,0.6-0.6,0.6c-0.2,0-0.4,0-0.6,0c-0.3,0-0.4-0.1-0.4-0.4
	c0-3.3,0-6.6,0-9.8c0-0.4,0.1-0.5,0.5-0.5c0.2,0,0.4,0,0.6,0c0.4-0.1,0.5,0.1,0.5,0.5c0,1.1,0,2.2,0,3.3c0,0.6,0.2,0.7,0.7,0.7
	c1.8,0,3.6,0,5.3,0c0.6,0,0.8-0.1,0.7-0.7c-0.1-1.1,0-2.1,0-3.2c0-0.5,0.1-0.6,0.6-0.6c0.2,0,0.4,0,0.6,0c0.4-0.1,0.5,0.1,0.5,0.5
	C54.6,3,54.6,4.6,54.6,6.2z"/>
<path class="st0" d="M80.9,4.5c0,0.9,0,1.9,0,2.8c-0.1,2.5-1.6,4.1-4.1,4.4c-0.9,0.1-1.8,0.1-2.7-0.2c-2-0.5-3.1-2-3.1-4.2
	c0-2,0-3.9,0-5.9c0-0.4,0.1-0.6,0.5-0.6c0.2,0,0.3,0,0.5,0c0.5-0.1,0.6,0.1,0.6,0.6c0,1.9,0,3.7,0,5.6c0,1.7,0.8,2.8,2.3,3.1
	c0.7,0.2,1.5,0.2,2.2,0c1.3-0.3,2.1-1.2,2.1-2.5c0.1-2,0-4,0.1-5.9c0-0.3-0.2-0.7,0.2-0.7c0.4-0.1,0.9-0.1,1.4,0
	C81.1,1,81,1.3,81,1.5C80.9,2.5,80.9,3.5,80.9,4.5L80.9,4.5z"/>
<path class="st0" d="M1,0.9c1.7-0.1,1.7-0.1,2.4,1.4c1,2.3,1.9,4.7,3,7.1c0.5-1.3,1-2.4,1.5-3.6C8.4,4.4,9,3,9.6,1.5
	c0.2-0.5,0.4-0.8,1-0.7c0.3,0.1,0.6,0,1.1,0c-0.6,1.3-1.1,2.6-1.6,3.9c-1,2.2-1.9,4.3-2.8,6.4c-0.2,0.5-0.5,0.5-0.9,0.5
	c-0.4-0.1-0.9,0.2-1.2-0.4C3.9,7.8,2.5,4.5,1,1.1C1,1.1,1,1,1,0.9z"/>
<path class="st0" d="M22.8,10.9c-1.5-3.2-2.9-6.4-4.3-9.6c-0.1-0.2-0.1-0.4-0.4-0.5c-0.8-0.2-1.4,0-1.7,0.8
	c-0.1,0.2-0.1,0.3-0.2,0.4c-1.3,3-2.7,6-4,9c-0.1,0.2-0.2,0.3-0.1,0.5c0.2,0.3,1.7,0,1.8-0.3c0.3-0.7,0.6-1.5,0.9-2.2
	c0.1-0.3,0.3-0.4,0.6-0.4c1.3,0,2.7,0,4,0c0.3,0,0.5,0.1,0.6,0.4c0.2,0.6,0.5,1.2,0.7,1.8c0.2,0.6,0.5,1,1.1,0.8
	c0.2,0,0.4,0,0.6-0.1C23,11.6,23,11.3,22.8,10.9z M15.6,7c0.6-1.4,1.2-2.8,1.8-4.3C18,4.2,18.6,5.6,19.2,7C18,7,16.8,7,15.6,7z"/>
</svg>
