<?xml version="1.0" encoding="utf-8"?>
<!-- Generator: Adobe Illustrator 24.0.2, SVG Export Plug-In . SVG Version: 6.00 Build 0)  -->
<svg version="1.1" id="Layer_1" xmlns="http://www.w3.org/2000/svg" xmlns:xlink="http://www.w3.org/1999/xlink" x="0px" y="0px"
	 viewBox="0 0 99 37" style="enable-background:new 0 0 99 37;" xml:space="preserve">
<style type="text/css">
	.st0{fill:#696A6D;}
	.st1{fill:#808080;}
	.st2{fill:#404040;}
	.st3{fill:#BFBFBF;}
	.st4{fill:#FFFFFF;}
</style>
<path id="path2750" class="st0" d="M11.1,36.4h-0.9l-2-5.7c-0.2-0.5-0.4-1-0.6-1.7h0c-0.2,0.6-0.4,1.2-0.6,1.7l-2.1,5.7H4l-3.8-11
	h1.3L4,32.7c0.2,0.6,0.4,1.2,0.5,1.7h0c0.2-0.5,0.4-1.1,0.6-1.7L7,27.5l-0.7-2.2h1.3l2.5,7.3c0.2,0.6,0.4,1.2,0.6,1.7h0
	c0.1-0.6,0.3-1,0.5-1.6l2.4-7.3h1.3L11.1,36.4"/>
<path id="path2754" class="st0" d="M18.4,29.3c-1.5,0-2.3,1.2-2.3,3.1c0,1.9,0.9,3.1,2.3,3.1c1.5,0,2.3-1.2,2.3-3.1
	C20.8,30.5,19.9,29.3,18.4,29.3z M20.9,35.5c-0.6,0.6-1.5,1-2.5,1c-1,0-1.8-0.3-2.4-1c-0.7-0.7-1.1-1.8-1.1-3.1
	c0-1.3,0.4-2.4,1.1-3.1c0.6-0.6,1.5-1,2.5-1c1,0,1.9,0.4,2.5,1c0.7,0.7,1.1,1.8,1.1,3.1C22,33.7,21.6,34.8,20.9,35.5"/>
<path id="path2758" class="st0" d="M25,36.5c-1,0-1.4-0.6-1.4-1.4V24.6h1.2v10c0,0.7,0.2,0.9,0.6,0.9c0.1,0,0.2,0,0.4,0l0.1,0.9
	C25.7,36.4,25.4,36.5,25,36.5"/>
<path id="path2762" class="st0" d="M29.4,36.5c-1.1,0-1.7-0.7-1.7-1.7v-5.3h-1.3v-1h1.3v-1.7l1.2-0.4v2.1h2.4l-0.4,1h-2v5
	c0,0.7,0.2,1,0.8,1c0.6,0,1.1-0.3,1.4-0.6l0.4,0.9C30.9,36.2,30.1,36.5,29.4,36.5"/>
<path id="path2766" class="st0" d="M35.1,29.3c-1.2,0-1.9,1-1.9,2.3H37C37,30.5,36.3,29.3,35.1,29.3z M33.2,32.6
	c0,1.5,0.9,2.8,2.6,2.8c0.7,0,1.4-0.3,1.9-0.6l0.4,0.8c-0.6,0.5-1.6,0.8-2.5,0.8c-2.5,0-3.7-2-3.7-4.3c0-2.3,1.3-4,3.2-4
	c2,0,3.1,1.6,3.1,4.1c0,0.1,0,0.2,0,0.3H33.2"/>
<path id="path2770" class="st0" d="M43.8,29.7c-0.2-0.1-0.4-0.1-0.7-0.1c-0.5,0-1.2,0.4-1.7,0.9v5.8h-1.2v-7.9h1l0.2,0.9
	c1.1-1,1.7-1.1,2.2-1.1c0.3,0,0.6,0.1,0.8,0.2L43.8,29.7"/>
<path id="path2774" class="st0" d="M46.9,36.5c-1.1,0-1.8-0.3-2.3-0.6L45,35c0.4,0.2,1,0.6,1.9,0.6c1,0,1.7-0.4,1.7-1.2
	c0-1.9-3.6-1.2-3.6-4c0-1.1,0.8-2.1,2.6-2.1c0.8,0,1.5,0.2,2,0.4v1.1c-0.5-0.2-1.1-0.5-1.9-0.5c-0.8,0-1.5,0.3-1.5,1
	c0,1.8,3.6,1.3,3.6,3.9C49.8,35.8,48.5,36.5,46.9,36.5"/>
<path id="path2778" class="st0" d="M60.6,36.4l-4.4-5h0v5H55v-11h1.2v5h0l4.1-5h1.5l-4.5,5.4l4.9,5.5H60.6"/>
<path id="path2782" class="st0" d="M64.8,36.5c-1,0-1.4-0.6-1.4-1.4V24.6h1.2v10c0,0.7,0.2,0.9,0.6,0.9c0.1,0,0.2,0,0.4,0l0.2,0.9
	C65.5,36.4,65.2,36.5,64.8,36.5"/>
<path id="path2786" class="st0" d="M72.3,36.4L72,35.5c-0.6,0.5-1.5,1-2.5,1c-1.1,0-2.4-0.5-2.4-2.8v-5.3h1.2v5.2
	c0,1.3,0.6,1.8,1.5,1.8c1,0,1.8-0.6,2.1-1v-5.9h1.2v4.6c0,2.5,0,3,0.2,3.3H72.3"/>
<path id="path2790" class="st0" d="M83.1,36.4H82l-2-6.4H80l-1.9,6.4H77l-2.6-7.9h1.2l1.9,6.3h0l1.9-6.3h1.1l2,6.3h0l1.9-6.3h1.2
	L83.1,36.4"/>
<path id="path2794" class="st0" d="M89.5,29.3c-1.2,0-1.9,1-1.9,2.3h3.7C91.3,30.5,90.7,29.3,89.5,29.3z M87.6,32.6
	c0,1.5,0.9,2.8,2.6,2.8c0.7,0,1.4-0.3,1.9-0.6l0.4,0.8c-0.6,0.5-1.6,0.8-2.5,0.8c-2.5,0-3.7-2-3.7-4.3c0-2.3,1.3-4,3.2-4
	c2,0,3.1,1.6,3.1,4.1c0,0.1,0,0.2,0,0.3H87.6"/>
<path id="path2798" class="st0" d="M98,29.7c-0.2-0.1-0.4-0.1-0.7-0.1c-0.5,0-1.2,0.4-1.7,0.9v5.8h-1.2v-7.9h1l0.2,0.9
	c1.1-1,1.7-1.1,2.2-1.1c0.3,0,0.6,0.1,0.8,0.2L98,29.7"/>
<path id="path2684" class="st1" d="M46.3,2.9V0.3c-1.8,0.4-3.4,1.3-4.6,2.6H46.3"/>
<path id="path2688" class="st2" d="M50.9,2.9V0.3c1.8,0.4,3.4,1.3,4.6,2.6H50.9"/>
<path id="path2692" class="st3" d="M48.7,0c-0.8,0-1.6,0.1-2.3,0.3v2.6h4.6V0.3C50.2,0.1,49.4,0,48.7,0"/>
<path id="path2696" class="st2" d="M50.9,16.7v2.6c1.8-0.4,3.4-1.3,4.6-2.6H50.9"/>
<path id="path2700" class="st2" d="M46.3,16.7v2.6c-1.8-0.4-3.4-1.3-4.6-2.6H46.3"/>
<path id="path2704" class="st1" d="M48.6,19.6c0.8,0,1.6-0.1,2.3-0.3v-2.6h-4.6v2.6C47.1,19.5,47.8,19.6,48.6,19.6"/>
<path id="path2708" class="st2" d="M55.6,7.5h2.6c-0.4-1.8-1.3-3.4-2.6-4.6V7.5"/>
<path id="path2712" class="st2" d="M55.6,12.1h2.6c-0.4,1.8-1.3,3.4-2.6,4.6V12.1"/>
<path id="path2716" class="st1" d="M58.4,9.8c0-0.8-0.1-1.6-0.3-2.3h-2.6v4.6h2.6C58.3,11.3,58.4,10.6,58.4,9.8"/>
<path id="path2720" class="st2" d="M41.7,12.1h-2.6c0.4,1.8,1.3,3.4,2.6,4.6V12.1"/>
<path id="path2724" class="st1" d="M41.7,7.5h-2.6c0.4-1.8,1.3-3.4,2.6-4.6V7.5"/>
<path id="path2728" class="st3" d="M38.9,9.8c0,0.8,0.1,1.6,0.3,2.3h2.6V7.5h-2.6C39,8.2,38.9,9,38.9,9.8"/>
<path id="path2730" class="st3" d="M41.7,7.5h4.6V2.9h-4.6V7.5z"/>
<path id="path2732" class="st4" d="M41.7,12.1h4.6V7.5h-4.6V12.1z"/>
<path id="path2734" class="st1" d="M41.7,16.7h4.6v-4.6h-4.6V16.7z"/>
<path id="path2736" class="st4" d="M46.3,7.5h4.6V2.9h-4.6V7.5z"/>
<path id="path2738" class="st1" d="M46.3,12.1h4.6V7.5h-4.6V12.1z"/>
<path id="path2740" class="st3" d="M46.3,16.7h4.6v-4.6h-4.6V16.7z"/>
<path id="path2742" class="st1" d="M50.9,7.5h4.6V2.9h-4.6V7.5z"/>
<path id="path2744" class="st3" d="M50.9,12.1h4.6V7.5h-4.6V12.1z"/>
<path id="path2746" class="st1" d="M50.9,16.7h4.6v-4.6h-4.6V16.7z"/>
<path id="path2802" class="st0" d="M58.4,15.7H58v1h-0.3v-1h-0.4v-0.2h1L58.4,15.7"/>
<path id="path2806" class="st0" d="M59.6,16.7v-0.6c0,0,0-0.1,0-0.1h0c0,0-0.1,0.1-0.1,0.1l-0.2,0.3h-0.1l-0.2-0.3
	c0,0-0.1-0.1-0.1-0.1h0c0,0,0,0.1,0,0.1v0.6h-0.3v-1.2h0.3l0.3,0.4c0,0.1,0.1,0.1,0.1,0.1h0c0,0,0.1-0.1,0.1-0.2l0.3-0.4h0.3v1.2
	H59.6"/>
</svg>
