<?xml version="1.0" encoding="utf-8"?>
<!-- Generator: Adobe Illustrator 24.0.2, SVG Export Plug-In . SVG Version: 6.00 Build 0)  -->
<svg version="1.1" id="Layer_1" xmlns="http://www.w3.org/2000/svg" xmlns:xlink="http://www.w3.org/1999/xlink" x="0px" y="0px"
	 viewBox="0 0 300 300" style="enable-background:new 0 0 300 300;" xml:space="preserve">
<style type="text/css">
	.st0{fill:#333333;}
	.st1{fill:#333333;stroke:#FFFFFF;stroke-width:4;stroke-miterlimit:10;}
</style>
<rect class="st0" width="300" height="300"/>
<g>
	<path class="st1" d="M101.23,143c12.07,2.8,7.09,19.17,3.45,27.1c-3.26,7.25-9.24,12.47-14.78,17.92
		c-2.66,3.07-13.6,10.46-12.96,14.08c1.73,1.24,4.52,1.98,5.66,4.11c1.75,1.09,2.58,3.52,4.5,4.26c5.89,0.87,11.71-1.24,16.35-4.8
		c8.55-4.41,14.66-16.39,16.37-25.54c0.06-4.55-1.94,0.62-2.68,0.27c-0.76-0.73,0.8-1.55,0.8-2.39c0.3-1.04,1.6-1.27,2.55-1.3
		c0.89,0.19,0.56,1.48,0.87,2.13c-0.38,7.97-5.74,18.27-11.2,24.11c-17.33,15.23-24.89,5.37-21.04,12.39
		c0.95,0.83,0.99,2.23,1.54,3.19c0.38,0.47,0.47,1.15,0.6,1.71c0.13,0.72,0.78,1.23,0.74,1.98c0.52,2.86,1.73,5.48,1.82,8.29
		c2.17,7.83,3.23,16.34,2.86,24.58c0.28,5.42-2.34,14.18-9.25,8.85c-2.27-2.89-3.78-6.38-5.35-9.68c-1.92-3.4-2.4-7.52-3.8-11.05
		c-0.46-1.67-0.56-3.12-0.95-4.72c-0.16-2.02-0.58-4.04-1.23-5.9c-0.18-3.13-0.8-6.37-1.06-9.56c-0.38-3.56-0.33-7.14-0.49-10.69
		c-0.03-2.25,0.9-5.24-1.06-6.84c-0.76-0.47-1.1-1.52-2.01-0.31c-1.69,1.79-3.3,3.65-4.99,5.44c-3.11,3.97-6.5,7.5-9.41,11.65
		c-2.11,2.81-4.82,5.47-5.76,8.92c-0.72,5.65,0.14,11.62-0.3,16.98c-0.1,8.01-0.62,15.99-0.25,23.73c-0.25,4.56,0.17,9,0.22,13.54
		c-0.05,1.89,0.75,5-0.81,6.52c-6.03-1.27-8.51-9.57-10.94-13.73c-3.88-9.39-3.59-20.37,0.49-29.82c0.84-3.29,2.83-6.03,4.29-9.06
		c1.69-3.19,3.19-6.4,5.54-9.26c0.74-3.38,0.37-6.97,0.64-10.45c0.36-8.51,1.58-17.13,2.37-25.5c2.68-9.43-2.52,0.66-4.83,2.88
		c-1.82,2.99-14.93,16.88-17.75,12.55c0.33-1.36,1.85-1.03,2.88-1.48c1.6-0.18,2.49-1.74,3.96-2.2c6.55-5.24,11.98-12.09,16.23-19.3
		c0.67-1.59,1.43-3.13,1.86-4.8c0.08-0.85-0.31-2.03,0.67-2.56c1.35-0.63,1.5-0.01,1.45,1.24c0.42,1.74-0.82,3.25-1.09,4.86
		c-0.92,2.67-1.15,5.45-1.64,8.21c-1.64,11-2.67,21.95-2.7,33.1c2.51-3.33,4.98-6.57,7.6-9.88c3.67-4.25,7.14-8.64,11.01-12.71
		c2.38-1.61-1.59-1.89-0.34-3.27c2.12-0.96,3.14,1.36,5.34-1.54c2.55-12.91,4.42-26.76,10.57-38.78
		C88.62,154.62,94.38,144.06,101.23,143z M77.45,197.03c12.86-11.88,28.25-22.45,29.97-41.46c0.71-4.44-0.82-11.03-6.22-11.27
		c-5.89,1-11.7,11.4-13.97,16.6C81.71,172.19,78.87,184.67,77.45,197.03z M82.81,251.47c0.23,1.51,1.15,2.9,1.88,4.26
		c1.18,2.44,2.16,5.27,4.23,7.08c4.45,3.05,6.32-3.89,5.95-6.98c1.19-9.45-0.82-19.13-2.69-28.29c-1.68-5.22-2.59-11.57-6.52-15.5
		c-8.03-1.12-9.96-7.77-9.54-0.17C76.09,225.07,78.37,239.11,82.81,251.47z M49.46,233.34c-2.48,2.34-3.69,6.4-5.42,9.48
		c-1.26,2.13-2.53,4.32-3.06,6.66c-3.8,8.93-4.16,19.58-0.1,28.63c1.55,3.42,3.26,6.66,5.52,9.6c0.4,0.88,1.57,1.12,2.38,1.55
		c1.19,0.42,0.55-1.43,0.64-2.02c-0.05-5.23-0.35-10.87-0.34-16.28c-0.33-4.21,0.31-8.6-0.28-12.69
		C49.9,250.09,49.51,241.72,49.46,233.34z M76.73,203.51c-0.33,1.75-0.73,2.61,1.1,3.55c1.94,1.32,4.01,2.56,6.44,2.82
		c-0.18-1.05-1.25-1.55-1.83-2.4C81.18,205.55,78.82,204.05,76.73,203.51z M74.7,202.61c-2.21-0.39-0.18,3,0.37,1.51
		C75.12,203.64,75.15,202.89,74.7,202.61z M97.99,210.01c-0.27-0.3-0.35-0.28-0.57,0.15C97.63,210.1,97.8,210.06,97.99,210.01z"/>
	<path class="st1" d="M51.28,156.61c-1.07,0.05-3.23,0.01-2.67-1.59c0.33-0.69,1.26-0.13,1.83-0.5c1.06-0.5,0.59,0.98,1.49,1.03
		C53.17,155.77,52.01,157.03,51.28,156.61z"/>
</g>
</svg>
