<?xml version="1.0" encoding="utf-8"?>
<!-- Generator: Adobe Illustrator 24.0.2, SVG Export Plug-In . SVG Version: 6.00 Build 0)  -->
<svg version="1.1" id="Layer_1" xmlns="http://www.w3.org/2000/svg" xmlns:xlink="http://www.w3.org/1999/xlink" x="0px" y="0px"
	 viewBox="0 0 300 300" style="enable-background:new 0 0 300 300;" xml:space="preserve">
<style type="text/css">
	.st0{fill:#0D0D0D;}
	.st1{fill:#333333;stroke:#FFFFFF;stroke-width:6;stroke-miterlimit:10;}
</style>
<rect class="st0" width="300" height="300"/>
<g>
	<path class="st1" d="M128.6,100c16.2,3.8,9.5,25.7,4.6,36.4c-4.4,9.7-12.4,16.7-19.8,24.1c-3.6,4.1-18.3,14-17.4,18.9
		c2.3,1.7,6.1,2.7,7.6,5.5c2.3,1.5,3.5,4.7,6,5.7c7.9,1.2,15.7-1.7,21.9-6.4c11.5-5.9,19.7-22,22-34.3c0.1-6.1-2.6,0.8-3.6,0.4
		c-1-1,1.1-2.1,1.1-3.2c0.4-1.4,2.1-1.7,3.4-1.7c1.2,0.3,0.8,2,1.2,2.9c-0.5,10.7-7.7,24.5-15,32.4c-23.3,20.4-33.4,7.2-28.2,16.6
		c1.3,1.1,1.3,3,2.1,4.3c0.5,0.6,0.6,1.5,0.8,2.3c0.2,1,1,1.7,1,2.7c0.7,3.8,2.3,7.4,2.4,11.1c2.9,10.5,4.3,21.9,3.8,33
		c0.4,7.3-3.1,19-12.4,11.9c-3-3.9-5.1-8.6-7.2-13c-2.6-4.6-3.2-10.1-5.1-14.8c-0.6-2.2-0.8-4.2-1.3-6.3c-0.2-2.7-0.8-5.4-1.7-7.9
		c-0.2-4.2-1.1-8.6-1.4-12.8c-0.5-4.8-0.4-9.6-0.7-14.3c0-3,1.2-7-1.4-9.2c-1-0.6-1.5-2-2.7-0.4c-2.3,2.4-4.4,4.9-6.7,7.3
		c-4.2,5.3-8.7,10.1-12.6,15.6c-2.8,3.8-6.5,7.3-7.7,12c-1,7.6,0.2,15.6-0.4,22.8c-0.1,10.8-0.8,21.5-0.3,31.9
		c-0.3,6.1,0.2,12.1,0.3,18.2c-0.1,2.5,1,6.7-1.1,8.8c-8.1-1.7-11.4-12.8-14.7-18.4c-5.2-12.6-4.8-27.3,0.7-40
		c1.1-4.4,3.8-8.1,5.8-12.2c2.3-4.3,4.3-8.6,7.4-12.4c1-4.5,0.5-9.4,0.9-14c0.5-11.4,2.1-23,3.2-34.2c3.6-12.7-3.4,0.9-6.5,3.9
		c-2.4,4-20,22.7-23.8,16.8c0.4-1.8,2.5-1.4,3.9-2c2.1-0.2,3.3-2.3,5.3-3c8.8-7,16.1-16.2,21.8-25.9c0.9-2.1,1.9-4.2,2.5-6.4
		c0.1-1.1-0.4-2.7,0.9-3.4c1.8-0.8,2,0,1.9,1.7c0.6,2.3-1.1,4.4-1.5,6.5c-1.2,3.6-1.5,7.3-2.2,11c-2.2,14.8-3.6,29.5-3.6,44.4
		c3.4-4.5,6.7-8.8,10.2-13.3c4.9-5.7,9.6-11.6,14.8-17.1c3.2-2.2-2.1-2.5-0.5-4.4c2.8-1.3,4.2,1.8,7.2-2.1
		c3.4-17.3,5.9-35.9,14.2-52.1C111.7,115.6,119.4,101.4,128.6,100z M96.7,172.5c17.3-15.9,37.9-30.1,40.2-55.7
		c1-6-1.1-14.8-8.3-15.1c-7.9,1.3-15.7,15.3-18.8,22.3C102.4,139.2,98.6,155.9,96.7,172.5z M103.9,245.6c0.3,2,1.5,3.9,2.5,5.7
		c1.6,3.3,2.9,7.1,5.7,9.5c6,4.1,8.5-5.2,8-9.4c1.6-12.7-1.1-25.7-3.6-38c-2.3-7-3.5-15.5-8.8-20.8c-10.8-1.5-13.4-10.4-12.8-0.2
		C94.9,210.2,97.9,229,103.9,245.6z M59.1,221.3c-3.3,3.1-5,8.6-7.3,12.7c-1.7,2.9-3.4,5.8-4.1,8.9c-5.1,12-5.6,26.3-0.1,38.4
		c2.1,4.6,4.4,8.9,7.4,12.9c0.5,1.2,2.1,1.5,3.2,2.1c1.6,0.6,0.7-1.9,0.9-2.7c-0.1-7-0.5-14.6-0.5-21.9c-0.4-5.7,0.4-11.5-0.4-17
		C59.7,243.8,59.2,232.5,59.1,221.3z M95.7,181.2c-0.4,2.3-1,3.5,1.5,4.8c2.6,1.8,5.4,3.4,8.6,3.8c-0.2-1.4-1.7-2.1-2.5-3.2
		C101.7,184,98.5,182,95.7,181.2z M93,180c-3-0.5-0.2,4,0.5,2C93.6,181.4,93.6,180.4,93,180z"/>
	<path class="st1" d="M61.6,118.3c-1.4,0.1-4.3,0-3.6-2.1c0.4-0.9,1.7-0.2,2.5-0.7c1.4-0.7,0.8,1.3,2,1.4
		C64.1,117.1,62.5,118.8,61.6,118.3z"/>
</g>
</svg>
