<?xml version="1.0" encoding="utf-8"?>
<!-- Generator: Adobe Illustrator 24.0.2, SVG Export Plug-In . SVG Version: 6.00 Build 0)  -->
<svg version="1.1" id="Layer_1" xmlns="http://www.w3.org/2000/svg" xmlns:xlink="http://www.w3.org/1999/xlink" x="0px" y="0px"
	 viewBox="0 0 125 125" style="enable-background:new 0 0 125 125;" xml:space="preserve">
<path d="M125,3.6c0-3-0.6-3.6-3.6-3.6C82.1,0.1,42.9,0.1,3.6,0C0.6,0,0,0.6,0,3.6C0.1,44,0.1,84.5,0.1,124.9
	c40.4,0,80.9,0,121.3,0.1c3,0,3.6-0.6,3.6-3.6C124.9,82.1,124.9,42.9,125,3.6z M109.9,40.8C103.7,54.9,97.4,69,91.4,83.1
	c-1.3,3-2.9,3.8-6.1,4.2c-7.1,0.9-10.7-1.6-13-8.4c-2.7-8-6.6-15.5-10.1-23.3c-0.6-1.3-0.8-3.4-2.8-2.8c-3.7,1.1-5.3-0.8-7.5-3.4
	c-4-4.7-9.6-4.8-15.2-3.5c-5.1,1.2-8.4,4.5-9.6,9.7c-0.9,3.8-1.1,7.5-0.4,11.4c1.4,7.5,4.9,11.1,11.7,12.3
	c7.2,1.2,12.1-1.1,15.5-7.9c1-2,1.8-2.4,3.7-1.7c2.8,0.9,5.8,1.5,9,2.4c-2.1,7.4-6.9,12-13.8,14.4c-6.3,2.1-12.7,2.3-19.2,0.8
	c-13.8-3.2-21.2-13.2-20-26.8c1.2-13.5,10.3-22.5,24-23.5c4.5-0.3,8.9,0,13.4,0.6c4.3,0.6,8.7-0.8,13.1-0.8c2.8,0,4,1,5,3.5
	c4.5,11,9.2,22,14.1,33.9c4.8-11.6,9.3-22.1,13.3-32.8c1.4-3.7,3.2-4.9,6.8-4.4c2.5,0.3,5,0.1,7.4,0.1
	C111.6,38.7,110.4,39.7,109.9,40.8z"/>
</svg>
