<?xml version="1.0" encoding="utf-8"?>
<!-- Generator: Adobe Illustrator 24.0.2, SVG Export Plug-In . SVG Version: 6.00 Build 0)  -->
<svg version="1.1" id="Layer_1" xmlns="http://www.w3.org/2000/svg" xmlns:xlink="http://www.w3.org/1999/xlink" x="0px" y="0px"
	 viewBox="0 0 125 125" style="enable-background:new 0 0 125 125;" xml:space="preserve">
<path d="M124.7,0C124.7,0,124.7,0,124.7,0C83,0.1,41.4,0.1-0.3,0c0,0,0,0,0,0c0.1,41.6,0.1,83.3,0.1,124.9c41.6,0,83.3,0,124.9,0.1
	c0,0,0,0,0,0C124.6,83.3,124.6,41.7,124.7,0z M60.6,52.9c-7.5-11.3-18.7-8.2-24.3-6.9c-5.1,1.2-8.4,4.5-9.6,9.7
	c-0.9,3.8-1.1,7.5-0.4,11.4c1.4,7.5,4.9,11.1,11.7,12.3c7.2,1.2,12.1-1.1,15.5-7.9c1-2,1.8-2.4,3.7-1.7c2.8,0.9,5.8,1.5,9,2.4
	c-2.1,7.4-6.9,12-13.8,14.4c-6.3,2.1-14,3.2-21.8,0.7c-13.7-4.4-18.5-13.1-17.3-26.7c1.2-13.5,10.3-22.5,24-23.5
	c4.5-0.3,8.9,0,13.4,0.6c4.3,0.6,8.7-0.8,13.1-0.8c2.8,0,4,1,5,3.5c4.5,11,9.2,22,14.1,33.9c4.8-11.6,9.3-22.1,13.3-32.8
	c1.4-3.7,3.2-4.9,6.8-4.4c2.5,0.3,5,0.1,7.4,0.1c0.9,1.6-0.3,2.7-0.8,3.8C103.4,54.9,97.1,69,91.1,83.1c-1.3,3-2.9,3.8-6.1,4.2
	c-7.1,0.9-10.7-1.6-13-8.4c-2.7-8-7.4-17.6-10.1-23.3"/>
</svg>
