<?xml version="1.0" encoding="utf-8"?>
<!-- Generator: Adobe Illustrator 24.0.2, SVG Export Plug-In . SVG Version: 6.00 Build 0)  -->
<svg version="1.1" id="Layer_1" xmlns="http://www.w3.org/2000/svg" xmlns:xlink="http://www.w3.org/1999/xlink" x="0px" y="0px"
	 viewBox="0 0 125 125" style="enable-background:new 0 0 125 125;" xml:space="preserve">
<path d="M125,125c-0.1-41.7-0.1-83.3,0-125C83.3,0.1,41.7,0.1,0,0c0,0,0,0,0,0c0.1,41.6,0.1,83.3,0.1,124.9
	C41.7,124.9,83.4,124.9,125,125C125,125,125,125,125,125z M77.8,102.1c-4.3,1.6-4.7,0-4.9-3.6c-0.2-5,1.3-10.3-1.5-15.1
	c-1.1-1.9,0.9-1.9,1.7-2.2c16-5.7,19.5-13.9,12.6-30.1c-1.2-2.8,0.4-5.5-0.2-8.3c-0.7-3.2-2.2-4.7-5-2.9c-8.7,5.7-18.5,0.6-27.6,3
	c-2.3,0.6-5.4-2-8.1-3.1c-3-1.2-4.6-0.2-4.6,2.9c0,4.5-1.4,8.5-2.6,12.8C34.6,66.3,37,78.3,51.3,81c1.1,0.2,3.4,0.3,2.7,1.9
	c-0.8,1.9-0.6,4.7-3.8,5.2c-4,0.6-7-0.6-9.6-3.8c-2-2.4-3.9-5.5-8.1-4.2c10.1,13.5,10.1,13.5,19.6,13.2c-0.4,3.4,1.4,7.3-1.2,8.9
	c-2.9,1.7-6.1-1.1-8.8-2.8c-16.3-9.7-24-27.3-20-45.4c3.7-16.8,18.6-30.3,36.4-31.8c20.2-1.8,38.7,10.3,44.2,31.4
	C108,73.7,96.5,95,77.8,102.1z"/>
</svg>
