<?xml version="1.0" encoding="utf-8"?>
<!-- Generator: Adobe Illustrator 24.0.2, SVG Export Plug-In . SVG Version: 6.00 Build 0)  -->
<svg version="1.1" id="Layer_1" xmlns="http://www.w3.org/2000/svg" xmlns:xlink="http://www.w3.org/1999/xlink" x="0px" y="0px"
	 viewBox="0 0 124.9 124.9" style="enable-background:new 0 0 124.9 124.9;" xml:space="preserve">
<path d="M124.9,124.9c-0.1-41.7-0.1-83.3,0-125C83.2,0,41.6,0-0.1-0.1C0,41.5,0,83.2,0,124.8C41.6,124.8,83.3,124.8,124.9,124.9z
	 M37.9,98.3c-10,0.3-10,0.4-10-9.5c0-11.9,0.1-23.9-0.1-35.8c0-3.1,0.6-4.3,4-4.2c9.3,0.1,9.3,0,9.3,9.3c0,5.1,0,10.3,0,15.4
	c0,7.1-0.1,14.3,0.1,21.4C41.3,97.5,40.6,98.3,37.9,98.3z M34.7,41.4c-4.6,0-8-3.5-7.8-7.9c0.5-9.4,16.1-8.8,15.9,0.6
	C42.6,38.1,38.9,41.4,34.7,41.4z M94.4,98.4c-9.6,0-9.6,0.1-9.6-9.6c0-6.7,0.2-13.3-0.1-20c-0.3-7-3.6-10.7-8.7-10.7
	c-6.3,0-10.9,5-10.9,11.6c0,8.3-0.1,16.6,0.1,25c0.1,2.7-0.6,3.6-3.5,3.7C52,98.4,52,98.5,52,89.2c-0.1-12.1,0.2-24.3-0.1-36.4
	c-0.1-2.9,0.4-4.4,3.7-4c2.5,0.4,6.7-0.4,8.8,0.3c1.4,7.1,4.6,1.6,6.3,0.7C84.3,42.6,98.6,50,98,63.9c0.1,10.2-0.1,20.3,0.1,30.5
	C98.2,97.3,97.6,98.4,94.4,98.4z"/>
</svg>
